<?xml version="1.0" encoding="utf-8"?>
<!-- Generator: Adobe Illustrator 28.1.0, SVG Export Plug-In . SVG Version: 6.00 Build 0)  -->
<svg version="1.1" id="Layer_1" xmlns="http://www.w3.org/2000/svg" xmlns:xlink="http://www.w3.org/1999/xlink" x="0px" y="0px"
	 viewBox="0 0 1280 337.6" style="enable-background:new 0 0 1280 337.6;" xml:space="preserve">
<style type="text/css">
	.st0{fill:#FFFFFF;}
	.st1{fill:none;stroke:#51B6FF;stroke-width:2;stroke-linejoin:round;stroke-miterlimit:10;}
	.st2{fill:none;stroke:#51B6FF;stroke-linejoin:round;stroke-miterlimit:10;}
	.st3{fill:none;stroke:#51B6FF;stroke-miterlimit:10;}
	.st4{fill:none;}
	.st5{fill:none;stroke:#51B6FF;stroke-width:1;stroke-linejoin:round;stroke-miterlimit:10.0002;}
	.st6{fill:none;stroke:#51B6FF;stroke-width:2;stroke-miterlimit:10;}
	.st7{fill:none;stroke:#51B6FF;stroke-width:0.25;stroke-linejoin:round;stroke-miterlimit:10;}
</style>
<g>
	<g>
		<g>
			<path class="st0" d="M625.9,340.7c-1.4,0-2.7-0.7-3.4-1.9c-0.6-1.1-1.4-2.2-2.1-3.4c-33.5-3.8-67.5-5.7-100.9-5.7
				c-33.5,0-67.1,1.9-99.9,5.7c-0.7,1.1-1.4,2.3-2.1,3.4c-0.7,1.2-2,1.9-3.4,1.9h-13.5c-1.4,0-2.8-0.8-3.4-2.1
				c-0.7-1.3-0.6-2.8,0.2-4c40.7-60.3,109.3-63.4,122.6-63.4s81.9,3.1,122.6,63.4c0.8,1.2,0.9,2.7,0.2,4s-2,2.1-3.4,2.1H625.9z"/>
			<path class="st0" d="M520,274.2c13.1,0,80.3,3,120.1,62c0.2,0.3,0.2,0.6,0,0.9s-0.5,0.5-0.8,0.5h-13.5c-0.3,0-0.6-0.2-0.8-0.4
				c-0.9-1.6-1.9-3.2-3-4.7c-34.2-3.9-68.5-5.9-102.7-5.9c-34.1,0-68.1,2-101.7,5.9c-1,1.5-2,3.1-3,4.7c-0.2,0.3-0.5,0.4-0.8,0.4
				h-13.5c-0.3,0-0.6-0.2-0.8-0.5c-0.2-0.3-0.1-0.6,0-0.9C439.7,277.2,506.9,274.2,520,274.2 M520,268.2
				c-13.6,0-83.5,3.1-125.1,64.7c-1.4,2.1-1.6,4.8-0.4,7.1c1.2,2.3,3.5,3.7,6.1,3.7h13.5c2.4,0,4.7-1.3,5.9-3.4
				c0.4-0.7,0.8-1.4,1.3-2.1c32.3-3.7,65.3-5.5,98.2-5.5s66.3,1.9,99.2,5.5c0.4,0.7,0.9,1.4,1.3,2.1c1.2,2.1,3.5,3.4,6,3.4h13.5
				c2.6,0,4.9-1.4,6.1-3.7c1.2-2.3,1.1-5-0.4-7.1C603.5,271.4,533.6,268.2,520,268.2L520,268.2z"/>
		</g>
		<g>
			<path class="st1" d="M639.4,336.8c-35.1-52-93.3-61.7-119.4-61.7c-26.1,0-84.3,9.7-119.4,61.7h13.5
				c24.7-42.3,80.4-58.4,105.9-58.4s81.2,16.1,105.9,58.4H639.4z"/>
			<path class="st1" d="M417.3,331.7c68.9-8.1,138.3-7.7,205.4,0"/>
			<path class="st1" d="M419,329.3c67.8-9.7,136-9.3,202,0"/>
			<line class="st1" x1="518.6" y1="278.5" x2="518.6" y2="322.1"/>
			<line class="st1" x1="508.2" y1="279.3" x2="505.1" y2="322.1"/>
			<line class="st1" x1="497.4" y1="281.3" x2="489.6" y2="322.1"/>
			<line class="st1" x1="487.4" y1="284" x2="472.5" y2="323.8"/>
			<line class="st1" x1="476" y1="287.9" x2="455.5" y2="325"/>
			<line class="st1" x1="529.5" y1="279.3" x2="532.6" y2="322.1"/>
			<line class="st1" x1="540.3" y1="281.3" x2="548.1" y2="322.1"/>
			<line class="st1" x1="550.3" y1="283.3" x2="565.2" y2="323.8"/>
			<line class="st1" x1="561.1" y1="286.8" x2="582.2" y2="325"/>
			<line class="st2" x1="478.8" y1="286.8" x2="459.1" y2="324.7"/>
			<line class="st2" x1="489.6" y1="283.3" x2="476" y2="323.5"/>
			<line class="st2" x1="499.3" y1="280.9" x2="492.2" y2="322.1"/>
			<line class="st2" x1="510.1" y1="279.3" x2="507.5" y2="322.1"/>
			<line class="st2" x1="520.8" y1="278" x2="520.8" y2="322.1"/>
			<line class="st2" x1="531.8" y1="279.3" x2="535" y2="322.1"/>
			<line class="st2" x1="542.5" y1="281.3" x2="550.8" y2="322.8"/>
			<line class="st2" x1="552.6" y1="284" x2="567.9" y2="323.8"/>
			<line class="st2" x1="563.6" y1="287.7" x2="584.8" y2="325.1"/>
			<path class="st2" d="M407.2,336.8c21.9-32.1,62.3-59.5,112.8-59.5"/>
			<path class="st2" d="M633.6,336.8c-21.9-32.1-62.3-59.5-112.8-59.5"/>
		</g>
	</g>
	<g>
		<g>
			<path class="st0" d="M602.7,340.7c-2.1,0-3.9-1.7-3.9-3.9v-9.4c0-2.1,1.7-3.9,3.9-3.9h0.1v-0.1c0-2.1,1.7-3.9,3.9-3.9h2.7v-53.8
				c0-2.1,1.7-3.9,3.9-3.9v-45.7c0-1.7,1.1-3.2,2.6-3.7V167c0-2.1,1.6-3.7,3.6-3.9v-32.7c0-2.1,1.7-3.9,3.9-3.9h0.8V88.7
				c0-2.1,1.6-3.8,3.7-3.9V56.4c0-2.1,1.7-3.9,3.9-3.9h1.6V23.2c0-1.7,1.3-3,3-3h1.8c1.7,0,3,1.3,3,3v61.6c2,0.1,3.7,1.8,3.7,3.9v48
				h0.2c2.1,0,3.9,1.7,3.9,3.9v53.9h1.1c2.1,0,3.9,1.7,3.9,3.9V243c1.7,0.4,2.9,2,2.9,3.8v45c1.4,0.6,2.5,2,2.5,3.6v24.1h2.1
				c2.1,0,3.9,1.7,3.9,3.9v0.1h0.1c2.1,0,3.9,1.7,3.9,3.9v9.4c0,2.1-1.7,3.9-3.9,3.9L602.7,340.7L602.7,340.7z"/>
			<path class="st0" d="M638.3,23.2v64.6h2.8c0.5,0,0.9,0.4,0.9,0.9v7v3.9v40.1h3.2c0.5,0,0.9,0.4,0.9,0.9v30.2v3.9v22.8h4.1
				c0.5,0,0.9,0.4,0.9,0.9v21.8v3.9v21.8h2c0.5,0,0.9,0.4,0.9,0.9v22.9v3.9v20.9h1.6c0.5,0,0.9,0.4,0.9,0.9v27.1h5.1
				c0.5,0,0.9,0.4,0.9,0.9v3.1h3.1c0.5,0,0.9,0.4,0.9,0.9v9.4c0,0.5-0.4,0.9-0.9,0.9h-62.8c-0.5,0-0.9-0.4-0.9-0.9v-9.4
				c0-0.5,0.4-0.9,0.9-0.9h3.1v-3.1c0-0.5,0.4-0.9,0.9-0.9h5.7v-48.9v-3.9v-3.9c0-0.5,0.4-0.9,0.9-0.9h3v-40.8v-3.9v-4
				c0-0.5,0.4-0.9,0.9-0.9h1.7v-40.6v-3.9V167c0-0.5,0.4-0.9,0.9-0.9h2.7v-35.7c0-0.5,0.4-0.9,0.9-0.9h3.8V99.6v-3.9v-7
				c0-0.5,0.4-0.9,0.9-0.9h2.8V56.4c0-0.5,0.4-0.9,0.9-0.9h4.6V23.2H638.3 M638.3,17.2h-1.8c-3.3,0-6,2.7-6,6v26.4
				c-3.2,0.6-5.5,3.4-5.5,6.8v26.2c-2.2,1.2-3.7,3.5-3.7,6.1v7v3.9v24.3c-2.7,0.9-4.7,3.5-4.7,6.5V161c-2.1,1.2-3.6,3.4-3.6,6.1v3.8
				v3.9v36c-1.6,1.3-2.6,3.2-2.6,5.4v4v3.9v35.5c-2.3,1.1-3.9,3.5-3.9,6.2v3.9v3.9v42.9c-2.8,0.1-5.2,1.9-6.2,4.4
				c-2.6,1-4.5,3.5-4.5,6.5v9.4c0,3.8,3.1,6.9,6.9,6.9h62.8c3.8,0,6.9-3.1,6.9-6.9v-9.4c0-3-1.9-5.5-4.5-6.5c-0.9-2.3-3-4-5.5-4.4
				v-21.2c0-2.1-1-4-2.5-5.3v-16.5v-3.9v-22.9c0-2.3-1.2-4.4-2.9-5.6v-17v-3.9v-21.8c0-3.2-2.1-5.8-5-6.6v-17.1v-3.9v-30.2
				c0-2.8-1.7-5.2-4.1-6.3V99.6v-3.9v-7c0-2.6-1.5-4.9-3.7-6.1V23.2C644.3,19.9,641.6,17.2,638.3,17.2L638.3,17.2z"/>
		</g>
		<g>
			<rect x="602.7" y="327.4" class="st1" width="62.8" height="9.4"/>
			<rect x="606.7" y="323.4" class="st1" width="54.8" height="4"/>
			<polyline class="st1" points="625.2,265.7 613.3,265.7 613.3,323.4 627.6,323.4 			"/>
			<polyline class="st1" points="630.4,288.6 630.4,216.1 617.2,216.1 617.2,265.7 			"/>
			<polyline class="st1" points="633.5,184.6 633.5,167 619.8,167 619.8,216.6 			"/>
			<polyline class="st1" points="641.3,323.4 655.5,323.4 655.5,295.4 641.3,295.4 641.3,307.6 			"/>
			<polyline class="st1" points="643,246.7 653,246.7 653,295.4 			"/>
			<polyline class="st1" points="637.4,252.4 637.4,198.4 650.1,198.4 650.1,247 			"/>
			<polyline class="st1" points="633.5,149.1 633.5,130.5 623.4,130.5 623.4,166.9 			"/>
			<polyline class="st1" points="645.1,198.4 645.1,140.6 633.5,140.6 			"/>
			<polyline class="st1" points="628.2,130.5 628.2,88.7 641,88.7 641,140.6 			"/>
			<line class="st1" x1="637.4" y1="23.2" x2="637.4" y2="95.7"/>
			<polyline class="st1" points="631.8,88.7 631.8,56.4 637.4,56.4 			"/>
			<rect x="613.3" y="269.7" class="st2" width="39.7" height="3.9"/>
			<rect x="617.2" y="220.2" class="st2" width="32.9" height="3.9"/>
			<rect x="619.8" y="170.8" class="st2" width="13.7" height="3.9"/>
			<rect x="628.2" y="95.7" class="st1" width="12.9" height="3.9"/>
			<line class="st1" x1="645.3" y1="255.1" x2="645.3" y2="269.9"/>
			<line class="st1" x1="619.1" y1="280" x2="619.1" y2="323.4"/>
			<line class="st1" x1="625" y1="280" x2="625" y2="323.4"/>
			<line class="st1" x1="655.5" y1="301.2" x2="648.4" y2="301.2"/>
			<line class="st2" x1="655.5" y1="306.7" x2="648.4" y2="306.7"/>
			<line class="st1" x1="655.5" y1="310.6" x2="648.4" y2="310.6"/>
			<line class="st2" x1="655.5" y1="316.1" x2="648.4" y2="316.1"/>
			<line class="st1" x1="617.2" y1="228.9" x2="625" y2="228.9"/>
			<line class="st1" x1="617.2" y1="234.5" x2="625" y2="234.5"/>
			<line class="st1" x1="617.2" y1="240.2" x2="625" y2="240.2"/>
			<line class="st2" x1="643" y1="203.5" x2="643" y2="214.9"/>
			<line class="st2" x1="619.8" y1="179.7" x2="627.2" y2="179.7"/>
			<line class="st1" x1="619.8" y1="184.5" x2="627.2" y2="184.5"/>
			<line class="st2" x1="619.8" y1="189.3" x2="627.2" y2="189.3"/>
			<line class="st1" x1="619.8" y1="193.5" x2="627.2" y2="193.5"/>
			<line class="st2" x1="619.8" y1="198.4" x2="627.2" y2="198.4"/>
			<line class="st1" x1="619.8" y1="202.6" x2="627.2" y2="202.6"/>
			<line class="st2" x1="619.8" y1="207.4" x2="627.2" y2="207.4"/>
			<line class="st2" x1="628.2" y1="136.1" x2="628.2" y2="160.5"/>
			<line class="st2" x1="645.1" y1="150.4" x2="641" y2="150.4"/>
			<line class="st1" x1="645.1" y1="155.8" x2="641" y2="155.8"/>
			<line class="st2" x1="645.1" y1="161" x2="641" y2="161"/>
			<line class="st1" x1="645.1" y1="166.4" x2="641" y2="166.4"/>
			<line class="st2" x1="653" y1="250.5" x2="649" y2="250.5"/>
			<line class="st1" x1="653" y1="255.9" x2="649" y2="255.9"/>
			<line class="st2" x1="653" y1="261.1" x2="649" y2="261.1"/>
			<line class="st1" x1="653" y1="266.5" x2="649" y2="266.5"/>
			<line class="st2" x1="645.1" y1="171.7" x2="641" y2="171.7"/>
			<line class="st1" x1="645.1" y1="177.1" x2="641" y2="177.1"/>
			<line class="st2" x1="645.1" y1="182.4" x2="641" y2="182.4"/>
			<line class="st1" x1="645.1" y1="187.7" x2="641" y2="187.7"/>
			<line class="st1" x1="632.1" y1="104.5" x2="637.1" y2="104.5"/>
			<line class="st2" x1="632.1" y1="109.2" x2="637.1" y2="109.2"/>
			<line class="st1" x1="632.1" y1="113.9" x2="637.1" y2="113.9"/>
			<line class="st1" x1="645.3" y1="273.6" x2="645.3" y2="288.6"/>
			<line class="st2" x1="633.5" y1="186.9" x2="633.5" y2="205"/>
			<line class="st2" x1="633.5" y1="150.4" x2="633.5" y2="154.4"/>
			<line class="st2" x1="626.7" y1="136.1" x2="626.7" y2="160.5"/>
			<line class="st2" x1="632.1" y1="118.2" x2="637.1" y2="118.2"/>
			<line class="st3" x1="635.1" y1="56.4" x2="635.1" y2="88.7"/>
			<line class="st3" x1="637.4" y1="20.5" x2="637.4" y2="15.8"/>
			<line class="st2" x1="645.1" y1="203.5" x2="645.1" y2="214.9"/>
			<line class="st2" x1="637.4" y1="255.1" x2="637.4" y2="261.9"/>
			<line class="st2" x1="621.9" y1="294.6" x2="621.9" y2="323.1"/>
			<line class="st2" x1="615.9" y1="294.6" x2="615.9" y2="323.1"/>
			<line class="st2" x1="630.4" y1="294.6" x2="630.4" y2="323.1"/>
			<line class="st2" x1="634.1" y1="310.6" x2="634.1" y2="323.1"/>
			<line class="st2" x1="638" y1="316.1" x2="638" y2="323.1"/>
			<line class="st2" x1="602.7" y1="330.5" x2="665.5" y2="330.5"/>
		</g>
	</g>
	<g>
		<g>
			<g>
				<path class="st0" d="M39.6,340.7c-2.1,0-3.9-1.7-3.9-3.9V198.5c0-1.4,0.8-2.7,2-3.4l25.1-13.9v-19.6c0-2.1,1.7-3.9,3.9-3.9h0.5
					v-14.4c0-1.7,1.3-3,3-3H72c1.7,0,3,1.3,3,3v59.3c0,2.1-1.7,3.9-3.9,3.9h-0.4v13.8h0.4c2.1,0,3.9,1.7,3.9,3.9v112.6
					c0,2.1-1.7,3.9-3.9,3.9H39.6z"/>
				<path class="st0" d="M72,143.2V181v21.6c0,0.5-0.4,0.9-0.9,0.9h-3.4v19.8h3.4c0.5,0,0.9,0.4,0.9,0.9v112.6
					c0,0.5-0.4,0.9-0.9,0.9H66H44.5h-4.9c-0.5,0-0.9-0.4-0.9-0.9V198.5c0-0.3,0.2-0.6,0.5-0.8l26.6-14.8v-21.3
					c0-0.5,0.4-0.9,0.9-0.9h3.5v-17.4H72 M72,137.2h-1.8c-3.3,0-6,2.7-6,6v11.9c-2.6,1-4.4,3.5-4.4,6.4v17.8l-23.5,13.1
					c-2.2,1.2-3.5,3.5-3.5,6v138.3c0,3.8,3.1,6.9,6.9,6.9h4.9H66h5.1c3.8,0,6.9-3.1,6.9-6.9V224.2c0-2.9-1.8-5.3-4.3-6.4V209
					c2.5-1,4.3-3.5,4.3-6.4V181v-37.7C78,139.9,75.3,137.2,72,137.2L72,137.2z"/>
			</g>
			<g>
				<path class="st0" d="M76.8,340.7c-2.1,0-3.9-1.7-3.9-3.9v-80.3c0-2.1,1.7-3.9,3.9-3.9h0.4v-13.8h-0.4c-2.1,0-3.9-1.7-3.9-3.9
					v-59.4c0-1.7,1.3-3,3-3h1.8c1.7,0,3,1.3,3,3V190h0.5c2.1,0,3.9,1.7,3.9,3.9v19.6l25.1,14c1.2,0.7,2,2,2,3.4v106
					c0,2.1-1.7,3.9-3.9,3.9L76.8,340.7L76.8,340.7z"/>
				<path class="st0" d="M77.7,175.6V193h3.5c0.5,0,0.9,0.4,0.9,0.9v21.3l26.6,14.8c0.3,0.2,0.5,0.5,0.5,0.8v106
					c0,0.5-0.4,0.9-0.9,0.9h-4.9H81.9h-5.1c-0.5,0-0.9-0.4-0.9-0.9v-80.3c0-0.5,0.4-0.9,0.9-0.9h3.4v-19.8h-3.4
					c-0.5,0-0.9-0.4-0.9-0.9v-21.6v-37.7H77.7 M77.7,169.6h-1.8c-3.3,0-6,2.7-6,6v37.7v21.6c0,2.9,1.8,5.3,4.3,6.4v8.8
					c-2.5,1-4.3,3.5-4.3,6.4v80.3c0,3.8,3.1,6.9,6.9,6.9h5.1h21.4h4.9c3.8,0,6.9-3.1,6.9-6.9v-106c0-2.5-1.4-4.8-3.5-6l-23.5-13.1
					v-17.8c0-2.9-1.8-5.4-4.4-6.4v-11.9C83.7,172.2,81,169.6,77.7,169.6L77.7,169.6z"/>
			</g>
		</g>
		<g>
			<g>
				<polyline class="st1" points="71.1,143.2 71.1,181 66.7,183.4 66.7,161.6 71.1,161.6 				"/>
				<polygon class="st1" points="60.9,224.2 60.9,202.6 71.1,202.6 71.1,181 39.6,198.5 39.6,336.8 71.1,336.8 71.1,228 71.1,224.2 
									"/>
				<line class="st1" x1="60.9" y1="202.6" x2="44" y2="202.6"/>
				<line class="st1" x1="56.6" y1="202.6" x2="56.6" y2="225.1"/>
				<line class="st1" x1="52.1" y1="202.6" x2="52.1" y2="225.1"/>
				<line class="st1" x1="47.7" y1="202.6" x2="47.7" y2="225.1"/>
				<line class="st1" x1="71.1" y1="195.5" x2="62.5" y2="195.5"/>
				<line class="st1" x1="71.1" y1="198.7" x2="67.2" y2="198.7"/>
				<rect x="44.5" y="315.3" class="st1" width="21.4" height="21.5"/>
				<line class="st1" x1="65.9" y1="308.7" x2="53.2" y2="308.7"/>
				<line class="st1" x1="65.9" y1="302.1" x2="56.6" y2="302.1"/>
				<line class="st1" x1="65.9" y1="295.6" x2="49.6" y2="295.6"/>
				<line class="st1" x1="65.9" y1="289" x2="56.6" y2="289"/>
				<line class="st1" x1="65.9" y1="282.4" x2="52.6" y2="282.4"/>
				<line class="st1" x1="65.9" y1="275.8" x2="47.7" y2="275.8"/>
				<line class="st1" x1="65.9" y1="269.2" x2="51" y2="269.2"/>
				<line class="st1" x1="65.9" y1="262.6" x2="56.6" y2="262.6"/>
				<line class="st1" x1="65.9" y1="256.1" x2="52.1" y2="256.1"/>
				<line class="st1" x1="65.9" y1="249.5" x2="56.6" y2="249.5"/>
				<line class="st1" x1="65.9" y1="242.9" x2="46" y2="242.9"/>
				<line class="st1" x1="65.9" y1="236.3" x2="56.6" y2="236.3"/>
				<line class="st1" x1="65.9" y1="229.7" x2="52.1" y2="229.7"/>
				<line class="st1" x1="66.8" y1="202.6" x2="66.8" y2="224.2"/>
				<line class="st2" x1="65.9" y1="232" x2="59.8" y2="232"/>
				<line class="st2" x1="65.9" y1="238.7" x2="49.2" y2="238.7"/>
				<line class="st2" x1="65.9" y1="245" x2="58.4" y2="245"/>
				<line class="st2" x1="65.9" y1="251.6" x2="52.6" y2="251.6"/>
				<line class="st2" x1="65.9" y1="258.3" x2="55.3" y2="258.3"/>
				<line class="st2" x1="65.9" y1="264.5" x2="47.7" y2="264.5"/>
				<line class="st2" x1="65.9" y1="271.7" x2="59.6" y2="271.7"/>
				<line class="st2" x1="65.9" y1="278.1" x2="54.6" y2="278.1"/>
				<line class="st2" x1="65.9" y1="284.6" x2="62.2" y2="284.6"/>
				<line class="st2" x1="65.9" y1="291.3" x2="49.2" y2="291.3"/>
				<line class="st2" x1="65.9" y1="298.2" x2="60.6" y2="298.2"/>
				<line class="st2" x1="65.9" y1="304.7" x2="56.6" y2="304.7"/>
				<line class="st2" x1="65.9" y1="311.3" x2="49.6" y2="311.3"/>
				<line class="st2" x1="58.6" y1="202.6" x2="58.6" y2="213.4"/>
				<line class="st2" x1="54.2" y1="202.6" x2="54.2" y2="223.4"/>
				<line class="st2" x1="49.8" y1="202.6" x2="49.8" y2="209"/>
				<line class="st2" x1="71.1" y1="192.9" x2="64.3" y2="192.9"/>
				<line class="st2" x1="71.1" y1="140.6" x2="71.1" y2="133.2"/>
				<line class="st2" x1="44.5" y1="319.1" x2="65.9" y2="319.1"/>
				<line class="st2" x1="62.1" y1="319.1" x2="62.1" y2="336.8"/>
				<line class="st2" x1="48.3" y1="319.1" x2="48.3" y2="336.8"/>
				<line class="st2" x1="61.2" y1="205.8" x2="66.7" y2="205.8"/>
				<line class="st2" x1="61.2" y1="209.5" x2="66.7" y2="209.5"/>
				<line class="st2" x1="61.2" y1="213.3" x2="66.7" y2="213.3"/>
				<line class="st2" x1="61.2" y1="217" x2="66.7" y2="217"/>
				<line class="st2" x1="61.2" y1="220.8" x2="66.7" y2="220.8"/>
			</g>
			<g>
				<polyline class="st1" points="76.8,175.6 76.8,213.3 81.2,215.7 81.2,193.9 76.8,193.9 				"/>
				<polygon class="st1" points="86.9,256.5 86.9,234.9 76.8,234.9 76.8,213.3 108.2,230.8 108.2,336.8 76.8,336.8 76.8,260.3 
					76.8,256.5 				"/>
				<line class="st1" x1="86.9" y1="234.9" x2="103.9" y2="234.9"/>
				<line class="st1" x1="91.3" y1="234.9" x2="91.3" y2="257.4"/>
				<line class="st1" x1="95.7" y1="234.9" x2="95.7" y2="257.4"/>
				<line class="st1" x1="100.2" y1="234.9" x2="100.2" y2="257.4"/>
				<line class="st2" x1="76.8" y1="227.8" x2="85.3" y2="227.8"/>
				<line class="st1" x1="76.8" y1="231" x2="80.6" y2="231"/>
				<rect x="81.9" y="315.3" class="st1" width="21.4" height="21.5"/>
				<line class="st1" x1="81.9" y1="308.1" x2="100.2" y2="308.1"/>
				<line class="st1" x1="81.9" y1="301.5" x2="96.9" y2="301.5"/>
				<line class="st1" x1="81.9" y1="295" x2="91.3" y2="295"/>
				<line class="st1" x1="81.9" y1="288.4" x2="95.7" y2="288.4"/>
				<line class="st1" x1="81.9" y1="281.8" x2="91.3" y2="281.8"/>
				<line class="st1" x1="81.9" y1="275.2" x2="101.8" y2="275.2"/>
				<line class="st1" x1="81.9" y1="268.6" x2="91.3" y2="268.6"/>
				<line class="st1" x1="81.9" y1="262" x2="95.7" y2="262"/>
				<line class="st1" x1="81.1" y1="234.9" x2="81.1" y2="256.5"/>
				<line class="st2" x1="85.5" y1="336.8" x2="85.5" y2="318.7"/>
				<line class="st2" x1="99.3" y1="336.8" x2="99.3" y2="318.7"/>
				<line class="st2" x1="81.9" y1="318.7" x2="103.3" y2="318.7"/>
				<line class="st2" x1="81.9" y1="303.9" x2="90.6" y2="303.9"/>
				<line class="st2" x1="81.9" y1="277.3" x2="90.6" y2="277.3"/>
				<line class="st2" x1="81.9" y1="264.5" x2="90.6" y2="264.5"/>
				<line class="st2" x1="81.9" y1="290.6" x2="99.8" y2="290.6"/>
				<line class="st2" x1="81.9" y1="270.9" x2="99.8" y2="270.9"/>
				<line class="st2" x1="81.9" y1="297.3" x2="86.3" y2="297.3"/>
				<line class="st2" x1="81.9" y1="284" x2="86.3" y2="284"/>
				<line class="st2" x1="81.9" y1="310.7" x2="96.4" y2="310.7"/>
				<line class="st2" x1="98" y1="234.9" x2="98" y2="248"/>
				<line class="st2" x1="93.5" y1="234.9" x2="93.5" y2="242.4"/>
				<line class="st2" x1="89" y1="234.8" x2="89" y2="250.2"/>
				<line class="st2" x1="86.9" y1="239.1" x2="81.1" y2="239.1"/>
				<line class="st2" x1="86.9" y1="242.5" x2="81.1" y2="242.5"/>
				<line class="st2" x1="86.9" y1="245.9" x2="81.1" y2="245.9"/>
				<line class="st2" x1="86.9" y1="249.2" x2="81.1" y2="249.2"/>
				<line class="st2" x1="86.9" y1="252.6" x2="81.1" y2="252.6"/>
				<line class="st2" x1="76.8" y1="224.7" x2="89" y2="224.7"/>
				<line class="st2" x1="76.8" y1="173.3" x2="76.8" y2="162.4"/>
			</g>
		</g>
	</g>
	<g>
		<g>
			<g>
				<path class="st0" d="M747.5,340.6c-2.1,0-3.9-1.7-3.9-3.9V213.3c0-2.1,1.7-3.9,3.9-3.9h87.6c2.1,0,3.9,1.7,3.9,3.9v123.4
					c0,2.1-1.7,3.9-3.9,3.9H747.5z M821.3,323.6v-97.2h-60.1v97.2H821.3z"/>
				<path class="st0" d="M835.1,212.4c0.5,0,0.9,0.4,0.9,0.9v123.4c0,0.5-0.4,0.9-0.9,0.9h-87.6c-0.5,0-0.9-0.4-0.9-0.9V213.3
					c0-0.5,0.4-0.9,0.9-0.9L835.1,212.4 M758.2,326.6h66.1V223.4h-66.1V326.6 M835.1,206.4h-87.6c-3.8,0-6.9,3.1-6.9,6.9v123.4
					c0,3.8,3.1,6.9,6.9,6.9h87.6c3.8,0,6.9-3.1,6.9-6.9V213.3C842,209.5,838.9,206.4,835.1,206.4L835.1,206.4z M764.2,229.4h54.1
					v91.2h-54.1V229.4L764.2,229.4z"/>
			</g>
			<path class="st4" d="M831.1,329.6v-1.8h3.1v-18.2h-2.1v-1.8h2.1v-16.5h-3.1v-1.8h3.1v-1.7h-0.6V286h0.6v-15.9h-3.1v-1.8h3.1v-2.1
				h-2.1v-1.8h2.1v-18h-1.1v-1.8h1.1v-15.5h-2.1v-1.8h2.1V225h-8.1v8.1h2.8v1.8h-2.8v18.3h2.2v1.8h-2.2v1.8h3.5v1.8h-3.5v17.2h3.5
				v1.8h-3.5v1.3h2.2v1.8h-2.2v13.1h2.8v1.8h-2.8v2.1h3.5v1.8h-3.5v10.9h4.3v1.8h-4.3v4.5h2.2v1.8h-2.2v3.6h1.3v1.8h-1.3v3.5
				c0,0.5-0.4,0.9-0.9,0.9h-67.9c-0.5,0-0.9-0.4-0.9-0.9v-8.6H754V317h2.4v-11.8H754v-1.8h2.4v-9.9h-3.8v-1.8h3.8v-11.1h-2.8V279
				h2.8v-7.3H754v-1.8h2.4v-11.2h-2.8v-1.8h2.8v-13.4h-1.7v-1.8h1.7v-2h-3.3v-1.8h3.3v-11.6h-3.3v-1.8h3.3v-2c0-0.5,0.4-0.9,0.9-0.9
				h67.9c0.5,0,0.9,0.4,0.9,0.9v0.8h8.1v-2h-2.1v-1.8h2.1v-5.3h-85.8v1.2h3.1v1.8h-3.1v1.6h1.1v1.8h-1.1v9.4h2.1v1.8h-2.1v1h4.8v1.8
				h-4.8V246h3.8v1.8h-3.8v15.7h3.2v1.8h-3.2v9.7h3.8v1.8h-3.8v21.1h3.2v1.8h-3.2v12.8h3.2v1.8h-3.2v8h3.2v1.8h-3.2v7.5h2v1.8h-2
				v2.5h85.8v-6.3L831.1,329.6L831.1,329.6z M823.9,216.9h2.9v1.8h-2.9V216.9z M816.6,214.6h2.1v1.8h-2.1V214.6z M811.3,218.7h3.5
				v1.8h-3.5V218.7z M804.5,215.9h2.2v1.8h-2.2V215.9z M796.2,217.7h3.3v1.8h-3.3V217.7z M786.7,216.9h3.9v1.8h-3.9V216.9z
				 M782.2,219.5h3.3v1.8h-3.3V219.5z M775.1,214.6h3.5v1.8h-3.5V214.6z M770.8,217.7h3.5v1.8h-3.5V217.7z M759.7,215.9h1.3v1.8
				h-1.3V215.9z M751.6,255.1v-1.8h2.5v1.8H751.6z M751.6,288.5h2v1.8h-2V288.5z M751.6,308.3h2.5v1.8h-2.5V308.3z M762.3,332.6
				h-4.9v-1.8h4.9V332.6z M775.8,334.4h-2.7v-1.8h2.7V334.4z M778.8,331.4h-2.4v-1.8h2.4V331.4z M790.7,332.1h-2.8v-1.8h2.8V332.1z
				 M796.9,334.4H795v-1.8h1.9V334.4z M800.9,332.1h-2.5v-1.8h2.5V332.1z M814.6,334.4h-3v-1.8h3V334.4z M817.3,331.4H814v-1.8h3.3
				V331.4z M828.4,333.6h-2.6v-1.8h2.6V333.6z M828.4,238.6v-1.8h2.7v1.8H828.4z"/>
			<rect x="758.2" y="223.4" class="st4" width="66.1" height="103.2"/>
			<rect x="828.4" y="236.8" width="2.7" height="1.8"/>
			<rect x="823.9" y="216.9" width="2.9" height="1.8"/>
			<rect x="811.3" y="218.7" width="3.5" height="1.8"/>
			<rect x="816.6" y="214.6" width="2.1" height="1.8"/>
			<rect x="796.2" y="217.7" width="3.3" height="1.8"/>
			<rect x="804.5" y="215.9" width="2.2" height="1.8"/>
			<rect x="782.2" y="219.5" width="3.3" height="1.8"/>
			<rect x="786.7" y="216.9" width="3.9" height="1.8"/>
			<rect x="775.1" y="214.6" width="3.5" height="1.8"/>
			<rect x="770.8" y="217.7" width="3.5" height="1.8"/>
			<rect x="759.7" y="215.9" width="1.3" height="1.8"/>
			<rect x="751.6" y="253.3" width="2.5" height="1.8"/>
			<rect x="751.6" y="288.5" width="2" height="1.8"/>
			<rect x="751.6" y="308.3" width="2.5" height="1.8"/>
			<rect x="757.4" y="330.8" width="4.9" height="1.8"/>
			<rect x="776.4" y="329.6" width="2.4" height="1.8"/>
			<rect x="773.2" y="332.6" width="2.7" height="1.8"/>
			<rect x="798.4" y="330.3" width="2.5" height="1.8"/>
			<rect x="795" y="332.6" width="1.9" height="1.8"/>
			<rect x="787.9" y="330.3" width="2.8" height="1.8"/>
			<rect x="814" y="329.6" width="3.3" height="1.8"/>
			<rect x="811.5" y="332.6" width="3" height="1.8"/>
			<rect x="825.8" y="331.8" width="2.6" height="1.8"/>
		</g>
		<g>
			<rect x="747.5" y="213.3" class="st1" width="87.6" height="123.4"/>
			<rect x="757.4" y="222.5" class="st1" width="67.9" height="105"/>
			<line class="st1" x1="825.2" y1="317.7" x2="828.4" y2="317.7"/>
			<line class="st1" x1="832.1" y1="308.7" x2="835.1" y2="308.7"/>
			<line class="st1" x1="825.8" y1="311.4" x2="830.4" y2="311.4"/>
			<line class="st1" x1="825.2" y1="298.7" x2="829.6" y2="298.7"/>
			<line class="st1" x1="825.2" y1="294.8" x2="828.9" y2="294.8"/>
			<line class="st1" x1="835.1" y1="290.4" x2="831.1" y2="290.4"/>
			<line class="st1" x1="835.1" y1="286.9" x2="833.6" y2="286.9"/>
			<line class="st1" x1="825.2" y1="279.9" x2="828.4" y2="279.9"/>
			<line class="st1" x1="825.2" y1="276.7" x2="829.6" y2="276.7"/>
			<line class="st1" x1="835.1" y1="269.2" x2="831.1" y2="269.2"/>
			<line class="st1" x1="835.1" y1="265.3" x2="832.1" y2="265.3"/>
			<line class="st1" x1="825.2" y1="257.8" x2="829.6" y2="257.8"/>
			<line class="st1" x1="825.8" y1="254.2" x2="828.4" y2="254.2"/>
			<line class="st1" x1="835.1" y1="245.5" x2="833.1" y2="245.5"/>
			<line class="st1" x1="828.4" y1="237.7" x2="831.1" y2="237.7"/>
			<line class="st1" x1="825.2" y1="234.1" x2="828.9" y2="234.1"/>
			<line class="st1" x1="832.1" y1="228.3" x2="835.1" y2="228.3"/>
			<line class="st1" x1="825.2" y1="224.2" x2="830.2" y2="224.2"/>
			<line class="st1" x1="832.1" y1="220.4" x2="835.1" y2="220.4"/>
			<line class="st1" x1="823.9" y1="217.8" x2="826.8" y2="217.8"/>
			<line class="st1" x1="811.3" y1="219.6" x2="814.8" y2="219.6"/>
			<line class="st1" x1="816.6" y1="215.5" x2="818.7" y2="215.5"/>
			<line class="st1" x1="796.2" y1="218.6" x2="799.4" y2="218.6"/>
			<line class="st1" x1="804.5" y1="216.8" x2="806.7" y2="216.8"/>
			<line class="st1" x1="782.2" y1="220.4" x2="785.5" y2="220.4"/>
			<line class="st1" x1="786.7" y1="217.8" x2="790.7" y2="217.8"/>
			<line class="st1" x1="775.1" y1="215.5" x2="778.5" y2="215.5"/>
			<line class="st1" x1="770.8" y1="218.6" x2="774.3" y2="218.6"/>
			<line class="st1" x1="751.5" y1="216.3" x2="747.5" y2="216.3"/>
			<line class="st1" x1="749.5" y1="219.6" x2="747.5" y2="219.6"/>
			<line class="st1" x1="753.2" y1="225.5" x2="757.4" y2="225.5"/>
			<line class="st1" x1="759.7" y1="216.8" x2="761" y2="216.8"/>
			<line class="st1" x1="750.5" y1="230.8" x2="747.5" y2="230.8"/>
			<line class="st1" x1="753.2" y1="233.6" x2="747.5" y2="233.6"/>
			<line class="st1" x1="753.2" y1="238.8" x2="757.4" y2="238.8"/>
			<line class="st1" x1="754.7" y1="242.6" x2="757.4" y2="242.6"/>
			<line class="st1" x1="752.2" y1="246.9" x2="747.5" y2="246.9"/>
			<line class="st1" x1="751.6" y1="254.2" x2="754.1" y2="254.2"/>
			<line class="st1" x1="753.6" y1="257.8" x2="757.4" y2="257.8"/>
			<line class="st1" x1="751.6" y1="264.4" x2="747.5" y2="264.4"/>
			<line class="st1" x1="754.1" y1="270.8" x2="757.4" y2="270.8"/>
			<line class="st1" x1="752.2" y1="275.8" x2="747.5" y2="275.8"/>
			<line class="st1" x1="753.6" y1="279.9" x2="757.4" y2="279.9"/>
			<line class="st1" x1="751.6" y1="289.4" x2="753.6" y2="289.4"/>
			<line class="st1" x1="752.6" y1="292.8" x2="757.4" y2="292.8"/>
			<line class="st1" x1="751.6" y1="298.7" x2="747.5" y2="298.7"/>
			<line class="st1" x1="754.1" y1="304.5" x2="757.4" y2="304.5"/>
			<line class="st1" x1="751.6" y1="309.2" x2="754.1" y2="309.2"/>
			<line class="st1" x1="751.6" y1="313.3" x2="747.5" y2="313.3"/>
			<line class="st1" x1="754.1" y1="318" x2="757.4" y2="318"/>
			<line class="st1" x1="751.6" y1="323.1" x2="747.5" y2="323.1"/>
			<line class="st1" x1="750.4" y1="332.4" x2="747.5" y2="332.4"/>
			<line class="st1" x1="757.4" y1="331.7" x2="762.3" y2="331.7"/>
			<line class="st1" x1="776.4" y1="330.5" x2="778.8" y2="330.5"/>
			<line class="st1" x1="773.2" y1="333.5" x2="775.8" y2="333.5"/>
			<line class="st1" x1="798.4" y1="331.2" x2="800.9" y2="331.2"/>
			<line class="st1" x1="795" y1="333.5" x2="796.9" y2="333.5"/>
			<line class="st1" x1="787.9" y1="331.2" x2="790.7" y2="331.2"/>
			<line class="st1" x1="814" y1="330.5" x2="817.3" y2="330.5"/>
			<line class="st1" x1="811.5" y1="333.5" x2="814.6" y2="333.5"/>
			<line class="st1" x1="825.8" y1="332.7" x2="828.4" y2="332.7"/>
			<line class="st1" x1="831.1" y1="328.7" x2="835.1" y2="328.7"/>
			<line class="st1" x1="827.4" y1="323.1" x2="825.2" y2="323.1"/>
			<line class="st1" x1="832.1" y1="279.9" x2="834.3" y2="279.9"/>
			<line class="st2" x1="825.3" y1="285.4" x2="828.1" y2="285.4"/>
			<line class="st2" x1="832.1" y1="296.5" x2="834.3" y2="296.5"/>
			<line class="st2" x1="833.1" y1="298.1" x2="835.1" y2="298.1"/>
			<line class="st2" x1="825.8" y1="304.7" x2="828.9" y2="304.7"/>
			<line class="st2" x1="828.1" y1="307.5" x2="829.6" y2="307.5"/>
			<line class="st2" x1="833.1" y1="311.7" x2="834.3" y2="311.7"/>
			<line class="st2" x1="833.1" y1="314.9" x2="835.1" y2="314.9"/>
			<line class="st2" x1="832.1" y1="316.7" x2="835.1" y2="316.7"/>
			<line class="st2" x1="828.4" y1="314.9" x2="830.4" y2="314.9"/>
			<line class="st2" x1="829.7" y1="321.5" x2="833.1" y2="321.5"/>
			<line class="st2" x1="832.1" y1="323.4" x2="836" y2="323.4"/>
			<line class="st2" x1="826.1" y1="326.4" x2="829.4" y2="326.4"/>
			<line class="st2" x1="825.8" y1="329.6" x2="827.4" y2="329.6"/>
			<line class="st2" x1="832.1" y1="332.7" x2="835.1" y2="332.7"/>
			<line class="st2" x1="806.3" y1="333.5" x2="808.7" y2="333.5"/>
			<line class="st2" x1="808" y1="331.8" x2="811.5" y2="331.8"/>
			<line class="st2" x1="819.4" y1="333.5" x2="822.7" y2="333.5"/>
			<line class="st2" x1="803" y1="331.4" x2="804.4" y2="331.4"/>
			<line class="st2" x1="789.3" y1="333.6" x2="791.3" y2="333.6"/>
			<line class="st2" x1="792.9" y1="331.4" x2="793.7" y2="331.4"/>
			<line class="st2" x1="783.2" y1="330.8" x2="785.1" y2="330.8"/>
			<line class="st2" x1="779.6" y1="333.5" x2="782.6" y2="333.5"/>
			<line class="st2" x1="764.8" y1="334.4" x2="767.7" y2="334.4"/>
			<line class="st2" x1="769.3" y1="332.1" x2="770.8" y2="332.1"/>
			<line class="st2" x1="764.8" y1="330.3" x2="766.4" y2="330.3"/>
			<line class="st2" x1="753.6" y1="333.5" x2="755.7" y2="333.5"/>
			<line class="st2" x1="748.2" y1="330.3" x2="751.4" y2="330.3"/>
			<line class="st2" x1="750.8" y1="326.6" x2="752.8" y2="326.6"/>
			<line class="st2" x1="754.7" y1="320.7" x2="757.4" y2="320.7"/>
			<line class="st2" x1="750.4" y1="316.1" x2="748.2" y2="316.1"/>
			<line class="st2" x1="750.3" y1="306.7" x2="752.6" y2="306.7"/>
			<line class="st2" x1="754.7" y1="298.9" x2="757.4" y2="298.9"/>
			<line class="st2" x1="750.3" y1="289.4" x2="747.5" y2="289.4"/>
			<line class="st2" x1="750.4" y1="286.8" x2="747.5" y2="286.8"/>
			<line class="st2" x1="754.7" y1="282.4" x2="756.6" y2="282.4"/>
			<line class="st2" x1="751.5" y1="282.4" x2="750.4" y2="282.4"/>
			<line class="st2" x1="750.3" y1="273.6" x2="747.5" y2="273.6"/>
			<line class="st2" x1="754.3" y1="266.5" x2="757.4" y2="266.5"/>
			<line class="st2" x1="750.4" y1="260.4" x2="748.2" y2="260.4"/>
			<line class="st2" x1="753.6" y1="260.4" x2="755" y2="260.4"/>
			<line class="st2" x1="751.5" y1="249.8" x2="757.4" y2="249.8"/>
			<line class="st2" x1="755.3" y1="247.7" x2="757.8" y2="247.7"/>
			<line class="st2" x1="750.9" y1="238.8" x2="747.5" y2="238.8"/>
			<line class="st2" x1="750.3" y1="240.6" x2="747.5" y2="240.6"/>
			<line class="st2" x1="755" y1="233.6" x2="756.6" y2="233.6"/>
			<line class="st2" x1="750.3" y1="225.4" x2="747.5" y2="225.4"/>
			<line class="st2" x1="747.5" y1="223.4" x2="751.6" y2="223.4"/>
			<line class="st2" x1="755.7" y1="219.6" x2="757.8" y2="219.6"/>
			<line class="st2" x1="755.5" y1="216.6" x2="757.4" y2="216.6"/>
			<line class="st2" x1="763.5" y1="218.7" x2="766.1" y2="218.7"/>
			<line class="st2" x1="765.5" y1="216.8" x2="767.7" y2="216.8"/>
			<line class="st2" x1="779.7" y1="217.2" x2="783" y2="217.2"/>
			<line class="st2" x1="778.1" y1="218.7" x2="780.5" y2="218.7"/>
			<line class="st2" x1="791.2" y1="215.9" x2="794.1" y2="215.9"/>
			<line class="st2" x1="790.7" y1="220.2" x2="792.7" y2="220.2"/>
			<line class="st2" x1="802.8" y1="219.6" x2="805.6" y2="219.6"/>
			<line class="st2" x1="801.7" y1="217.2" x2="802.8" y2="217.2"/>
			<line class="st2" x1="809.4" y1="216.6" x2="812.2" y2="216.6"/>
			<line class="st2" x1="817.6" y1="219.5" x2="820.3" y2="219.5"/>
			<line class="st2" x1="821.5" y1="215.9" x2="822.5" y2="215.9"/>
			<line class="st2" x1="829.7" y1="216.9" x2="832.1" y2="216.9"/>
			<line class="st2" x1="832.1" y1="223.9" x2="835.1" y2="223.9"/>
			<line class="st2" x1="828.4" y1="228.3" x2="825.2" y2="228.3"/>
			<line class="st2" x1="828.1" y1="230.8" x2="825.2" y2="230.8"/>
			<line class="st2" x1="832.1" y1="234.1" x2="835.1" y2="234.1"/>
			<line class="st2" x1="828.9" y1="242.4" x2="825.3" y2="242.4"/>
			<line class="st2" x1="828.8" y1="245.1" x2="830.4" y2="245.1"/>
			<line class="st2" x1="829.6" y1="249" x2="834.3" y2="249"/>
			<line class="st2" x1="832.1" y1="251.3" x2="834.3" y2="251.3"/>
			<line class="st2" x1="828.1" y1="261.1" x2="825.3" y2="261.1"/>
			<line class="st2" x1="827.7" y1="264.4" x2="825.3" y2="264.4"/>
			<line class="st2" x1="832.1" y1="258.6" x2="835.1" y2="258.6"/>
			<line class="st2" x1="828.4" y1="269.9" x2="825.8" y2="269.9"/>
			<line class="st2" x1="829.7" y1="273.6" x2="832.1" y2="273.6"/>
			<line class="st2" x1="828.1" y1="289.8" x2="829.7" y2="289.8"/>
		</g>
	</g>
	<g>
		<g>
			<path class="st0" d="M700,340.7c-2.1,0-3.9-1.7-3.9-3.9v-15.2c0-2.1,1.7-3.9,3.9-3.9h0.5c-8-54.9-4.7-113.5-1.7-145.8
				c-1.1-0.4-1.9-1.5-1.9-2.8v-1.8c0-1.5,1.2-2.8,2.7-3c0.8-7.5,1.4-11.9,1.4-11.9c0-0.2,0.1-0.5,0.2-0.7c0.1-0.2,0.1-0.4,0.2-0.5
				c0.2-0.3,0.3-0.5,0.4-0.6c0.1-0.1,0.3-0.3,0.5-0.6c0.2-0.1,0.3-0.3,0.5-0.4c0.1-0.1,0.3-0.2,0.7-0.3c0.2-0.1,0.5-0.1,0.6-0.2
				c0.2,0,0.4-0.1,0.7-0.1h24.8c2.1,0,3.9,1.7,3.9,3.9v11.8c0.9,0.5,1.5,1.5,1.5,2.6v1.8c0,0.9-0.4,1.7-1.1,2.3
				c1.9,15.9,9.1,83.9,0.2,146.3h0.3c2.1,0,3.9,1.7,3.9,3.9v15.2c0,2.1-1.7,3.9-3.9,3.9H700z"/>
			<path class="st0" d="M729.6,152c0.5,0,0.9,0.4,0.9,0.9v14.4h1.5v1.8h-1.4c1.2,9.6,10.3,84.4,0,151.6h3.8c0.5,0,0.9,0.4,0.9,0.9
				v15.2c0,0.5-0.4,0.9-0.9,0.9H700c-0.5,0-0.9-0.4-0.9-0.9v-15.2c0-0.5,0.4-0.9,0.9-0.9h4c-9.1-58.3-4.8-122.3-1.9-151.6h-2.2v-1.8
				h2.4c0.9-9,1.6-14.2,1.6-14.5v-0.1c0-0.1,0-0.1,0.1-0.2c0-0.1,0.1-0.1,0.1-0.1l0.1-0.1l0.1-0.1c0.1,0,0.1-0.1,0.2-0.1
				c0.1,0,0.1,0,0.2,0h0.1L729.6,152 M729.6,146h-24.8c-0.4,0-0.9,0-1.3,0.1c-0.3,0.1-0.7,0.1-1.1,0.3c-0.6,0.2-1,0.4-1.2,0.6
				c-0.2,0.1-0.6,0.4-1,0.7c-0.4,0.4-0.7,0.8-0.9,1s-0.4,0.6-0.7,1.1c-0.2,0.3-0.3,0.7-0.4,0.9c-0.1,0.4-0.2,0.8-0.3,1.3
				c0,0-0.5,3.7-1.2,10.2c-1.7,1.1-2.9,3-2.9,5.1v1.8c0,1.7,0.7,3.2,1.8,4.2c-2.9,32.2-6,88.6,1.5,142c-2.4,1.1-4,3.5-4,6.3v15.2
				c0,3.8,3.1,6.9,6.9,6.9h34.4c3.8,0,6.9-3.1,6.9-6.9v-15.2c0-2.7-1.6-5-3.8-6.2c8.2-60.4,1.7-125.3-0.4-143.1
				c0.6-0.9,0.9-2,0.9-3.2v-1.8c0-1.5-0.6-2.9-1.5-4v-10.4C736.5,149.1,733.4,146,729.6,146L729.6,146z"/>
		</g>
		<g>
			<polyline class="st1" points="705,321.5 700,321.5 700,336.8 734.4,336.8 734.4,321.5 729.5,321.5 			"/>
			<path class="st1" d="M734.4,336.8c-29.6-82.6-29.6-183.9-29.6-183.9s-14.1,101.3,3,183.8"/>
			<path class="st1" d="M729.6,168.2c0,0,11.4,81.3-0.1,154"/>
			<line class="st1" x1="730.3" y1="173.8" x2="722.7" y2="173.8"/>
			<line class="st1" x1="731.2" y1="182.1" x2="716.8" y2="182.1"/>
			<line class="st1" x1="732" y1="190.5" x2="722.7" y2="190.5"/>
			<line class="st1" x1="732.7" y1="198.9" x2="718.5" y2="198.9"/>
			<line class="st1" x1="733.7" y1="207.2" x2="722.7" y2="207.2"/>
			<line class="st1" x1="733.7" y1="215.6" x2="717.8" y2="215.6"/>
			<line class="st1" x1="734.1" y1="223.9" x2="722.7" y2="223.9"/>
			<line class="st1" x1="734.4" y1="232.3" x2="728.6" y2="232.3"/>
			<line class="st1" x1="734.4" y1="240.6" x2="722.7" y2="240.6"/>
			<line class="st1" x1="734.4" y1="249" x2="726.5" y2="249"/>
			<line class="st1" x1="734.6" y1="257.3" x2="722.7" y2="257.3"/>
			<line class="st1" x1="734.1" y1="265.7" x2="725.8" y2="265.7"/>
			<line class="st1" x1="734.1" y1="274.1" x2="722.7" y2="274.1"/>
			<line class="st1" x1="733.7" y1="282.4" x2="725.2" y2="282.4"/>
			<line class="st1" x1="733.1" y1="290.8" x2="725.2" y2="290.8"/>
			<line class="st1" x1="732" y1="299.1" x2="722.7" y2="299.1"/>
			<path class="st2" d="M703.2,242.9c0.9,22.8,3.1,61.1,14.5,93.9"/>
			<line class="st1" x1="699.9" y1="168.2" x2="732" y2="168.2"/>
			<polyline class="st1" points="729.6,168.2 729.6,152.9 704.8,152.9 704.8,168.2 			"/>
			<path class="st2" d="M705.3,217.2c0,22.4,6.9,90.5,19.9,119.6"/>
			<path class="st2" d="M716.8,290.8c1.7,10.9,7.5,33.3,13.3,45.8"/>
			<path class="st2" d="M705.5,300.6c0.6,7,4.1,25.4,7.3,35.7"/>
			<path class="st2" d="M713.8,310.6c1.5,8.6,5.9,22.5,7.6,26.2"/>
			<line class="st2" x1="729.6" y1="164.9" x2="712.4" y2="164.9"/>
			<line class="st2" x1="729.6" y1="162.1" x2="721" y2="162.1"/>
			<line class="st2" x1="729.5" y1="159.4" x2="724.7" y2="159.4"/>
			<line class="st2" x1="729.3" y1="155.6" x2="704.3" y2="155.6"/>
			<line class="st2" x1="730.5" y1="175.9" x2="715.9" y2="175.9"/>
			<line class="st2" x1="731.2" y1="184.5" x2="715.4" y2="184.5"/>
			<line class="st2" x1="731.8" y1="192.8" x2="727.1" y2="192.8"/>
			<line class="st2" x1="732.7" y1="201.7" x2="715.9" y2="201.7"/>
			<line class="st2" x1="733.4" y1="210.1" x2="724.7" y2="210.1"/>
			<line class="st2" x1="733.8" y1="217.8" x2="723.3" y2="217.8"/>
			<line class="st2" x1="733.7" y1="226.7" x2="719.8" y2="226.7"/>
			<line class="st2" x1="734.6" y1="234.5" x2="729.5" y2="234.5"/>
			<line class="st2" x1="734.1" y1="242.9" x2="721.1" y2="242.9"/>
			<line class="st2" x1="734.6" y1="252.4" x2="725.2" y2="252.4"/>
			<line class="st2" x1="734.4" y1="260.4" x2="725.2" y2="260.4"/>
			<line class="st2" x1="734.3" y1="268.6" x2="729.5" y2="268.6"/>
			<line class="st2" x1="733.7" y1="276.7" x2="730.1" y2="276.7"/>
			<line class="st2" x1="733.1" y1="285.4" x2="729.8" y2="285.4"/>
			<line class="st2" x1="732" y1="293.5" x2="729.8" y2="293.5"/>
			<line class="st2" x1="732" y1="302.6" x2="728.6" y2="302.6"/>
		</g>
	</g>
	<g>
		<g>
			<path class="st0" d="M1186.8,340.7c-2.2,0-3.8-1.8-3.8-4.2v-9.1c0-2.4,1.7-4.2,3.8-4.2h3.3V176.6c0-1.7,1.3-3,3-3h1.7
				c1.7,0,3,1.3,3,3v16.9c17.5,9.2,30.4,27.6,38.4,54.9c6.4,21.6,9.3,48,8.3,74.8h1.9c2.2,0,3.8,1.8,3.8,4.2v9.1
				c0,2.4-1.7,4.2-3.8,4.2L1186.8,340.7L1186.8,340.7z"/>
			<path class="st0" d="M1194.8,176.6v18.7c38.3,18.5,49,81.6,46.6,130.9h5c0.5,0,0.8,0.5,0.8,1.2v9.1c0,0.7-0.4,1.2-0.8,1.2h-59.6
				c-0.5,0-0.8-0.5-0.8-1.2v-9.1c0-0.7,0.4-1.2,0.8-1.2h6.3V176.6H1194.8 M1194.8,170.6h-1.7c-3.3,0-6,2.7-6,6v143.6h-0.3
				c-3.8,0-6.8,3.2-6.8,7.2v9.1c0,4,3.1,7.2,6.8,7.2h59.6c3.8,0,6.8-3.2,6.8-7.2v-9.1c0-3.5-2.4-6.5-5.6-7.1
				c0.7-26.1-2.3-51.7-8.5-72.8c-4-13.4-9.2-24.9-15.6-34.3c-6.4-9.4-14.1-16.7-22.7-21.6v-15.1
				C1200.8,173.3,1198.1,170.6,1194.8,170.6L1194.8,170.6z"/>
		</g>
		<g>
			<rect x="1186.8" y="327.4" class="st1" width="59.6" height="9.1"/>
			<line class="st1" x1="1194" y1="327.4" x2="1194" y2="176.6"/>
			<path class="st1" d="M1240.5,327.4c2.1-38.9-4-111.3-46.5-131.2"/>
			<path class="st1" d="M1236.3,327.4c2.1-36.6-2.7-104.1-42.3-125.4"/>
			<path class="st1" d="M1204.7,209.5c15.7,27.4,17.4,79,17.4,117.8"/>
			<line class="st2" x1="1194" y1="321" x2="1209.4" y2="321"/>
			<line class="st1" x1="1194" y1="314.3" x2="1209.4" y2="314.3"/>
			<line class="st1" x1="1194" y1="307.5" x2="1228.6" y2="307.5"/>
			<line class="st2" x1="1194" y1="300.8" x2="1209.4" y2="300.8"/>
			<line class="st1" x1="1194" y1="294" x2="1209.4" y2="294"/>
			<line class="st1" x1="1194" y1="287.3" x2="1225.6" y2="287.3"/>
			<line class="st2" x1="1194" y1="280.5" x2="1209.4" y2="280.5"/>
			<line class="st1" x1="1194" y1="273.7" x2="1209.4" y2="273.7"/>
			<line class="st1" x1="1194" y1="267" x2="1223.3" y2="267"/>
			<line class="st2" x1="1194" y1="260.2" x2="1209.4" y2="260.2"/>
			<line class="st1" x1="1194" y1="253.5" x2="1209.4" y2="253.5"/>
			<line class="st1" x1="1194" y1="246.7" x2="1220.6" y2="246.7"/>
			<line class="st2" x1="1194" y1="240" x2="1209.4" y2="240"/>
			<line class="st1" x1="1194" y1="233.2" x2="1208.2" y2="233.2"/>
			<line class="st2" x1="1194" y1="226.5" x2="1205.4" y2="226.5"/>
			<line class="st1" x1="1194" y1="219.7" x2="1201" y2="219.7"/>
			<line class="st1" x1="1194" y1="213" x2="1198.1" y2="213"/>
			<line class="st2" x1="1211.3" y1="260.2" x2="1213.4" y2="260.2"/>
			<line class="st2" x1="1212.4" y1="280.5" x2="1217.4" y2="280.5"/>
			<line class="st2" x1="1212.4" y1="300.8" x2="1218.2" y2="300.8"/>
			<line class="st2" x1="1211.3" y1="321" x2="1214.1" y2="321"/>
			<line class="st2" x1="1207.3" y1="226.5" x2="1209.4" y2="226.5"/>
			<path class="st2" d="M1205.9,211.7c9.4,10,30.7,46.6,26.1,115.6"/>
			<line class="st2" x1="1194" y1="174.9" x2="1194" y2="166"/>
			<line class="st2" x1="1186.8" y1="331.2" x2="1246.4" y2="331.2"/>
		</g>
	</g>
	<g>
		<g>
			<path class="st0" d="M18.7,339.3c-0.8,0-1.5-0.7-1.5-1.5v-28.3c-1.8,1.4-4.1,2.3-6.6,2.5h-0.2c-0.6,0-1.3-0.3-1.7-0.7
				c-0.5-0.5-0.8-1.2-0.7-1.9c0-0.2,0.3-2.9,2.6-5.6H8.1c-0.8,0-1.6-0.4-2-1.1s-0.5-1.6-0.2-2.3c0.1-0.2,2.6-5.5,8-5.5
				c2.1,0,4.1,0.9,5.8,2.5c1.6-1.6,3.6-2.5,5.8-2.5c5.3,0,7.9,5.3,8,5.5c0.3,0.8,0.3,1.6-0.2,2.3c-0.4,0.7-1.2,1.1-2,1.1h-2.6
				c2.3,2.7,2.6,5.4,2.6,5.6c0.1,0.7-0.2,1.4-0.7,1.9s-1.1,0.7-1.7,0.7h-0.2c-2.5-0.2-4.8-1.1-6.6-2.5v28.3c0,0.8-0.7,1.5-1.5,1.5
				H18.7z"/>
			<path class="st0" d="M25.4,296.3c4.4,0,6.5,4.5,6.6,4.7c0.1,0.3,0.1,0.6-0.1,0.9c-0.2,0.3-0.5,0.4-0.8,0.4h-6.7
				c4.6,2.7,5.2,7,5.2,7.3s-0.1,0.5-0.3,0.7c-0.2,0.2-0.4,0.3-0.6,0.3h-0.1c-4.3-0.4-6.8-2.7-8.2-4.8v32.1h-1.8v-32.1
				c-1.4,2.2-3.9,4.5-8.2,4.8h-0.1c-0.2,0-0.5-0.1-0.6-0.3c-0.2-0.2-0.3-0.5-0.3-0.7s0.6-4.5,5.2-7.3H8.1c-0.3,0-0.6-0.2-0.8-0.4
				c-0.2-0.3-0.2-0.6-0.1-0.9c0.1-0.2,2.2-4.7,6.6-4.7c2.9,0,4.8,1.9,5.8,3.3C20.6,298.3,22.5,296.3,25.4,296.3 M25.4,293.3
				c-2.1,0-4.1,0.7-5.8,2c-1.7-1.3-3.7-2-5.8-2c-5,0-8.2,4-9.3,6.4c-0.6,1.2-0.5,2.6,0.3,3.7c0.7,1.1,1.8,1.7,3,1.8
				c-1,2-1.3,3.6-1.3,4c-0.1,1.1,0.3,2.3,1.1,3.1c0.7,0.7,1.7,1.2,2.8,1.2c0.1,0,0.2,0,0.3,0c1.8-0.2,3.5-0.6,5-1.3v25.6
				c0,1.7,1.3,3,3,3h1.8c1.7,0,3-1.3,3-3v-25.6c1.5,0.7,3.2,1.2,5,1.3c0.1,0,0.2,0,0.3,0c1,0,2-0.4,2.8-1.2c0.8-0.8,1.2-2,1.1-3.1
				c0-0.3-0.2-2-1.3-4c1.2-0.1,2.4-0.7,3-1.8c0.7-1.1,0.8-2.5,0.3-3.7C33.6,297.4,30.4,293.3,25.4,293.3L25.4,293.3z"/>
		</g>
		<g>
			<line class="st1" x1="19.6" y1="301.4" x2="19.6" y2="337.8"/>
			<path class="st1" d="M19.6,301.4c0,0-1.3,7.6-9.2,8.2C10.4,309.6,11.1,303.2,19.6,301.4z"/>
			<path class="st1" d="M19.6,301.4c0,0,1.3,7.6,9.2,8.2C28.8,309.6,28.1,303.2,19.6,301.4z"/>
			<path class="st1" d="M19.6,301.4H8.1c0,0,1.9-4.1,5.8-4.1C17.7,297.2,19.6,301.4,19.6,301.4z"/>
			<path class="st1" d="M31.2,301.4H19.6c0,0,1.9-4.1,5.8-4.1C29.3,297.2,31.2,301.4,31.2,301.4z"/>
		</g>
	</g>
	<g>
		<g>
			<path class="st0" d="M677.1,339.3c-0.8,0-1.5-0.7-1.5-1.5v-26.4c-1.7,1.3-3.8,2.1-6.1,2.2h-0.2c-0.6,0-1.2-0.3-1.7-0.7
				c-0.5-0.5-0.7-1.2-0.7-1.9c0-0.1,0.3-2.6,2.3-5.2H667c-0.8,0-1.5-0.4-2-1.1c-0.4-0.7-0.5-1.5-0.2-2.2c0.1-0.2,2.5-5.2,7.6-5.2
				c2,0,3.9,0.8,5.4,2.3c1.5-1.5,3.4-2.3,5.4-2.3c5.1,0,7.5,5,7.6,5.2c0.3,0.7,0.3,1.6-0.2,2.2c-0.4,0.7-1.2,1.1-2,1.1h-2.2
				c2,2.5,2.3,5,2.3,5.2c0.1,0.7-0.2,1.4-0.7,1.9c-0.4,0.4-1,0.7-1.7,0.7c-0.1,0-0.2,0-0.3,0c-2.3-0.2-4.3-1-6-2.2v26.4
				c0,0.8-0.7,1.5-1.5,1.5H677.1z"/>
			<path class="st0" d="M683.3,298.9c4.1,0,6.1,4.2,6.2,4.4c0.1,0.3,0.1,0.6-0.1,0.8c-0.2,0.2-0.4,0.4-0.7,0.4h-6.3
				c4.4,2.6,4.9,6.6,4.9,6.8c0,0.2-0.1,0.5-0.2,0.7c-0.2,0.2-0.4,0.3-0.6,0.3c0,0,0,0-0.1,0c-4-0.3-6.4-2.5-7.7-4.5V338H677v-30.2
				c-1.3,2-3.7,4.2-7.7,4.5c0,0,0,0-0.1,0c-0.2,0-0.4-0.1-0.6-0.3c-0.2-0.2-0.3-0.4-0.2-0.7c0-0.2,0.5-4.2,4.9-6.8H667
				c-0.3,0-0.6-0.1-0.7-0.4c-0.2-0.2-0.2-0.5-0.1-0.8c0.1-0.2,2.1-4.4,6.2-4.4c2.7,0,4.5,1.8,5.4,3.1
				C678.8,300.7,680.6,298.9,683.3,298.9 M683.3,295.9c-2,0-3.8,0.6-5.4,1.8c-1.6-1.2-3.5-1.8-5.4-1.8c-4.8,0-7.9,3.8-8.9,6.1
				c-0.6,1.2-0.5,2.6,0.3,3.7c0.6,1,1.6,1.6,2.7,1.7c-0.9,1.8-1.1,3.2-1.1,3.5c-0.1,1.1,0.3,2.3,1.1,3.1c0.7,0.7,1.7,1.2,2.7,1.2
				c0.1,0,0.2,0,0.4,0c1.6-0.1,3.1-0.5,4.4-1.1v23.8c0,1.7,1.3,3,3,3h1.7c1.7,0,3-1.3,3-3v-23.8c1.4,0.6,2.8,1,4.4,1.1
				c0.1,0,0.2,0,0.4,0c1,0,2-0.4,2.7-1.2c0.8-0.8,1.2-2,1.1-3.1c0-0.3-0.2-1.7-1.1-3.5c1.1-0.1,2.1-0.8,2.7-1.7
				c0.7-1.1,0.8-2.5,0.3-3.7C691.2,299.7,688.1,295.9,683.3,295.9L683.3,295.9z"/>
		</g>
		<g>
			<line class="st1" x1="677.9" y1="303.6" x2="677.9" y2="337.8"/>
			<path class="st1" d="M677.9,303.6c0,0-1.3,7.1-8.6,7.7C669.3,311.4,669.9,305.3,677.9,303.6z"/>
			<path class="st1" d="M677.9,303.6c0,0,1.3,7.1,8.6,7.7C686.5,311.4,685.9,305.3,677.9,303.6z"/>
			<path class="st1" d="M677.9,303.6H667c0,0,1.8-3.9,5.4-3.9C676.1,299.7,677.9,303.6,677.9,303.6z"/>
			<path class="st1" d="M688.7,303.6h-10.9c0,0,1.8-3.9,5.4-3.9S688.7,303.6,688.7,303.6z"/>
		</g>
	</g>
	<g>
		<g>
			<path class="st0" d="M1262.5,339.3c-0.8,0-1.5-0.7-1.5-1.5v-24.1c-1.6,1.1-3.4,1.8-5.5,2h-0.2c-0.6,0-1.2-0.2-1.6-0.7
				c-0.5-0.5-0.7-1.2-0.6-1.8c0-0.1,0.3-2.3,2-4.6h-1.8c-0.8,0-1.5-0.4-1.9-1c-0.4-0.7-0.5-1.5-0.2-2.2c0.1-0.2,2.3-4.9,7.1-4.9
				c1.8,0,3.6,0.7,5,2.1c1.4-1.4,3.2-2.1,5-2.1c4.8,0,7,4.7,7.1,4.9c0.3,0.7,0.3,1.5-0.2,2.2c-0.4,0.7-1.1,1-1.9,1h-1.8
				c1.8,2.3,2,4.5,2,4.6c0.1,0.7-0.2,1.3-0.6,1.8c-0.4,0.4-1,0.7-1.6,0.7h-0.2c-2.1-0.2-3.9-0.8-5.5-2v24.1c0,0.8-0.7,1.5-1.5,1.5
				H1262.5z"/>
			<path class="st0" d="M1268.3,302c3.8,0,5.6,3.9,5.7,4c0.1,0.2,0.1,0.5-0.1,0.7c-0.1,0.2-0.4,0.4-0.7,0.4h-5.8
				c4,2.4,4.5,6.1,4.5,6.3c0,0.2-0.1,0.5-0.2,0.6s-0.3,0.2-0.6,0.2c0,0,0,0-0.1,0c-3.7-0.3-5.9-2.3-7.1-4.2v27.8h-1.6V310
				c-1.2,1.9-3.4,3.9-7.1,4.2c0,0,0,0-0.1,0c-0.2,0-0.4-0.1-0.6-0.2c-0.2-0.2-0.2-0.4-0.2-0.6s0.5-3.9,4.5-6.3h-5.8
				c-0.3,0-0.5-0.1-0.7-0.4c-0.1-0.2-0.2-0.5-0.1-0.7s1.9-4,5.7-4c2.5,0,4.1,1.7,5,2.9C1264.1,303.7,1265.8,302,1268.3,302
				 M1268.3,299c-1.8,0-3.5,0.6-5,1.6c-1.5-1.1-3.2-1.6-5-1.6c-4.6,0-7.4,3.6-8.4,5.8c-0.5,1.2-0.4,2.5,0.3,3.6
				c0.6,0.9,1.4,1.4,2.4,1.7c-0.7,1.6-0.9,2.8-0.9,3c-0.1,1.1,0.3,2.2,1.1,3c0.7,0.7,1.7,1.1,2.7,1.1c0.1,0,0.2,0,0.3,0
				c1.4-0.1,2.7-0.4,3.8-0.9v21.5c0,1.7,1.3,3,3,3h1.6c1.7,0,3-1.3,3-3v-21.5c1.2,0.5,2.5,0.8,3.9,0.9c0.1,0,0.2,0,0.3,0
				c1,0,2-0.4,2.7-1.1c0.8-0.8,1.2-1.9,1.1-3.1c0-0.3-0.2-1.5-0.9-3c1-0.2,1.8-0.8,2.4-1.7c0.7-1.1,0.8-2.4,0.3-3.6
				C1275.7,302.6,1272.9,299,1268.3,299L1268.3,299z"/>
		</g>
		<g>
			<line class="st1" x1="1263.3" y1="306.3" x2="1263.3" y2="337.8"/>
			<path class="st1" d="M1263.3,306.3c0,0-1.2,6.5-8,7.1C1255.3,313.5,1255.9,307.9,1263.3,306.3z"/>
			<path class="st1" d="M1263.3,306.3c0,0,1.2,6.5,7.9,7.1C1271.2,313.5,1270.7,307.9,1263.3,306.3z"/>
			<path class="st1" d="M1263.3,306.3h-10c0,0,1.6-3.6,5-3.6S1263.3,306.3,1263.3,306.3z"/>
			<path class="st1" d="M1273.3,306.3h-10c0,0,1.6-3.6,5-3.6S1273.3,306.3,1273.3,306.3z"/>
		</g>
	</g>
	<g>
		<path class="st1" d="M121.6,86.1c-0.5,0-1,0.1-1.4,0.2l0,0c0-5.8-4.7-10.5-10.5-10.5c-5.2,0-9.6,3.8-10.4,8.9
			c-1.1-0.8-2.4-1.3-3.9-1.3c-3.7,0-6.7,3-6.7,6.7s3,6.7,6.7,6.7c2.7,0,5-1.6,6.1-3.9c1.9,2.4,4.9,3.9,8.2,3.9
			c2.8,0,5.3-1.1,7.2-2.9c0.9,1.7,2.7,2.9,4.7,2.9c2.9,0,5.3-2.4,5.3-5.3C126.9,88.5,124.5,86.1,121.6,86.1z"/>
		<path class="st2" d="M88.9,88c0.6,3.1,3.3,5.3,6.6,5.3c2.7,0,5-1.6,6.1-3.9c1.9,2.4,4.9,3.9,8.2,3.9c2.8,0,5.3-1.1,7.2-2.9
			c0.9,1.7,2.7,2.9,4.7,2.9c2.4,0,4.4-1.5,5.1-3.7"/>
		<path class="st2" d="M109.5,70.8c1.2,0,2.3,0.1,3.4,0.4"/>
		<path class="st2" d="M98.3,75.6c1.7-1.8,3.8-3.1,6.2-4"/>
		<path class="st2" d="M128.3,97.3c-1.6,1.8-3.9,2.9-6.5,2.9"/>
	</g>
	<g>
		<path class="st1" d="M1013.3,90.3c-1.9,0-3.7,0.7-5.1,1.9c-1.5-3-4.6-5-8.2-5c-0.8,0-1.6,0.1-2.4,0.3c-0.9-1.5-2.6-2.5-4.5-2.5
			c-2.9,0-5.3,2.4-5.3,5.3c0,2.1,1.3,4,3.1,4.8c-0.1,0.4-0.1,0.8-0.1,1.3c0,5.1,4.1,9.1,9.1,9.1c2.8,0,5.3-1.3,7-3.3
			c1.4,2,3.7,3.3,6.2,3.3c4.2,0,7.6-3.4,7.6-7.6C1020.9,93.7,1017.5,90.3,1013.3,90.3z"/>
		<path class="st2" d="M991.1,95.1c0.7,4.4,4.5,7.8,9,7.8c2.8,0,5.3-1.3,7-3.3c1.4,2,3.7,3.3,6.2,3.3c3.7,0,6.9-2.7,7.5-6.3"/>
		<path class="st2" d="M1024.7,101.4c-0.7,2.3-2.1,4.2-3.9,5.7"/>
		<path class="st2" d="M986.9,82.4c1.7-1.3,3.9-2.1,6.2-2.1"/>
		<path class="st2" d="M983.1,90.3c0-1.9,0.5-3.6,1.4-5.1"/>
	</g>
	<g>
		<path class="st1" d="M759.9,38.6c7.5-7.5,22.1,5.7,28.6-0.9"/>
		<path class="st2" d="M760.7,43c3.2-3.2,7.7-2.5,12.3-1.1"/>
	</g>
	<g>
		<path class="st1" d="M950.1,132.9c7.5-7.4,22,5.9,28.6-0.6"/>
		<path class="st2" d="M950.9,137.4c3.2-3.1,7.7-2.4,12.3-0.9"/>
	</g>
	<g>
		<path class="st2" d="M353.3,154.6c-4,13.1-20.3,21.1-23.6,20.1c-3.3-1-12-17.8-8.3-29.9c2.7-8.8,9.2-15.7,21.1-12.1
			C353.8,136.3,356,145.9,353.3,154.6z"/>
		<path class="st2" d="M348.2,153.1c-3.7,12.2-16.5,22.3-18.4,21.7c-2.2-0.7-6.6-16.7-3.1-28.3c2.7-8.8,8.2-16,15.9-13.6
			C350.8,135.3,350.9,144.3,348.2,153.1z"/>
		<path class="st2" d="M342.8,151.4c-3.5,11.5-13,23.3-13,23.3s-1.2-15.3,2.3-26.6c2.7-8.8,7.6-16.2,10.6-15.3
			C345.6,133.7,345.5,142.6,342.8,151.4z"/>
		<line class="st2" x1="329.8" y1="174.8" x2="324.8" y2="179.9"/>
		<line class="st2" x1="329.8" y1="174.8" x2="331.3" y2="181.8"/>
		
			<rect x="325" y="179.7" transform="matrix(0.2931 -0.9561 0.9561 0.2931 56.3756 442.3653)" class="st5" width="4.7" height="6.8"/>
		<path class="st2" d="M350.9,153.9c-3.7,12.2-18.7,21.6-21.1,20.9c-2.8-0.9-9.3-17.6-5.8-29.1c2.7-8.8,9-15.8,18.7-12.8
			C352.8,136,353.6,145.1,350.9,153.9z"/>
		<path class="st2" d="M345,152.1c-3.5,11.5-15.3,22.7-15.3,22.7s-3.4-16,0-27.3c2.7-8.8,8.6-15.9,12.8-14.6
			C346.8,134.1,347.7,143.3,345,152.1z"/>
		<path class="st2" d="M339.1,150.3c-3.5,11.5-9.3,24.5-9.3,24.5s2.5-14.2,6-25.5c2.7-8.8,5.9-16.7,6.9-16.4
			C343.5,133.1,341.8,141.5,339.1,150.3z"/>
	</g>
	<line class="st1" x1="0" y1="336.8" x2="1280" y2="336.8"/>
	<g>
		<path class="st1" d="M457.1,40c-0.4,7-6.3,12.4-13.3,12s-12.4-6.3-12-13.3s6.3-12.4,13.3-12C452.1,27,457.5,33,457.1,40z"/>
		<g>
			<line class="st2" x1="445.3" y1="22.5" x2="445.6" y2="17.1"/>
			<line class="st2" x1="443.3" y1="61.5" x2="443.5" y2="56.1"/>
			<line class="st2" x1="436.8" y1="24.3" x2="434.3" y2="19.5"/>
			<line class="st2" x1="454.5" y1="59.1" x2="452.1" y2="54.3"/>
			<line class="st2" x1="430.3" y1="30.1" x2="425.8" y2="27.2"/>
			<line class="st2" x1="463.1" y1="51.4" x2="458.6" y2="48.5"/>
			<line class="st2" x1="427.6" y1="38.4" x2="422.2" y2="38.1"/>
			<line class="st2" x1="466.6" y1="40.5" x2="461.3" y2="40.2"/>
			<line class="st2" x1="429.4" y1="46.9" x2="424.6" y2="49.4"/>
			<line class="st2" x1="464.2" y1="29.2" x2="459.4" y2="31.6"/>
			<line class="st2" x1="435.2" y1="53.4" x2="432.3" y2="57.9"/>
			<line class="st2" x1="456.5" y1="20.6" x2="453.6" y2="25.2"/>
		</g>
	</g>
</g>
<path class="st6" d="M859,272c-1.7,1.5-2.6,3.5-2.8,5.8v49.6c0.4,2.6,1.3,4.8,3,6.3c1.5,1.3,3.2,2.2,5.4,2.2h0.9
	c2.6-0.2,4.5-1.1,6.1-2.8c1.5-1.7,2.4-3.7,2.4-6.3v-48.3c-0.2-2.4-1.1-4.5-2.6-6.3c-1.5-1.7-3.7-2.6-6.1-2.6
	C862.7,269.6,860.7,270.5,859,272 M908.4,288.7c2.2-1.1,4.3-1.7,7.1-1.7c2.6,0,5,0.6,6.9,1.7c2.2,1.1,3.9,3,5.4,6.1h-24.9
	C904.5,291.9,906.2,290,908.4,288.7 M902.5,272c-4.1,1.7-7.6,4.3-10.6,7.4c-3,3-5.4,6.7-7.1,10.6c-1.7,4.1-2.6,8.2-2.6,12.6
	c0,4.3,0.9,8.7,2.6,12.8c1.7,4.1,4.1,7.8,7.4,10.8c3,3,6.7,5.4,10.6,7.4c4.1,1.7,8.2,2.6,12.6,2.4c3.5,0,6.5-0.4,9.5-1.3
	s5.8-2.2,8.2-4.1c1.3-1.5,2.2-3,2.4-4.8c0.2-1.7,0-3.5-0.6-5s-1.7-2.8-3.2-3.7c-1.5-1.1-3-1.5-5-1.7c-1.1,0-1.9,0.2-2.6,0.4
	c-0.9,0.2-1.5,0.6-2.4,0.9c-0.9,0.4-1.7,0.6-2.6,0.9c-1.1,0.2-2.2,0.4-3.7,0.4c-5.4,0-9.5-2.6-12.6-7.8h36.6c2.6,0,4.8-0.6,6.7-1.9
	c1.7-1.3,2.6-3.2,2.6-5.6c0-4.3-0.9-8.7-2.8-12.6c-1.7-3.9-4.3-7.6-7.4-10.6c-3-3-6.7-5.4-10.6-7.4c-4.1-1.7-8.2-2.8-12.6-2.8
	C910.9,269.2,906.6,270.1,902.5,272 M975.2,272c-4.1,1.7-7.6,4.3-10.6,7.4c-3,3-5.4,6.5-7.4,10.6c-1.7,4.1-2.6,8.2-2.6,12.6
	c0,4.5,0.9,8.7,2.6,12.8c1.7,4.1,4.1,7.6,7.1,10.6s6.5,5.4,10.6,7.1s8.2,2.6,13,2.6s8.9-0.9,12.8-2.4c3.9-1.7,7.4-4.1,10.6-7.4
	c0.6-0.9,1.3-1.7,1.7-2.8c0.4-1.1,0.4-2.2,0.4-3.2c0-1.1-0.2-2.2-0.6-3.2s-1.1-1.9-1.9-2.6c-1.7-1.7-3.7-2.8-6.3-2.8
	s-4.8,0.9-6.3,2.8c-3,2.6-6.3,3.9-10.4,3.9c-2.2,0-4.1-0.2-5.8-1.1s-3.5-1.9-5-3.5c-1.5-1.5-2.6-3-3.5-5c-0.9-1.9-1.3-3.9-1.3-6.1
	c0-1.9,0.4-3.9,1.3-5.8c0.9-1.7,1.9-3.5,3.5-4.8c1.5-1.5,3-2.6,5-3.5c1.9-0.9,3.9-1.3,6.1-1.3c3.9,0,7.4,1.3,10.2,3.9
	c1.7,1.7,3.7,2.6,6.3,2.4c2.6,0,4.8-0.9,6.3-2.4c1.7-1.5,2.6-3.5,2.6-5.8c0.2-2.4-0.6-4.3-2.2-6.1c-6.5-6.5-14.1-9.5-23.4-9.5
	C983.7,269.2,979.3,270.1,975.2,272 M1130.8,316.6c-1.7-0.9-3.5-1.9-5-3.2c-1.5-1.3-2.6-3-3.5-4.8c-0.9-1.9-1.3-3.9-1.3-6.1
	c0-1.9,0.4-3.9,1.3-5.8s1.9-3.5,3.5-5s3-2.6,5-3.5c1.7-0.9,3.7-1.3,5.8-1.3c1.9,0,3.9,0.4,5.8,1.3s3.5,1.9,5,3.5s2.6,3,3.5,5
	c0.9,1.9,1.3,3.9,1.3,5.8c0,2.2-0.4,4.3-1.3,6.1c-0.9,1.9-1.9,3.5-3.2,5c-1.3,1.3-3,2.4-4.8,3.2c-1.9,0.9-3.9,1.1-6.1,1.1
	C1134.5,317.9,1132.8,317.5,1130.8,316.6 M1136.7,269.2c-6.9,0-13,1.7-18.4,5.4c-5.4,3.7-9.5,8.4-12.1,14.5
	c-0.9,2.2-1.7,4.3-2.2,6.5c-0.4,2.2-0.6,4.5-0.6,6.9s0.2,4.8,0.6,6.9c0.4,2.2,1.3,4.3,2.2,6.5c2.6,5.8,6.7,10.6,12.1,14.3
	c5.4,3.7,11.5,5.6,18.4,5.6c2.6,0,5.2-0.2,7.6-0.9c2.4-0.6,4.5-1.3,6.7-2.4c0.4-0.2,0.6-0.4,1.1-0.6c0.4-0.2,0.9-0.4,1.3-0.6
	c1.9,3,4.5,4.3,7.8,4.3c2.4,0,4.3-0.9,6.3-2.6c1.7-1.5,2.6-3.5,2.8-5.8v-25.8c0-3.9-0.9-7.6-2.2-11c-1.5-3.9-3.5-7.1-6.3-10.2
	c-2.6-3-5.6-5.4-9.3-7.4c-3.7-1.9-7.6-3-11.7-3.5c-0.6,0-1.3-0.2-1.9-0.2C1138.8,269.2,1136.7,269.2,1136.7,269.2z M859,251.2
	c-1.9,1.5-2.8,3.5-2.8,5.8c0,3,0.9,5.2,2.6,6.7c1.7,1.5,3.9,2.4,6.5,2.6c2.4,0,4.3-0.9,6.1-2.6c1.7-1.7,2.6-3.9,2.6-6.3
	s-0.9-4.5-2.6-6.3c-1.7-1.7-3.9-2.6-6.3-2.6S860.7,249.5,859,251.2 M1041,315.7c-1.7-1.7-2.6-3.9-2.6-6.3c0-2.2,0.6-3.9,1.9-5.6
	c1.3-1.5,3-2.6,5-3.2l12.3,11l-3.9,4.3c-1.7,1.7-3.9,2.6-6.3,2.6C1044.9,318.3,1042.7,317.5,1041,315.7 M1042.5,276.8
	c-1.3-1.5-1.9-3-1.9-4.5c0-1.9,0.6-3.5,1.9-5c1.3-1.3,3-2.2,4.8-2.2c1.9,0,3.5,0.6,5,2.2c1.3,1.3,2.2,3,2.2,5s-0.6,3.5-2.2,4.8
	c-1.3,1.3-3,1.9-5,1.9S1043.6,278.3,1042.5,276.8 M1038.2,250c-3,1.3-5.6,3-7.8,5.2c-2.2,2.2-3.9,4.8-5.2,7.6
	c-1.3,3-1.9,6.1-1.9,9.3c0,3.5,0.6,6.5,1.9,9.3s3,5.4,5.2,7.6c-3,2.8-5.2,5.8-6.7,9.1c-1.5,3.2-2.2,6.7-2.4,10.2
	c0,3.5,0.4,6.7,1.5,10s2.8,6.1,5,8.7s5,4.5,8.2,6.3c3.2,1.5,6.9,2.4,11,2.4c3.5,0,6.7-0.6,9.7-1.7s5.6-2.8,8-5l5.4-6.3l12.8,11
	c1.7,1.5,3.7,2.4,6.1,2.2c2.4,0,4.3-1.1,6.1-2.8c1.5-1.7,2.2-3.9,2.2-6.3c-0.2-2.4-1.1-4.3-2.8-5.8l-13-11l6.9-7.8
	c1.5-1.7,2.4-3.9,2.2-6.3c0-2.4-1.1-4.3-2.8-5.8s-3.7-2.4-6.1-2.2c-2.4,0-4.3,1.1-5.8,2.8l-7.1,8l-7.4-6.5c0.4-0.4,0.9-0.9,1.5-1.3
	s1.1-0.9,1.7-1.3c3.7-3.9,5.8-8.2,6.5-12.8c0.6-4.8,0-9.1-1.7-13.4c-1.7-4.1-4.5-7.8-8.2-10.6c-3.9-2.8-8.2-4.3-13.4-4.3
	C1044.3,248.2,1041,248.7,1038.2,250"/>
<g>
	<g>
		<g>
			<path class="st1" d="M278.8,249.1c0,0,1.2-2,1-3c0,0-4.8-0.5-9-3.3V242l0.8-0.4c0,0-2.5-0.8-2.8-2c0,0,1.9-1.4-0.9-3.9
				c-2.8,2.5-0.9,3.9-0.9,3.9c-0.3,1.1-2.7,2-2.7,2l0.8,0.4v0.9c-4.2,2.8-9,3.3-9,3.3c-0.1,0.9,1,3,1,3h-15.4v87.5h6.4
				c0,0,0.2-9.4,0-17.1s3.8-8.9,3.8-8.9c-2.6-1.7-9-9.2-2.3-21.3c6.8-12,18.3-15.6,18.3-15.6s11.5,3.6,18.3,15.6
				c6.8,12.1,0.4,19.6-2.3,21.3c0,0,4,1.1,3.8,8.9c-0.2,7.7,0,17.1,0,17.1h6.4v-87.5h-15.3V249.1z M247,253.8h-3.7v-2.2l1.9-1l1.9,1
				L247,253.8L247,253.8z M251.7,253.8H248v-2.2l1.9-1l1.9,1L251.7,253.8L251.7,253.8z M256.3,253.8h-3.7v-2.2l1.9-1l1.9,1v2.2
				H256.3z M271.3,254.2h-6.4v-3l3.2-2.3l3.2,2.3L271.3,254.2L271.3,254.2z M283.6,253.8h-3.7v-2.2l1.9-1l1.9,1L283.6,253.8
				L283.6,253.8z M288.2,253.8h-3.7v-2.2l1.9-1l1.9,1L288.2,253.8L288.2,253.8z M292.9,253.8h-3.7v-2.2l1.9-1l1.9,1L292.9,253.8
				L292.9,253.8z"/>
			<path class="st7" d="M225.2,336.6h-49.6v-75.7h49.6L225.2,336.6L225.2,336.6z M181.8,263.8l-2.1-1.1l-2.1,1.1v2.4h4.2
				L181.8,263.8L181.8,263.8z M181.8,266.8h-4.2v3.6h4.2V266.8z M181.4,270H178v-2.8h3.3L181.4,270L181.4,270z M181.8,270.8h-4.2
				v3.6h4.2V270.8z M181.4,274H178v-2.8h3.3L181.4,274L181.4,274z M181.8,274.8h-4.2v3.6h4.2V274.8z M181.4,278.1H178v-2.8h3.3
				L181.4,278.1L181.4,278.1z M181.8,278.9h-4.2v3.6h4.2V278.9z M181.4,282.1H178v-2.8h3.3L181.4,282.1L181.4,282.1z M181.8,282.9
				h-4.2v3.6h4.2V282.9z M181.4,286.1H178v-2.8h3.3L181.4,286.1L181.4,286.1z M181.8,286.9h-4.2v3.6h4.2V286.9z M181.4,290.1H178
				v-2.8h3.3L181.4,290.1L181.4,290.1z M181.8,290.9h-4.2v3.6h4.2V290.9z M181.4,294.2H178v-2.8h3.3L181.4,294.2L181.4,294.2z
				 M181.8,295h-4.2v3.6h4.2V295z M181.4,298.2H178v-2.8h3.3L181.4,298.2L181.4,298.2z M181.8,299h-4.2v3.6h4.2V299z M181.4,302.2
				H178v-2.8h3.3L181.4,302.2L181.4,302.2z M181.8,303h-4.2v3.6h4.2V303z M181.4,306.2H178v-2.8h3.3L181.4,306.2L181.4,306.2z
				 M181.8,307h-4.2v3.6h4.2V307z M181.4,310.3H178v-2.8h3.3L181.4,310.3L181.4,310.3z M181.8,311.1h-4.2v3.6h4.2V311.1z
				 M181.4,314.3H178v-2.8h3.3L181.4,314.3L181.4,314.3z M181.8,315.1h-4.2v3.6h4.2V315.1z M181.4,318.3H178v-2.8h3.3L181.4,318.3
				L181.4,318.3z M186.4,263.8l-2.1-1.1l-2.1,1.1v2.4h4.2L186.4,263.8L186.4,263.8z M186.4,266.8h-4.2v3.6h4.2V266.8z M185.9,270
				h-3.3v-2.8h3.3V270z M186.4,270.8h-4.2v3.6h4.2V270.8z M185.9,274h-3.3v-2.8h3.3V274z M186.4,274.8h-4.2v3.6h4.2V274.8z
				 M185.9,278.1h-3.3v-2.8h3.3V278.1z M186.4,278.9h-4.2v3.6h4.2V278.9z M185.9,282.1h-3.3v-2.8h3.3V282.1z M186.4,282.9h-4.2v3.6
				h4.2V282.9z M185.9,286.1h-3.3v-2.8h3.3V286.1z M186.4,286.9h-4.2v3.6h4.2V286.9z M185.9,290.1h-3.3v-2.8h3.3V290.1z
				 M186.4,290.9h-4.2v3.6h4.2V290.9z M185.9,294.2h-3.3v-2.8h3.3V294.2z M186.4,295h-4.2v3.6h4.2V295z M185.9,298.2h-3.3v-2.8h3.3
				V298.2z M186.4,299h-4.2v3.6h4.2V299z M185.9,302.2h-3.3v-2.8h3.3V302.2z M186.4,303h-4.2v3.6h4.2V303z M185.9,306.2h-3.3v-2.8
				h3.3V306.2z M186.4,307h-4.2v3.6h4.2V307z M185.9,310.3h-3.3v-2.8h3.3V310.3z M186.4,311.1h-4.2v3.6h4.2V311.1z M185.9,314.3
				h-3.3v-2.8h3.3V314.3z M186.4,315.1h-4.2v3.6h4.2V315.1z M185.9,318.3h-3.3v-2.8h3.3V318.3z M190.9,263.8l-2.1-1.1l-2.1,1.1v2.4
				h4.2L190.9,263.8L190.9,263.8z M190.9,266.8h-4.2v3.6h4.2V266.8z M190.5,270h-3.3v-2.8h3.3V270z M190.9,270.8h-4.2v3.6h4.2V270.8
				z M190.5,274h-3.3v-2.8h3.3V274z M190.9,274.8h-4.2v3.6h4.2V274.8z M190.5,278.1h-3.3v-2.8h3.3V278.1z M190.9,278.9h-4.2v3.6h4.2
				V278.9z M190.5,282.1h-3.3v-2.8h3.3V282.1z M190.9,282.9h-4.2v3.6h4.2V282.9z M190.5,286.1h-3.3v-2.8h3.3V286.1z M190.9,286.9
				h-4.2v3.6h4.2V286.9z M190.5,290.1h-3.3v-2.8h3.3V290.1z M190.9,290.9h-4.2v3.6h4.2V290.9z M190.5,294.2h-3.3v-2.8h3.3V294.2z
				 M190.9,295h-4.2v3.6h4.2V295z M190.5,298.2h-3.3v-2.8h3.3V298.2z M190.9,299h-4.2v3.6h4.2V299z M190.5,302.2h-3.3v-2.8h3.3
				V302.2z M190.9,303h-4.2v3.6h4.2V303z M190.5,306.2h-3.3v-2.8h3.3V306.2z M190.9,307h-4.2v3.6h4.2V307z M190.5,310.3h-3.3v-2.8
				h3.3V310.3z M190.9,311.1h-4.2v3.6h4.2V311.1z M190.5,314.3h-3.3v-2.8h3.3V314.3z M190.9,315.1h-4.2v3.6h4.2V315.1z M190.5,318.3
				h-3.3v-2.8h3.3V318.3z M195.5,263.8l-2.1-1.1l-2.1,1.1v2.4h4.2L195.5,263.8L195.5,263.8z M195.5,266.8h-4.2v3.6h4.2V266.8z
				 M195,270h-3.3v-2.8h3.3V270z M195.5,270.8h-4.2v3.6h4.2V270.8z M195,274h-3.3v-2.8h3.3V274z M195.5,274.8h-4.2v3.6h4.2V274.8z
				 M195,278.1h-3.3v-2.8h3.3V278.1z M195.5,278.9h-4.2v3.6h4.2V278.9z M195,282.1h-3.3v-2.8h3.3V282.1z M195.5,282.9h-4.2v3.6h4.2
				V282.9z M195,286.1h-3.3v-2.8h3.3V286.1z M195.5,286.9h-4.2v3.6h4.2V286.9z M195,290.1h-3.3v-2.8h3.3V290.1z M195.5,290.9h-4.2
				v3.6h4.2V290.9z M195,294.2h-3.3v-2.8h3.3V294.2z M195.5,295h-4.2v3.6h4.2V295z M195,298.2h-3.3v-2.8h3.3V298.2z M195.5,299h-4.2
				v3.6h4.2V299z M195,302.2h-3.3v-2.8h3.3V302.2z M195.5,303h-4.2v3.6h4.2V303z M195,306.2h-3.3v-2.8h3.3V306.2z M195.5,307h-4.2
				v3.6h4.2V307z M195,310.3h-3.3v-2.8h3.3V310.3z M195.5,311.1h-4.2v3.6h4.2V311.1z M195,314.3h-3.3v-2.8h3.3V314.3z M195.5,315.1
				h-4.2v3.6h4.2V315.1z M195,318.3h-3.3v-2.8h3.3V318.3z M200.1,263.8l-2.1-1.1l-2.1,1.1v2.4h4.2L200.1,263.8L200.1,263.8z
				 M200.1,266.8h-4.2v3.6h4.2V266.8z M199.6,270h-3.3v-2.8h3.3V270z M200.1,270.8h-4.2v3.6h4.2V270.8z M199.6,274h-3.3v-2.8h3.3
				V274z M200.1,274.8h-4.2v3.6h4.2V274.8z M199.6,278.1h-3.3v-2.8h3.3V278.1z M200.1,278.9h-4.2v3.6h4.2V278.9z M199.6,282.1h-3.3
				v-2.8h3.3V282.1z M200.1,282.9h-4.2v3.6h4.2V282.9z M199.6,286.1h-3.3v-2.8h3.3V286.1z M200.1,286.9h-4.2v3.6h4.2V286.9z
				 M199.6,290.1h-3.3v-2.8h3.3V290.1z M200.1,290.9h-4.2v3.6h4.2V290.9z M199.6,294.2h-3.3v-2.8h3.3V294.2z M200.1,295h-4.2v3.6
				h4.2V295z M199.6,298.2h-3.3v-2.8h3.3V298.2z M200.1,299h-4.2v3.6h4.2V299z M199.6,302.2h-3.3v-2.8h3.3V302.2z M200.1,303h-4.2
				v3.6h4.2V303z M199.6,306.2h-3.3v-2.8h3.3V306.2z M200.1,307h-4.2v3.6h4.2V307z M199.6,310.3h-3.3v-2.8h3.3V310.3z M200.1,311.1
				h-4.2v3.6h4.2V311.1z M199.6,314.3h-3.3v-2.8h3.3V314.3z M200.1,315.1h-4.2v3.6h4.2V315.1z M199.6,318.3h-3.3v-2.8h3.3V318.3z
				 M204.6,263.8l-2.1-1.1l-2.1,1.1v2.4h4.2L204.6,263.8L204.6,263.8z M204.6,266.8h-4.2v3.6h4.2V266.8z M204.2,270h-3.3v-2.8h3.3
				V270z M204.6,270.8h-4.2v3.6h4.2V270.8z M204.2,274h-3.3v-2.8h3.3V274z M204.6,274.8h-4.2v3.6h4.2V274.8z M204.2,278.1h-3.3v-2.8
				h3.3V278.1z M204.6,278.9h-4.2v3.6h4.2V278.9z M204.2,282.1h-3.3v-2.8h3.3V282.1z M204.6,282.9h-4.2v3.6h4.2V282.9z M204.2,286.1
				h-3.3v-2.8h3.3V286.1z M204.6,286.9h-4.2v3.6h4.2V286.9z M204.2,290.1h-3.3v-2.8h3.3V290.1z M204.6,290.9h-4.2v3.6h4.2V290.9z
				 M204.2,294.2h-3.3v-2.8h3.3V294.2z M204.6,295h-4.2v3.6h4.2V295z M204.2,298.2h-3.3v-2.8h3.3V298.2z M204.6,299h-4.2v3.6h4.2
				V299z M204.2,302.2h-3.3v-2.8h3.3V302.2z M204.6,303h-4.2v3.6h4.2V303z M204.2,306.2h-3.3v-2.8h3.3V306.2z M204.6,307h-4.2v3.6
				h4.2V307z M204.2,310.3h-3.3v-2.8h3.3V310.3z M204.6,311.1h-4.2v3.6h4.2V311.1z M204.2,314.3h-3.3v-2.8h3.3V314.3z M204.6,315.1
				h-4.2v3.6h4.2V315.1z M204.2,318.3h-3.3v-2.8h3.3V318.3z M209.2,263.8l-2.1-1.1l-2.1,1.1v2.4h4.2L209.2,263.8L209.2,263.8z
				 M209.2,266.8H205v3.6h4.2V266.8z M208.7,270h-3.3v-2.8h3.3V270z M209.2,270.8H205v3.6h4.2V270.8z M208.7,274h-3.3v-2.8h3.3V274z
				 M209.2,274.8H205v3.6h4.2V274.8z M208.7,278.1h-3.3v-2.8h3.3V278.1z M209.2,278.9H205v3.6h4.2V278.9z M208.7,282.1h-3.3v-2.8
				h3.3V282.1z M209.2,282.9H205v3.6h4.2V282.9z M208.7,286.1h-3.3v-2.8h3.3V286.1z M209.2,286.9H205v3.6h4.2V286.9z M208.7,290.1
				h-3.3v-2.8h3.3V290.1z M209.2,290.9H205v3.6h4.2V290.9z M208.7,294.2h-3.3v-2.8h3.3V294.2z M209.2,295H205v3.6h4.2V295z
				 M208.7,298.2h-3.3v-2.8h3.3V298.2z M209.2,299H205v3.6h4.2V299z M208.7,302.2h-3.3v-2.8h3.3V302.2z M209.2,303H205v3.6h4.2V303z
				 M208.7,306.2h-3.3v-2.8h3.3V306.2z M209.2,307H205v3.6h4.2V307z M208.7,310.3h-3.3v-2.8h3.3V310.3z M209.2,311.1H205v3.6h4.2
				V311.1z M208.7,314.3h-3.3v-2.8h3.3V314.3z M209.2,315.1H205v3.6h4.2V315.1z M208.7,318.3h-3.3v-2.8h3.3V318.3z M213.7,263.8
				l-2.1-1.1l-2.1,1.1v2.4h4.2L213.7,263.8L213.7,263.8z M213.7,266.8h-4.2v3.6h4.2V266.8z M213.3,270H210v-2.8h3.3V270z
				 M213.7,270.8h-4.2v3.6h4.2V270.8z M213.3,274H210v-2.8h3.3V274z M213.7,274.8h-4.2v3.6h4.2V274.8z M213.3,278.1H210v-2.8h3.3
				V278.1z M213.7,278.9h-4.2v3.6h4.2V278.9z M213.3,282.1H210v-2.8h3.3V282.1z M213.7,282.9h-4.2v3.6h4.2V282.9z M213.3,286.1H210
				v-2.8h3.3V286.1z M213.7,286.9h-4.2v3.6h4.2V286.9z M213.3,290.1H210v-2.8h3.3V290.1z M213.7,290.9h-4.2v3.6h4.2V290.9z
				 M213.3,294.2H210v-2.8h3.3V294.2z M213.7,295h-4.2v3.6h4.2V295z M213.3,298.2H210v-2.8h3.3V298.2z M213.7,299h-4.2v3.6h4.2V299z
				 M213.3,302.2H210v-2.8h3.3V302.2z M213.7,303h-4.2v3.6h4.2V303z M213.3,306.2H210v-2.8h3.3V306.2z M213.7,307h-4.2v3.6h4.2V307z
				 M213.3,310.3H210v-2.8h3.3V310.3z M213.7,311.1h-4.2v3.6h4.2V311.1z M213.3,314.3H210v-2.8h3.3V314.3z M213.7,315.1h-4.2v3.6
				h4.2V315.1z M213.3,318.3H210v-2.8h3.3V318.3z M218.3,263.8l-2.1-1.1l-2.1,1.1v2.4h4.2L218.3,263.8L218.3,263.8z M218.3,266.8
				h-4.2v3.6h4.2V266.8z M217.9,270h-3.3v-2.8h3.3V270z M218.3,270.8h-4.2v3.6h4.2V270.8z M217.9,274h-3.3v-2.8h3.3V274z
				 M218.3,274.8h-4.2v3.6h4.2V274.8z M217.9,278.1h-3.3v-2.8h3.3V278.1z M218.3,278.9h-4.2v3.6h4.2V278.9z M217.9,282.1h-3.3v-2.8
				h3.3V282.1z M218.3,282.9h-4.2v3.6h4.2V282.9z M217.9,286.1h-3.3v-2.8h3.3V286.1z M218.3,286.9h-4.2v3.6h4.2V286.9z M217.9,290.1
				h-3.3v-2.8h3.3V290.1z M218.3,290.9h-4.2v3.6h4.2V290.9z M217.9,294.2h-3.3v-2.8h3.3V294.2z M218.3,295h-4.2v3.6h4.2V295z
				 M217.9,298.2h-3.3v-2.8h3.3V298.2z M218.3,299h-4.2v3.6h4.2V299z M217.9,302.2h-3.3v-2.8h3.3V302.2z M218.3,303h-4.2v3.6h4.2
				V303z M217.9,306.2h-3.3v-2.8h3.3V306.2z M218.3,307h-4.2v3.6h4.2V307z M217.9,310.3h-3.3v-2.8h3.3V310.3z M218.3,311.1h-4.2v3.6
				h4.2V311.1z M217.9,314.3h-3.3v-2.8h3.3V314.3z M218.3,315.1h-4.2v3.6h4.2V315.1z M217.9,318.3h-3.3v-2.8h3.3V318.3z
				 M222.9,263.8l-2.1-1.1l-2.1,1.1v2.4h4.2L222.9,263.8L222.9,263.8z M222.9,266.8h-4.2v3.6h4.2V266.8z M222.4,270h-3.3v-2.8h3.3
				V270z M222.9,270.8h-4.2v3.6h4.2V270.8z M222.4,274h-3.3v-2.8h3.3V274z M222.9,274.8h-4.2v3.6h4.2V274.8z M222.4,278.1h-3.3v-2.8
				h3.3V278.1z M222.9,278.9h-4.2v3.6h4.2V278.9z M222.4,282.1h-3.3v-2.8h3.3V282.1z M222.9,282.9h-4.2v3.6h4.2V282.9z M222.4,286.1
				h-3.3v-2.8h3.3V286.1z M222.9,286.9h-4.2v3.6h4.2V286.9z M222.4,290.1h-3.3v-2.8h3.3V290.1z M222.9,290.9h-4.2v3.6h4.2V290.9z
				 M222.4,294.2h-3.3v-2.8h3.3V294.2z M222.9,295h-4.2v3.6h4.2V295z M222.4,298.2h-3.3v-2.8h3.3V298.2z M222.9,299h-4.2v3.6h4.2
				V299z M222.4,302.2h-3.3v-2.8h3.3V302.2z M222.9,303h-4.2v3.6h4.2V303z M222.4,306.2h-3.3v-2.8h3.3V306.2z M222.9,307h-4.2v3.6
				h4.2V307z M222.4,310.3h-3.3v-2.8h3.3V310.3z M222.9,311.1h-4.2v3.6h4.2V311.1z M222.4,314.3h-3.3v-2.8h3.3V314.3z M222.9,315.1
				h-4.2v3.6h4.2V315.1z M222.4,318.3h-3.3v-2.8h3.3V318.3z"/>
			<path class="st7" d="M160.1,336.6h-34.4v-52.4h34.4V336.6z M130.1,286.2l-1.5-0.8l-1.5,0.8v1.7h2.9v-1.7H130.1z M130.1,288.3
				h-2.9v2.5h2.9V288.3z M129.8,290.5h-2.3v-2h2.3V290.5z M130.1,291.1h-2.9v2.5h2.9V291.1z M129.8,293.3h-2.3v-2h2.3V293.3z
				 M130.1,293.9h-2.9v2.5h2.9V293.9z M129.8,296.1h-2.3v-2h2.3V296.1z M130.1,296.6h-2.9v2.5h2.9V296.6z M129.8,298.9h-2.3v-2h2.3
				V298.9z M130.1,299.4h-2.9v2.5h2.9V299.4z M129.8,301.7h-2.3v-2h2.3V301.7z M130.1,302.2h-2.9v2.5h2.9V302.2z M129.8,304.4h-2.3
				v-2h2.3V304.4z M130.1,305h-2.9v2.5h2.9V305z M129.8,307.2h-2.3v-2h2.3V307.2z M130.1,307.8h-2.9v2.5h2.9V307.8z M129.8,310h-2.3
				v-2h2.3V310z M130.1,310.6h-2.9v2.5h2.9V310.6z M129.8,312.8h-2.3v-2h2.3V312.8z M130.1,313.4h-2.9v2.5h2.9V313.4z M129.8,315.6
				h-2.3v-2h2.3V315.6z M130.1,316.1h-2.9v2.5h2.9V316.1z M129.8,318.4h-2.3v-2h2.3V318.4z M130.1,318.9h-2.9v2.5h2.9V318.9z
				 M129.8,321.2h-2.3v-2h2.3V321.2z M130.1,321.7h-2.9v2.5h2.9V321.7z M129.8,323.9h-2.3v-2h2.3V323.9z M133.3,286.2l-1.5-0.8
				l-1.5,0.8v1.7h2.9v-1.7H133.3z M133.3,288.3h-2.9v2.5h2.9V288.3z M132.9,290.5h-2.3v-2h2.3V290.5z M133.3,291.1h-2.9v2.5h2.9
				V291.1z M132.9,293.3h-2.3v-2h2.3V293.3z M133.3,293.9h-2.9v2.5h2.9V293.9z M132.9,296.1h-2.3v-2h2.3V296.1z M133.3,296.6h-2.9
				v2.5h2.9V296.6z M132.9,298.9h-2.3v-2h2.3V298.9z M133.3,299.4h-2.9v2.5h2.9V299.4z M132.9,301.7h-2.3v-2h2.3V301.7z
				 M133.3,302.2h-2.9v2.5h2.9V302.2z M132.9,304.4h-2.3v-2h2.3V304.4z M133.3,305h-2.9v2.5h2.9V305z M132.9,307.2h-2.3v-2h2.3
				V307.2z M133.3,307.8h-2.9v2.5h2.9V307.8z M132.9,310h-2.3v-2h2.3V310z M133.3,310.6h-2.9v2.5h2.9V310.6z M132.9,312.8h-2.3v-2
				h2.3V312.8z M133.3,313.4h-2.9v2.5h2.9V313.4z M132.9,315.6h-2.3v-2h2.3V315.6z M133.3,316.1h-2.9v2.5h2.9V316.1z M132.9,318.4
				h-2.3v-2h2.3V318.4z M133.3,318.9h-2.9v2.5h2.9V318.9z M132.9,321.2h-2.3v-2h2.3V321.2z M133.3,321.7h-2.9v2.5h2.9V321.7z
				 M132.9,323.9h-2.3v-2h2.3V323.9z M136.4,286.2l-1.5-0.8l-1.5,0.8v1.7h2.9v-1.7H136.4z M136.4,288.3h-2.9v2.5h2.9V288.3z
				 M136.1,290.5h-2.3v-2h2.3V290.5z M136.4,291.1h-2.9v2.5h2.9V291.1z M136.1,293.3h-2.3v-2h2.3V293.3z M136.4,293.9h-2.9v2.5h2.9
				V293.9z M136.1,296.1h-2.3v-2h2.3V296.1z M136.4,296.6h-2.9v2.5h2.9V296.6z M136.1,298.9h-2.3v-2h2.3V298.9z M136.4,299.4h-2.9
				v2.5h2.9V299.4z M136.1,301.7h-2.3v-2h2.3V301.7z M136.4,302.2h-2.9v2.5h2.9V302.2z M136.1,304.4h-2.3v-2h2.3V304.4z M136.4,305
				h-2.9v2.5h2.9V305z M136.1,307.2h-2.3v-2h2.3V307.2z M136.4,307.8h-2.9v2.5h2.9V307.8z M136.1,310h-2.3v-2h2.3V310z M136.4,310.6
				h-2.9v2.5h2.9V310.6z M136.1,312.8h-2.3v-2h2.3V312.8z M136.4,313.4h-2.9v2.5h2.9V313.4z M136.1,315.6h-2.3v-2h2.3V315.6z
				 M136.4,316.1h-2.9v2.5h2.9V316.1z M136.1,318.4h-2.3v-2h2.3V318.4z M136.4,318.9h-2.9v2.5h2.9V318.9z M136.1,321.2h-2.3v-2h2.3
				V321.2z M136.4,321.7h-2.9v2.5h2.9V321.7z M136.1,323.9h-2.3v-2h2.3V323.9z M139.6,286.2l-1.5-0.8l-1.5,0.8v1.7h2.9v-1.7H139.6z
				 M139.6,288.3h-2.9v2.5h2.9V288.3z M139.3,290.5H137v-2h2.3V290.5z M139.6,291.1h-2.9v2.5h2.9V291.1z M139.3,293.3H137v-2h2.3
				V293.3z M139.6,293.9h-2.9v2.5h2.9V293.9z M139.3,296.1H137v-2h2.3V296.1z M139.6,296.6h-2.9v2.5h2.9V296.6z M139.3,298.9H137v-2
				h2.3V298.9z M139.6,299.4h-2.9v2.5h2.9V299.4z M139.3,301.7H137v-2h2.3V301.7z M139.6,302.2h-2.9v2.5h2.9V302.2z M139.3,304.4
				H137v-2h2.3V304.4z M139.6,305h-2.9v2.5h2.9V305z M139.3,307.2H137v-2h2.3V307.2z M139.6,307.8h-2.9v2.5h2.9V307.8z M139.3,310
				H137v-2h2.3V310z M139.6,310.6h-2.9v2.5h2.9V310.6z M139.3,312.8H137v-2h2.3V312.8z M139.6,313.4h-2.9v2.5h2.9V313.4z
				 M139.3,315.6H137v-2h2.3V315.6z M139.6,316.1h-2.9v2.5h2.9V316.1z M139.3,318.4H137v-2h2.3V318.4z M139.6,318.9h-2.9v2.5h2.9
				V318.9z M139.3,321.2H137v-2h2.3V321.2z M139.6,321.7h-2.9v2.5h2.9V321.7z M139.3,323.9H137v-2h2.3V323.9z M142.7,286.2l-1.5-0.8
				l-1.5,0.8v1.7h2.9v-1.7H142.7z M142.7,288.3h-2.9v2.5h2.9V288.3z M142.4,290.5h-2.3v-2h2.3V290.5z M142.7,291.1h-2.9v2.5h2.9
				V291.1z M142.4,293.3h-2.3v-2h2.3V293.3z M142.7,293.9h-2.9v2.5h2.9V293.9z M142.4,296.1h-2.3v-2h2.3V296.1z M142.7,296.6h-2.9
				v2.5h2.9V296.6z M142.4,298.9h-2.3v-2h2.3V298.9z M142.7,299.4h-2.9v2.5h2.9V299.4z M142.4,301.7h-2.3v-2h2.3V301.7z
				 M142.7,302.2h-2.9v2.5h2.9V302.2z M142.4,304.4h-2.3v-2h2.3V304.4z M142.7,305h-2.9v2.5h2.9V305z M142.4,307.2h-2.3v-2h2.3
				V307.2z M142.7,307.8h-2.9v2.5h2.9V307.8z M142.4,310h-2.3v-2h2.3V310z M142.7,310.6h-2.9v2.5h2.9V310.6z M142.4,312.8h-2.3v-2
				h2.3V312.8z M142.7,313.4h-2.9v2.5h2.9V313.4z M142.4,315.6h-2.3v-2h2.3V315.6z M142.7,316.1h-2.9v2.5h2.9V316.1z M142.4,318.4
				h-2.3v-2h2.3V318.4z M142.7,318.9h-2.9v2.5h2.9V318.9z M142.4,321.2h-2.3v-2h2.3V321.2z M142.7,321.7h-2.9v2.5h2.9V321.7z
				 M142.4,323.9h-2.3v-2h2.3V323.9z M145.9,286.2l-1.5-0.8l-1.5,0.8v1.7h2.9v-1.7H145.9z M145.9,288.3H143v2.5h2.9V288.3z
				 M145.6,290.5h-2.3v-2h2.3V290.5z M145.9,291.1H143v2.5h2.9V291.1z M145.6,293.3h-2.3v-2h2.3V293.3z M145.9,293.9H143v2.5h2.9
				V293.9z M145.6,296.1h-2.3v-2h2.3V296.1z M145.9,296.6H143v2.5h2.9V296.6z M145.6,298.9h-2.3v-2h2.3V298.9z M145.9,299.4H143v2.5
				h2.9V299.4z M145.6,301.7h-2.3v-2h2.3V301.7z M145.9,302.2H143v2.5h2.9V302.2z M145.6,304.4h-2.3v-2h2.3V304.4z M145.9,305H143
				v2.5h2.9V305z M145.6,307.2h-2.3v-2h2.3V307.2z M145.9,307.8H143v2.5h2.9V307.8z M145.6,310h-2.3v-2h2.3V310z M145.9,310.6H143
				v2.5h2.9V310.6z M145.6,312.8h-2.3v-2h2.3V312.8z M145.9,313.4H143v2.5h2.9V313.4z M145.6,315.6h-2.3v-2h2.3V315.6z M145.9,316.1
				H143v2.5h2.9V316.1z M145.6,318.4h-2.3v-2h2.3V318.4z M145.9,318.9H143v2.5h2.9V318.9z M145.6,321.2h-2.3v-2h2.3V321.2z
				 M145.9,321.7H143v2.5h2.9V321.7z M145.6,323.9h-2.3v-2h2.3V323.9z M149.1,286.2l-1.5-0.8l-1.5,0.8v1.7h2.9v-1.7H149.1z
				 M149.1,288.3h-2.9v2.5h2.9V288.3z M148.7,290.5h-2.3v-2h2.3V290.5z M149.1,291.1h-2.9v2.5h2.9V291.1z M148.7,293.3h-2.3v-2h2.3
				V293.3z M149.1,293.9h-2.9v2.5h2.9V293.9z M148.7,296.1h-2.3v-2h2.3V296.1z M149.1,296.6h-2.9v2.5h2.9V296.6z M148.7,298.9h-2.3
				v-2h2.3V298.9z M149.1,299.4h-2.9v2.5h2.9V299.4z M148.7,301.7h-2.3v-2h2.3V301.7z M149.1,302.2h-2.9v2.5h2.9V302.2z
				 M148.7,304.4h-2.3v-2h2.3V304.4z M149.1,305h-2.9v2.5h2.9V305z M148.7,307.2h-2.3v-2h2.3V307.2z M149.1,307.8h-2.9v2.5h2.9
				V307.8z M148.7,310h-2.3v-2h2.3V310z M149.1,310.6h-2.9v2.5h2.9V310.6z M148.7,312.8h-2.3v-2h2.3V312.8z M149.1,313.4h-2.9v2.5
				h2.9V313.4z M148.7,315.6h-2.3v-2h2.3V315.6z M149.1,316.1h-2.9v2.5h2.9V316.1z M148.7,318.4h-2.3v-2h2.3V318.4z M149.1,318.9
				h-2.9v2.5h2.9V318.9z M148.7,321.2h-2.3v-2h2.3V321.2z M149.1,321.7h-2.9v2.5h2.9V321.7z M148.7,323.9h-2.3v-2h2.3V323.9z
				 M152.2,286.2l-1.5-0.8l-1.5,0.8v1.7h2.9v-1.7H152.2z M152.2,288.3h-2.9v2.5h2.9V288.3z M151.9,290.5h-2.3v-2h2.3V290.5z
				 M152.2,291.1h-2.9v2.5h2.9V291.1z M151.9,293.3h-2.3v-2h2.3V293.3z M152.2,293.9h-2.9v2.5h2.9V293.9z M151.9,296.1h-2.3v-2h2.3
				V296.1z M152.2,296.6h-2.9v2.5h2.9V296.6z M151.9,298.9h-2.3v-2h2.3V298.9z M152.2,299.4h-2.9v2.5h2.9V299.4z M151.9,301.7h-2.3
				v-2h2.3V301.7z M152.2,302.2h-2.9v2.5h2.9V302.2z M151.9,304.4h-2.3v-2h2.3V304.4z M152.2,305h-2.9v2.5h2.9V305z M151.9,307.2
				h-2.3v-2h2.3V307.2z M152.2,307.8h-2.9v2.5h2.9V307.8z M151.9,310h-2.3v-2h2.3V310z M152.2,310.6h-2.9v2.5h2.9V310.6z
				 M151.9,312.8h-2.3v-2h2.3V312.8z M152.2,313.4h-2.9v2.5h2.9V313.4z M151.9,315.6h-2.3v-2h2.3V315.6z M152.2,316.1h-2.9v2.5h2.9
				V316.1z M151.9,318.4h-2.3v-2h2.3V318.4z M152.2,318.9h-2.9v2.5h2.9V318.9z M151.9,321.2h-2.3v-2h2.3V321.2z M152.2,321.7h-2.9
				v2.5h2.9V321.7z M151.9,323.9h-2.3v-2h2.3V323.9z M155.4,286.2l-1.5-0.8l-1.5,0.8v1.7h2.9v-1.7H155.4z M155.4,288.3h-2.9v2.5h2.9
				V288.3z M155.1,290.5h-2.3v-2h2.3V290.5z M155.4,291.1h-2.9v2.5h2.9V291.1z M155.1,293.3h-2.3v-2h2.3V293.3z M155.4,293.9h-2.9
				v2.5h2.9V293.9z M155.1,296.1h-2.3v-2h2.3V296.1z M155.4,296.6h-2.9v2.5h2.9V296.6z M155.1,298.9h-2.3v-2h2.3V298.9z
				 M155.4,299.4h-2.9v2.5h2.9V299.4z M155.1,301.7h-2.3v-2h2.3V301.7z M155.4,302.2h-2.9v2.5h2.9V302.2z M155.1,304.4h-2.3v-2h2.3
				V304.4z M155.4,305h-2.9v2.5h2.9V305z M155.1,307.2h-2.3v-2h2.3V307.2z M155.4,307.8h-2.9v2.5h2.9V307.8z M155.1,310h-2.3v-2h2.3
				V310z M155.4,310.6h-2.9v2.5h2.9V310.6z M155.1,312.8h-2.3v-2h2.3V312.8z M155.4,313.4h-2.9v2.5h2.9V313.4z M155.1,315.6h-2.3v-2
				h2.3V315.6z M155.4,316.1h-2.9v2.5h2.9V316.1z M155.1,318.4h-2.3v-2h2.3V318.4z M155.4,318.9h-2.9v2.5h2.9V318.9z M155.1,321.2
				h-2.3v-2h2.3V321.2z M155.4,321.7h-2.9v2.5h2.9V321.7z M155.1,323.9h-2.3v-2h2.3V323.9z M158.5,286.2l-1.5-0.8l-1.5,0.8v1.7h2.9
				v-1.7H158.5z M158.5,288.3h-2.9v2.5h2.9V288.3z M158.2,290.5h-2.3v-2h2.3V290.5z M158.5,291.1h-2.9v2.5h2.9V291.1z M158.2,293.3
				h-2.3v-2h2.3V293.3z M158.5,293.9h-2.9v2.5h2.9V293.9z M158.2,296.1h-2.3v-2h2.3V296.1z M158.5,296.6h-2.9v2.5h2.9V296.6z
				 M158.2,298.9h-2.3v-2h2.3V298.9z M158.5,299.4h-2.9v2.5h2.9V299.4z M158.2,301.7h-2.3v-2h2.3V301.7z M158.5,302.2h-2.9v2.5h2.9
				V302.2z M158.2,304.4h-2.3v-2h2.3V304.4z M158.5,305h-2.9v2.5h2.9V305z M158.2,307.2h-2.3v-2h2.3V307.2z M158.5,307.8h-2.9v2.5
				h2.9V307.8z M158.2,310h-2.3v-2h2.3V310z M158.5,310.6h-2.9v2.5h2.9V310.6z M158.2,312.8h-2.3v-2h2.3V312.8z M158.5,313.4h-2.9
				v2.5h2.9V313.4z M158.2,315.6h-2.3v-2h2.3V315.6z M158.5,316.1h-2.9v2.5h2.9V316.1z M158.2,318.4h-2.3v-2h2.3V318.4z
				 M158.5,318.9h-2.9v2.5h2.9V318.9z M158.2,321.2h-2.3v-2h2.3V321.2z M158.5,321.7h-2.9v2.5h2.9V321.7z M158.2,323.9h-2.3v-2h2.3
				V323.9z"/>
			<path class="st1" d="M241.9,320.4v-76l2.3-2.3h-2.5l1.5-2.2h-4.1c0,0,0.1-2.8-2.6-5.4l2.4-1.3h-1.3l1.1-1.6h-2.2l1.3-1.2
				c0,0-4-1.4-4.2-3c-0.3-1.6,0-3,0-3l1.2-1h-1.5l-0.3-5.6l-0.3,5.6H231l1.2,1c0,0,0.3,1.4,0,3s-4.2,3-4.2,3l1.3,1.2h-2.2l1.1,1.6
				h-1.3l2.5,1.3c-2.8,2.6-2.6,5.4-2.6,5.4h-4.1l1.5,2.2h-2.5l2.4,2.3v76H221l2.4,2.4v13.7h18.8v-13.7l2.5-2.4H241.9z M232.9,228.1
				l1.5,3.1h-2.9L232.9,228.1z M237.2,320.8h-8.7v-71.7l4.3-3.2l4.3,3.2L237.2,320.8L237.2,320.8z M234.7,239.8H231V237l1.9-1.3
				l1.9,1.3L234.7,239.8L234.7,239.8z M236.4,318.4h-7v-67.9l3.5-2.6l3.5,2.6V318.4z"/>
			<path class="st1" d="M175.5,322.7v-65.3l2-2h-2.2l1.3-1.9H173c0,0,0.1-2.4-2.3-4.6l2.1-1.1h-1.1l0.9-1.4h-1.9l1.1-1
				c0,0-3.4-1.2-3.6-2.6c-0.2-1.4,0-2.6,0-2.6l1-0.9H168l-0.3-4.9l-0.3,4.9h-1.3l1,0.9c0,0,0.2,1.2,0,2.6c-0.2,1.4-3.6,2.6-3.6,2.6
				l1.1,1h-1.9l0.9,1.4h-1.1l2.1,1.1c-2.4,2.2-2.3,4.6-2.3,4.6h-3.6l1.3,1.9h-2l2,2v65.3h-2.4l2.1,2.1v11.8h16.2v-11.8l2.1-2.1
				H175.5z M167.8,243.4l1.3,2.6h-2.5L167.8,243.4z M171.5,323H164v-61.6l3.7-2.7l3.7,2.7V323H171.5z M169.4,253.4h-3.2V251l1.6-1.1
				l1.6,1.1L169.4,253.4L169.4,253.4z M170.7,321h-6v-58.3l3-2.2l3,2.2V321z"/>
			<path class="st1" d="M126,327v-44.9l1.4-1.4h-1.5l0.9-1.3h-2.4c0,0,0.1-1.6-1.6-3.2l1.4-0.7h-0.8l0.6-0.9h-1.3l0.8-0.7
				c0,0-2.3-0.8-2.5-1.8c-0.2-0.9,0-1.8,0-1.8l0.7-0.6h-0.9l-0.2-3.3l-0.2,3.3h-0.9l0.7,0.6c0,0,0.2,0.8,0,1.8
				c-0.2,0.9-2.5,1.8-2.5,1.8l0.8,0.7h-1.3l0.6,0.9H117l1.4,0.7c-1.6,1.5-1.6,3.2-1.6,3.2h-2.4l0.9,1.3h-1.5l1.4,1.4V327h-1.7
				l1.4,1.4v8.1H126v-8.1l1.4-1.4H126z M120.6,272.5l0.9,1.8h-1.7L120.6,272.5z M123.2,327.3h-5.1v-42.4l2.6-1.9l2.6,1.9
				L123.2,327.3L123.2,327.3z M121.7,279.4h-2.2v-1.7l1.1-0.8l1.1,0.8V279.4z M122.7,325.8h-4.1v-40.1l2.1-1.5l2.1,1.5L122.7,325.8
				L122.7,325.8z"/>
			<path class="st7" d="M311,260.9h49.6v75.7H311V260.9z M354.3,266.2h4.2v-2.4l-2.1-1.1l-2.1,1.1V266.2z M354.3,270.4h4.2v-3.6
				h-4.2V270.4z M354.8,267.2h3.3v2.8h-3.3V267.2z M354.3,274.4h4.2v-3.6h-4.2V274.4z M354.8,271.2h3.3v2.8h-3.3V271.2z
				 M354.3,278.4h4.2v-3.6h-4.2V278.4z M354.8,275.2h3.3v2.8h-3.3V275.2z M354.3,282.5h4.2v-3.6h-4.2V282.5z M354.8,279.2h3.3v2.8
				h-3.3V279.2z M354.3,286.5h4.2v-3.6h-4.2V286.5z M354.8,283.3h3.3v2.8h-3.3V283.3z M354.3,290.5h4.2v-3.6h-4.2V290.5z
				 M354.8,287.3h3.3v2.8h-3.3V287.3z M354.3,294.5h4.2v-3.6h-4.2V294.5z M354.8,291.3h3.3v2.8h-3.3V291.3z M354.3,298.6h4.2V295
				h-4.2V298.6z M354.8,295.3h3.3v2.8h-3.3V295.3z M354.3,302.6h4.2V299h-4.2V302.6z M354.8,299.4h3.3v2.8h-3.3V299.4z M354.3,306.6
				h4.2V303h-4.2V306.6z M354.8,303.4h3.3v2.8h-3.3V303.4z M354.3,310.6h4.2V307h-4.2V310.6z M354.8,307.4h3.3v2.8h-3.3V307.4z
				 M354.3,314.7h4.2v-3.6h-4.2V314.7z M354.8,311.4h3.3v2.8h-3.3V311.4z M354.3,318.7h4.2v-3.6h-4.2V318.7z M354.8,315.5h3.3v2.8
				h-3.3V315.5z M349.8,266.2h4.2v-2.4l-2.1-1.1l-2.1,1.1V266.2z M349.8,270.4h4.2v-3.6h-4.2V270.4z M350.2,267.2h3.3v2.8h-3.3
				V267.2z M349.8,274.4h4.2v-3.6h-4.2V274.4z M350.2,271.2h3.3v2.8h-3.3V271.2z M349.8,278.4h4.2v-3.6h-4.2V278.4z M350.2,275.2
				h3.3v2.8h-3.3V275.2z M349.8,282.5h4.2v-3.6h-4.2V282.5z M350.2,279.2h3.3v2.8h-3.3V279.2z M349.8,286.5h4.2v-3.6h-4.2V286.5z
				 M350.2,283.3h3.3v2.8h-3.3V283.3z M349.8,290.5h4.2v-3.6h-4.2V290.5z M350.2,287.3h3.3v2.8h-3.3V287.3z M349.8,294.5h4.2v-3.6
				h-4.2V294.5z M350.2,291.3h3.3v2.8h-3.3V291.3z M349.8,298.6h4.2V295h-4.2V298.6z M350.2,295.3h3.3v2.8h-3.3V295.3z M349.8,302.6
				h4.2V299h-4.2V302.6z M350.2,299.4h3.3v2.8h-3.3V299.4z M349.8,306.6h4.2V303h-4.2V306.6z M350.2,303.4h3.3v2.8h-3.3V303.4z
				 M349.8,310.6h4.2V307h-4.2V310.6z M350.2,307.4h3.3v2.8h-3.3V307.4z M349.8,314.7h4.2v-3.6h-4.2V314.7z M350.2,311.4h3.3v2.8
				h-3.3V311.4z M349.8,318.7h4.2v-3.6h-4.2V318.7z M350.2,315.5h3.3v2.8h-3.3V315.5z M345.2,266.2h4.2v-2.4l-2.1-1.1l-2.1,1.1
				V266.2z M345.2,270.4h4.2v-3.6h-4.2V270.4z M345.7,267.2h3.3v2.8h-3.3V267.2z M345.2,274.4h4.2v-3.6h-4.2V274.4z M345.7,271.2
				h3.3v2.8h-3.3V271.2z M345.2,278.4h4.2v-3.6h-4.2V278.4z M345.7,275.2h3.3v2.8h-3.3V275.2z M345.2,282.5h4.2v-3.6h-4.2V282.5z
				 M345.7,279.2h3.3v2.8h-3.3V279.2z M345.2,286.5h4.2v-3.6h-4.2V286.5z M345.7,283.3h3.3v2.8h-3.3V283.3z M345.2,290.5h4.2v-3.6
				h-4.2V290.5z M345.7,287.3h3.3v2.8h-3.3V287.3z M345.2,294.5h4.2v-3.6h-4.2V294.5z M345.7,291.3h3.3v2.8h-3.3V291.3z
				 M345.2,298.6h4.2V295h-4.2V298.6z M345.7,295.3h3.3v2.8h-3.3V295.3z M345.2,302.6h4.2V299h-4.2V302.6z M345.7,299.4h3.3v2.8
				h-3.3V299.4z M345.2,306.6h4.2V303h-4.2V306.6z M345.7,303.4h3.3v2.8h-3.3V303.4z M345.2,310.6h4.2V307h-4.2V310.6z M345.7,307.4
				h3.3v2.8h-3.3V307.4z M345.2,314.7h4.2v-3.6h-4.2V314.7z M345.7,311.4h3.3v2.8h-3.3V311.4z M345.2,318.7h4.2v-3.6h-4.2V318.7z
				 M345.7,315.5h3.3v2.8h-3.3V315.5z M340.7,266.2h4.2v-2.4l-2.1-1.1l-2.1,1.1V266.2z M340.7,270.4h4.2v-3.6h-4.2V270.4z
				 M341.1,267.2h3.3v2.8h-3.3V267.2z M340.7,274.4h4.2v-3.6h-4.2V274.4z M341.1,271.2h3.3v2.8h-3.3V271.2z M340.7,278.4h4.2v-3.6
				h-4.2V278.4z M341.1,275.2h3.3v2.8h-3.3V275.2z M340.7,282.5h4.2v-3.6h-4.2V282.5z M341.1,279.2h3.3v2.8h-3.3V279.2z
				 M340.7,286.5h4.2v-3.6h-4.2V286.5z M341.1,283.3h3.3v2.8h-3.3V283.3z M340.7,290.5h4.2v-3.6h-4.2V290.5z M341.1,287.3h3.3v2.8
				h-3.3V287.3z M340.7,294.5h4.2v-3.6h-4.2V294.5z M341.1,291.3h3.3v2.8h-3.3V291.3z M340.7,298.6h4.2V295h-4.2V298.6z
				 M341.1,295.3h3.3v2.8h-3.3V295.3z M340.7,302.6h4.2V299h-4.2V302.6z M341.1,299.4h3.3v2.8h-3.3V299.4z M340.7,306.6h4.2V303
				h-4.2V306.6z M341.1,303.4h3.3v2.8h-3.3V303.4z M340.7,310.6h4.2V307h-4.2V310.6z M341.1,307.4h3.3v2.8h-3.3V307.4z M340.7,314.7
				h4.2v-3.6h-4.2V314.7z M341.1,311.4h3.3v2.8h-3.3V311.4z M340.7,318.7h4.2v-3.6h-4.2V318.7z M341.1,315.5h3.3v2.8h-3.3V315.5z
				 M336.1,266.2h4.2v-2.4l-2.1-1.1l-2.1,1.1V266.2z M336.1,270.4h4.2v-3.6h-4.2V270.4z M336.5,267.2h3.3v2.8h-3.3V267.2z
				 M336.1,274.4h4.2v-3.6h-4.2V274.4z M336.5,271.2h3.3v2.8h-3.3V271.2z M336.1,278.4h4.2v-3.6h-4.2V278.4z M336.5,275.2h3.3v2.8
				h-3.3V275.2z M336.1,282.5h4.2v-3.6h-4.2V282.5z M336.5,279.2h3.3v2.8h-3.3V279.2z M336.1,286.5h4.2v-3.6h-4.2V286.5z
				 M336.5,283.3h3.3v2.8h-3.3V283.3z M336.1,290.5h4.2v-3.6h-4.2V290.5z M336.5,287.3h3.3v2.8h-3.3V287.3z M336.1,294.5h4.2v-3.6
				h-4.2V294.5z M336.5,291.3h3.3v2.8h-3.3V291.3z M336.1,298.6h4.2V295h-4.2V298.6z M336.5,295.3h3.3v2.8h-3.3V295.3z M336.1,302.6
				h4.2V299h-4.2V302.6z M336.5,299.4h3.3v2.8h-3.3V299.4z M336.1,306.6h4.2V303h-4.2V306.6z M336.5,303.4h3.3v2.8h-3.3V303.4z
				 M336.1,310.6h4.2V307h-4.2V310.6z M336.5,307.4h3.3v2.8h-3.3V307.4z M336.1,314.7h4.2v-3.6h-4.2V314.7z M336.5,311.4h3.3v2.8
				h-3.3V311.4z M336.1,318.7h4.2v-3.6h-4.2V318.7z M336.5,315.5h3.3v2.8h-3.3V315.5z M331.5,266.2h4.2v-2.4l-2.1-1.1l-2.1,1.1
				V266.2z M331.5,270.4h4.2v-3.6h-4.2V270.4z M332,267.2h3.3v2.8H332V267.2z M331.5,274.4h4.2v-3.6h-4.2V274.4z M332,271.2h3.3v2.8
				H332V271.2z M331.5,278.4h4.2v-3.6h-4.2V278.4z M332,275.2h3.3v2.8H332V275.2z M331.5,282.5h4.2v-3.6h-4.2V282.5z M332,279.2h3.3
				v2.8H332V279.2z M331.5,286.5h4.2v-3.6h-4.2V286.5z M332,283.3h3.3v2.8H332V283.3z M331.5,290.5h4.2v-3.6h-4.2V290.5z M332,287.3
				h3.3v2.8H332V287.3z M331.5,294.5h4.2v-3.6h-4.2V294.5z M332,291.3h3.3v2.8H332V291.3z M331.5,298.6h4.2V295h-4.2V298.6z
				 M332,295.3h3.3v2.8H332V295.3z M331.5,302.6h4.2V299h-4.2V302.6z M332,299.4h3.3v2.8H332V299.4z M331.5,306.6h4.2V303h-4.2
				V306.6z M332,303.4h3.3v2.8H332V303.4z M331.5,310.6h4.2V307h-4.2V310.6z M332,307.4h3.3v2.8H332V307.4z M331.5,314.7h4.2v-3.6
				h-4.2V314.7z M332,311.4h3.3v2.8H332V311.4z M331.5,318.7h4.2v-3.6h-4.2V318.7z M332,315.5h3.3v2.8H332V315.5z M327,266.2h4.2
				v-2.4l-2.1-1.1l-2.1,1.1V266.2z M327,270.4h4.2v-3.6H327V270.4z M327.4,267.2h3.3v2.8h-3.3V267.2z M327,274.4h4.2v-3.6H327V274.4
				z M327.4,271.2h3.3v2.8h-3.3V271.2z M327,278.4h4.2v-3.6H327V278.4z M327.4,275.2h3.3v2.8h-3.3V275.2z M327,282.5h4.2v-3.6H327
				V282.5z M327.4,279.2h3.3v2.8h-3.3V279.2z M327,286.5h4.2v-3.6H327V286.5z M327.4,283.3h3.3v2.8h-3.3V283.3z M327,290.5h4.2v-3.6
				H327V290.5z M327.4,287.3h3.3v2.8h-3.3V287.3z M327,294.5h4.2v-3.6H327V294.5z M327.4,291.3h3.3v2.8h-3.3V291.3z M327,298.6h4.2
				V295H327V298.6z M327.4,295.3h3.3v2.8h-3.3V295.3z M327,302.6h4.2V299H327V302.6z M327.4,299.4h3.3v2.8h-3.3V299.4z M327,306.6
				h4.2V303H327V306.6z M327.4,303.4h3.3v2.8h-3.3V303.4z M327,310.6h4.2V307H327V310.6z M327.4,307.4h3.3v2.8h-3.3V307.4z
				 M327,314.7h4.2v-3.6H327V314.7z M327.4,311.4h3.3v2.8h-3.3V311.4z M327,318.7h4.2v-3.6H327V318.7z M327.4,315.5h3.3v2.8h-3.3
				V315.5z M322.4,266.2h4.2v-2.4l-2.1-1.1l-2.1,1.1V266.2z M322.4,270.4h4.2v-3.6h-4.2V270.4z M322.8,267.2h3.3v2.8h-3.3V267.2z
				 M322.4,274.4h4.2v-3.6h-4.2V274.4z M322.8,271.2h3.3v2.8h-3.3V271.2z M322.4,278.4h4.2v-3.6h-4.2V278.4z M322.8,275.2h3.3v2.8
				h-3.3V275.2z M322.4,282.5h4.2v-3.6h-4.2V282.5z M322.8,279.2h3.3v2.8h-3.3V279.2z M322.4,286.5h4.2v-3.6h-4.2V286.5z
				 M322.8,283.3h3.3v2.8h-3.3V283.3z M322.4,290.5h4.2v-3.6h-4.2V290.5z M322.8,287.3h3.3v2.8h-3.3V287.3z M322.4,294.5h4.2v-3.6
				h-4.2V294.5z M322.8,291.3h3.3v2.8h-3.3V291.3z M322.4,298.6h4.2V295h-4.2V298.6z M322.8,295.3h3.3v2.8h-3.3V295.3z M322.4,302.6
				h4.2V299h-4.2V302.6z M322.8,299.4h3.3v2.8h-3.3V299.4z M322.4,306.6h4.2V303h-4.2V306.6z M322.8,303.4h3.3v2.8h-3.3V303.4z
				 M322.4,310.6h4.2V307h-4.2V310.6z M322.8,307.4h3.3v2.8h-3.3V307.4z M322.4,314.7h4.2v-3.6h-4.2V314.7z M322.8,311.4h3.3v2.8
				h-3.3V311.4z M322.4,318.7h4.2v-3.6h-4.2V318.7z M322.8,315.5h3.3v2.8h-3.3V315.5z M317.8,266.2h4.2v-2.4l-2.1-1.1l-2.1,1.1
				V266.2z M317.8,270.4h4.2v-3.6h-4.2V270.4z M318.3,267.2h3.3v2.8h-3.3V267.2z M317.8,274.4h4.2v-3.6h-4.2V274.4z M318.3,271.2
				h3.3v2.8h-3.3V271.2z M317.8,278.4h4.2v-3.6h-4.2V278.4z M318.3,275.2h3.3v2.8h-3.3V275.2z M317.8,282.5h4.2v-3.6h-4.2V282.5z
				 M318.3,279.2h3.3v2.8h-3.3V279.2z M317.8,286.5h4.2v-3.6h-4.2V286.5z M318.3,283.3h3.3v2.8h-3.3V283.3z M317.8,290.5h4.2v-3.6
				h-4.2V290.5z M318.3,287.3h3.3v2.8h-3.3V287.3z M317.8,294.5h4.2v-3.6h-4.2V294.5z M318.3,291.3h3.3v2.8h-3.3V291.3z
				 M317.8,298.6h4.2V295h-4.2V298.6z M318.3,295.3h3.3v2.8h-3.3V295.3z M317.8,302.6h4.2V299h-4.2V302.6z M318.3,299.4h3.3v2.8
				h-3.3V299.4z M317.8,306.6h4.2V303h-4.2V306.6z M318.3,303.4h3.3v2.8h-3.3V303.4z M317.8,310.6h4.2V307h-4.2V310.6z M318.3,307.4
				h3.3v2.8h-3.3V307.4z M317.8,314.7h4.2v-3.6h-4.2V314.7z M318.3,311.4h3.3v2.8h-3.3V311.4z M317.8,318.7h4.2v-3.6h-4.2V318.7z
				 M318.3,315.5h3.3v2.8h-3.3V315.5z M313.3,266.2h4.2v-2.4l-2.1-1.1l-2.1,1.1V266.2z M313.3,270.4h4.2v-3.6h-4.2V270.4z
				 M313.7,267.2h3.3v2.8h-3.3V267.2z M313.3,274.4h4.2v-3.6h-4.2V274.4z M313.7,271.2h3.3v2.8h-3.3V271.2z M313.3,278.4h4.2v-3.6
				h-4.2V278.4z M313.7,275.2h3.3v2.8h-3.3V275.2z M313.3,282.5h4.2v-3.6h-4.2V282.5z M313.7,279.2h3.3v2.8h-3.3V279.2z
				 M313.3,286.5h4.2v-3.6h-4.2V286.5z M313.7,283.3h3.3v2.8h-3.3V283.3z M313.3,290.5h4.2v-3.6h-4.2V290.5z M313.7,287.3h3.3v2.8
				h-3.3V287.3z M313.3,294.5h4.2v-3.6h-4.2V294.5z M313.7,291.3h3.3v2.8h-3.3V291.3z M313.3,298.6h4.2V295h-4.2V298.6z
				 M313.7,295.3h3.3v2.8h-3.3V295.3z M313.3,302.6h4.2V299h-4.2V302.6z M313.7,299.4h3.3v2.8h-3.3V299.4z M313.3,306.6h4.2V303
				h-4.2V306.6z M313.7,303.4h3.3v2.8h-3.3V303.4z M313.3,310.6h4.2V307h-4.2V310.6z M313.7,307.4h3.3v2.8h-3.3V307.4z M313.3,314.7
				h4.2v-3.6h-4.2V314.7z M313.7,311.4h3.3v2.8h-3.3V311.4z M313.3,318.7h4.2v-3.6h-4.2V318.7z M313.7,315.5h3.3v2.8h-3.3V315.5z"/>
			<path class="st7" d="M376,284.2h34.4v52.4H376V284.2z M406,287.9h2.9v-1.7l-1.5-0.8l-1.5,0.8v1.7H406z M406,290.8h2.9v-2.5H406
				V290.8z M406.4,288.6h2.3v2h-2.3V288.6z M406,293.6h2.9v-2.5H406V293.6z M406.4,291.3h2.3v2h-2.3V291.3z M406,296.4h2.9v-2.5H406
				V296.4z M406.4,294.1h2.3v2h-2.3V294.1z M406,299.1h2.9v-2.5H406V299.1z M406.4,296.9h2.3v2h-2.3V296.9z M406,301.9h2.9v-2.5H406
				V301.9z M406.4,299.7h2.3v2h-2.3V299.7z M406,304.7h2.9v-2.5H406V304.7z M406.4,302.5h2.3v2h-2.3V302.5z M406,307.5h2.9V305H406
				V307.5z M406.4,305.3h2.3v2h-2.3V305.3z M406,310.3h2.9v-2.5H406V310.3z M406.4,308h2.3v2h-2.3V308z M406,313.1h2.9v-2.5H406
				V313.1z M406.4,310.8h2.3v2h-2.3V310.8z M406,315.8h2.9v-2.5H406V315.8z M406.4,313.6h2.3v2h-2.3V313.6z M406,318.6h2.9v-2.5H406
				V318.6z M406.4,316.4h2.3v2h-2.3V316.4z M406,321.4h2.9v-2.5H406V321.4z M406.4,319.2h2.3v2h-2.3V319.2z M406,324.2h2.9v-2.5H406
				V324.2z M406.4,322h2.3v2h-2.3V322z M402.9,287.9h2.9v-1.7l-1.5-0.8l-1.5,0.8v1.7H402.9z M402.9,290.8h2.9v-2.5h-2.9V290.8z
				 M403.2,288.6h2.3v2h-2.3V288.6z M402.9,293.6h2.9v-2.5h-2.9V293.6z M403.2,291.3h2.3v2h-2.3V291.3z M402.9,296.4h2.9v-2.5h-2.9
				V296.4z M403.2,294.1h2.3v2h-2.3V294.1z M402.9,299.1h2.9v-2.5h-2.9V299.1z M403.2,296.9h2.3v2h-2.3V296.9z M402.9,301.9h2.9
				v-2.5h-2.9V301.9z M403.2,299.7h2.3v2h-2.3V299.7z M402.9,304.7h2.9v-2.5h-2.9V304.7z M403.2,302.5h2.3v2h-2.3V302.5z
				 M402.9,307.5h2.9V305h-2.9V307.5z M403.2,305.3h2.3v2h-2.3V305.3z M402.9,310.3h2.9v-2.5h-2.9V310.3z M403.2,308h2.3v2h-2.3V308
				z M402.9,313.1h2.9v-2.5h-2.9V313.1z M403.2,310.8h2.3v2h-2.3V310.8z M402.9,315.8h2.9v-2.5h-2.9V315.8z M403.2,313.6h2.3v2h-2.3
				V313.6z M402.9,318.6h2.9v-2.5h-2.9V318.6z M403.2,316.4h2.3v2h-2.3V316.4z M402.9,321.4h2.9v-2.5h-2.9V321.4z M403.2,319.2h2.3
				v2h-2.3V319.2z M402.9,324.2h2.9v-2.5h-2.9V324.2z M403.2,322h2.3v2h-2.3V322z M399.7,287.9h2.9v-1.7l-1.5-0.8l-1.5,0.8v1.7
				H399.7z M399.7,290.8h2.9v-2.5h-2.9V290.8z M400,288.6h2.3v2H400V288.6z M399.7,293.6h2.9v-2.5h-2.9V293.6z M400,291.3h2.3v2H400
				V291.3z M399.7,296.4h2.9v-2.5h-2.9V296.4z M400,294.1h2.3v2H400V294.1z M399.7,299.1h2.9v-2.5h-2.9V299.1z M400,296.9h2.3v2H400
				V296.9z M399.7,301.9h2.9v-2.5h-2.9V301.9z M400,299.7h2.3v2H400V299.7z M399.7,304.7h2.9v-2.5h-2.9V304.7z M400,302.5h2.3v2H400
				V302.5z M399.7,307.5h2.9V305h-2.9V307.5z M400,305.3h2.3v2H400V305.3z M399.7,310.3h2.9v-2.5h-2.9V310.3z M400,308h2.3v2H400
				V308z M399.7,313.1h2.9v-2.5h-2.9V313.1z M400,310.8h2.3v2H400V310.8z M399.7,315.8h2.9v-2.5h-2.9V315.8z M400,313.6h2.3v2H400
				V313.6z M399.7,318.6h2.9v-2.5h-2.9V318.6z M400,316.4h2.3v2H400V316.4z M399.7,321.4h2.9v-2.5h-2.9V321.4z M400,319.2h2.3v2H400
				V319.2z M399.7,324.2h2.9v-2.5h-2.9V324.2z M400,322h2.3v2H400V322z M396.6,287.9h2.9v-1.7l-1.5-0.8l-1.5,0.8v1.7H396.6z
				 M396.6,290.8h2.9v-2.5h-2.9V290.8z M396.9,288.6h2.3v2h-2.3V288.6z M396.6,293.6h2.9v-2.5h-2.9V293.6z M396.9,291.3h2.3v2h-2.3
				V291.3z M396.6,296.4h2.9v-2.5h-2.9V296.4z M396.9,294.1h2.3v2h-2.3V294.1z M396.6,299.1h2.9v-2.5h-2.9V299.1z M396.9,296.9h2.3
				v2h-2.3V296.9z M396.6,301.9h2.9v-2.5h-2.9V301.9z M396.9,299.7h2.3v2h-2.3V299.7z M396.6,304.7h2.9v-2.5h-2.9V304.7z
				 M396.9,302.5h2.3v2h-2.3V302.5z M396.6,307.5h2.9V305h-2.9V307.5z M396.9,305.3h2.3v2h-2.3V305.3z M396.6,310.3h2.9v-2.5h-2.9
				V310.3z M396.9,308h2.3v2h-2.3V308z M396.6,313.1h2.9v-2.5h-2.9V313.1z M396.9,310.8h2.3v2h-2.3V310.8z M396.6,315.8h2.9v-2.5
				h-2.9V315.8z M396.9,313.6h2.3v2h-2.3V313.6z M396.6,318.6h2.9v-2.5h-2.9V318.6z M396.9,316.4h2.3v2h-2.3V316.4z M396.6,321.4
				h2.9v-2.5h-2.9V321.4z M396.9,319.2h2.3v2h-2.3V319.2z M396.6,324.2h2.9v-2.5h-2.9V324.2z M396.9,322h2.3v2h-2.3V322z
				 M393.4,287.9h2.9v-1.7l-1.5-0.8l-1.5,0.8v1.7H393.4z M393.4,290.8h2.9v-2.5h-2.9V290.8z M393.7,288.6h2.3v2h-2.3V288.6z
				 M393.4,293.6h2.9v-2.5h-2.9V293.6z M393.7,291.3h2.3v2h-2.3V291.3z M393.4,296.4h2.9v-2.5h-2.9V296.4z M393.7,294.1h2.3v2h-2.3
				V294.1z M393.4,299.1h2.9v-2.5h-2.9V299.1z M393.7,296.9h2.3v2h-2.3V296.9z M393.4,301.9h2.9v-2.5h-2.9V301.9z M393.7,299.7h2.3
				v2h-2.3V299.7z M393.4,304.7h2.9v-2.5h-2.9V304.7z M393.7,302.5h2.3v2h-2.3V302.5z M393.4,307.5h2.9V305h-2.9V307.5z
				 M393.7,305.3h2.3v2h-2.3V305.3z M393.4,310.3h2.9v-2.5h-2.9V310.3z M393.7,308h2.3v2h-2.3V308z M393.4,313.1h2.9v-2.5h-2.9
				V313.1z M393.7,310.8h2.3v2h-2.3V310.8z M393.4,315.8h2.9v-2.5h-2.9V315.8z M393.7,313.6h2.3v2h-2.3V313.6z M393.4,318.6h2.9
				v-2.5h-2.9V318.6z M393.7,316.4h2.3v2h-2.3V316.4z M393.4,321.4h2.9v-2.5h-2.9V321.4z M393.7,319.2h2.3v2h-2.3V319.2z
				 M393.4,324.2h2.9v-2.5h-2.9V324.2z M393.7,322h2.3v2h-2.3V322z M390.3,287.9h2.9v-1.7l-1.5-0.8l-1.5,0.8v1.7H390.3z
				 M390.3,290.8h2.9v-2.5h-2.9V290.8z M390.6,288.6h2.3v2h-2.3V288.6z M390.3,293.6h2.9v-2.5h-2.9V293.6z M390.6,291.3h2.3v2h-2.3
				V291.3z M390.3,296.4h2.9v-2.5h-2.9V296.4z M390.6,294.1h2.3v2h-2.3V294.1z M390.3,299.1h2.9v-2.5h-2.9V299.1z M390.6,296.9h2.3
				v2h-2.3V296.9z M390.3,301.9h2.9v-2.5h-2.9V301.9z M390.6,299.7h2.3v2h-2.3V299.7z M390.3,304.7h2.9v-2.5h-2.9V304.7z
				 M390.6,302.5h2.3v2h-2.3V302.5z M390.3,307.5h2.9V305h-2.9V307.5z M390.6,305.3h2.3v2h-2.3V305.3z M390.3,310.3h2.9v-2.5h-2.9
				V310.3z M390.6,308h2.3v2h-2.3V308z M390.3,313.1h2.9v-2.5h-2.9V313.1z M390.6,310.8h2.3v2h-2.3V310.8z M390.3,315.8h2.9v-2.5
				h-2.9V315.8z M390.6,313.6h2.3v2h-2.3V313.6z M390.3,318.6h2.9v-2.5h-2.9V318.6z M390.6,316.4h2.3v2h-2.3V316.4z M390.3,321.4
				h2.9v-2.5h-2.9V321.4z M390.6,319.2h2.3v2h-2.3V319.2z M390.3,324.2h2.9v-2.5h-2.9V324.2z M390.6,322h2.3v2h-2.3V322z
				 M387.1,287.9h2.9v-1.7l-1.5-0.8l-1.5,0.8v1.7H387.1z M387.1,290.8h2.9v-2.5h-2.9V290.8z M387.4,288.6h2.3v2h-2.3V288.6z
				 M387.1,293.6h2.9v-2.5h-2.9V293.6z M387.4,291.3h2.3v2h-2.3V291.3z M387.1,296.4h2.9v-2.5h-2.9V296.4z M387.4,294.1h2.3v2h-2.3
				V294.1z M387.1,299.1h2.9v-2.5h-2.9V299.1z M387.4,296.9h2.3v2h-2.3V296.9z M387.1,301.9h2.9v-2.5h-2.9V301.9z M387.4,299.7h2.3
				v2h-2.3V299.7z M387.1,304.7h2.9v-2.5h-2.9V304.7z M387.4,302.5h2.3v2h-2.3V302.5z M387.1,307.5h2.9V305h-2.9V307.5z
				 M387.4,305.3h2.3v2h-2.3V305.3z M387.1,310.3h2.9v-2.5h-2.9V310.3z M387.4,308h2.3v2h-2.3V308z M387.1,313.1h2.9v-2.5h-2.9
				V313.1z M387.4,310.8h2.3v2h-2.3V310.8z M387.1,315.8h2.9v-2.5h-2.9V315.8z M387.4,313.6h2.3v2h-2.3V313.6z M387.1,318.6h2.9
				v-2.5h-2.9V318.6z M387.4,316.4h2.3v2h-2.3V316.4z M387.1,321.4h2.9v-2.5h-2.9V321.4z M387.4,319.2h2.3v2h-2.3V319.2z
				 M387.1,324.2h2.9v-2.5h-2.9V324.2z M387.4,322h2.3v2h-2.3V322z M383.9,287.9h2.9v-1.7l-1.5-0.8l-1.5,0.8v1.7H383.9z
				 M383.9,290.8h2.9v-2.5h-2.9V290.8z M384.2,288.6h2.3v2h-2.3V288.6z M383.9,293.6h2.9v-2.5h-2.9V293.6z M384.2,291.3h2.3v2h-2.3
				V291.3z M383.9,296.4h2.9v-2.5h-2.9V296.4z M384.2,294.1h2.3v2h-2.3V294.1z M383.9,299.1h2.9v-2.5h-2.9V299.1z M384.2,296.9h2.3
				v2h-2.3V296.9z M383.9,301.9h2.9v-2.5h-2.9V301.9z M384.2,299.7h2.3v2h-2.3V299.7z M383.9,304.7h2.9v-2.5h-2.9V304.7z
				 M384.2,302.5h2.3v2h-2.3V302.5z M383.9,307.5h2.9V305h-2.9V307.5z M384.2,305.3h2.3v2h-2.3V305.3z M383.9,310.3h2.9v-2.5h-2.9
				V310.3z M384.2,308h2.3v2h-2.3V308z M383.9,313.1h2.9v-2.5h-2.9V313.1z M384.2,310.8h2.3v2h-2.3V310.8z M383.9,315.8h2.9v-2.5
				h-2.9V315.8z M384.2,313.6h2.3v2h-2.3V313.6z M383.9,318.6h2.9v-2.5h-2.9V318.6z M384.2,316.4h2.3v2h-2.3V316.4z M383.9,321.4
				h2.9v-2.5h-2.9V321.4z M384.2,319.2h2.3v2h-2.3V319.2z M383.9,324.2h2.9v-2.5h-2.9V324.2z M384.2,322h2.3v2h-2.3V322z
				 M380.8,287.9h2.9v-1.7l-1.5-0.8l-1.5,0.8v1.7H380.8z M380.8,290.8h2.9v-2.5h-2.9V290.8z M381.1,288.6h2.3v2h-2.3V288.6z
				 M380.8,293.6h2.9v-2.5h-2.9V293.6z M381.1,291.3h2.3v2h-2.3V291.3z M380.8,296.4h2.9v-2.5h-2.9V296.4z M381.1,294.1h2.3v2h-2.3
				V294.1z M380.8,299.1h2.9v-2.5h-2.9V299.1z M381.1,296.9h2.3v2h-2.3V296.9z M380.8,301.9h2.9v-2.5h-2.9V301.9z M381.1,299.7h2.3
				v2h-2.3V299.7z M380.8,304.7h2.9v-2.5h-2.9V304.7z M381.1,302.5h2.3v2h-2.3V302.5z M380.8,307.5h2.9V305h-2.9V307.5z
				 M381.1,305.3h2.3v2h-2.3V305.3z M380.8,310.3h2.9v-2.5h-2.9V310.3z M381.1,308h2.3v2h-2.3V308z M380.8,313.1h2.9v-2.5h-2.9
				V313.1z M381.1,310.8h2.3v2h-2.3V310.8z M380.8,315.8h2.9v-2.5h-2.9V315.8z M381.1,313.6h2.3v2h-2.3V313.6z M380.8,318.6h2.9
				v-2.5h-2.9V318.6z M381.1,316.4h2.3v2h-2.3V316.4z M380.8,321.4h2.9v-2.5h-2.9V321.4z M381.1,319.2h2.3v2h-2.3V319.2z
				 M380.8,324.2h2.9v-2.5h-2.9V324.2z M381.1,322h2.3v2h-2.3V322z M377.6,287.9h2.9v-1.7l-1.5-0.8l-1.5,0.8v1.7H377.6z
				 M377.6,290.8h2.9v-2.5h-2.9V290.8z M377.9,288.6h2.3v2h-2.3V288.6z M377.6,293.6h2.9v-2.5h-2.9V293.6z M377.9,291.3h2.3v2h-2.3
				V291.3z M377.6,296.4h2.9v-2.5h-2.9V296.4z M377.9,294.1h2.3v2h-2.3V294.1z M377.6,299.1h2.9v-2.5h-2.9V299.1z M377.9,296.9h2.3
				v2h-2.3V296.9z M377.6,301.9h2.9v-2.5h-2.9V301.9z M377.9,299.7h2.3v2h-2.3V299.7z M377.6,304.7h2.9v-2.5h-2.9V304.7z
				 M377.9,302.5h2.3v2h-2.3V302.5z M377.6,307.5h2.9V305h-2.9V307.5z M377.9,305.3h2.3v2h-2.3V305.3z M377.6,310.3h2.9v-2.5h-2.9
				V310.3z M377.9,308h2.3v2h-2.3V308z M377.6,313.1h2.9v-2.5h-2.9V313.1z M377.9,310.8h2.3v2h-2.3V310.8z M377.6,315.8h2.9v-2.5
				h-2.9V315.8z M377.9,313.6h2.3v2h-2.3V313.6z M377.6,318.6h2.9v-2.5h-2.9V318.6z M377.9,316.4h2.3v2h-2.3V316.4z M377.6,321.4
				h2.9v-2.5h-2.9V321.4z M377.9,319.2h2.3v2h-2.3V319.2z M377.6,324.2h2.9v-2.5h-2.9V324.2z M377.9,322h2.3v2h-2.3V322z"/>
			<path class="st1" d="M291.4,320.4l2.4,2.4v13.7h18.8v-13.7l2.4-2.4h-2.8v-76l2.4-2.3h-2.5l1.5-2.2h-4.1c0,0,0.1-2.8-2.6-5.4
				l2.5-1.3H308l1.1-1.6h-2.2l1.3-1.2c0,0-4-1.4-4.2-3c-0.3-1.6,0-3,0-3l1.2-1h-1.5l-0.3-5.6l-0.3,5.6h-1.5l1.2,1c0,0,0.3,1.4,0,3
				s-4.2,3-4.2,3l1.3,1.2h-2.2l1.1,1.6h-1.3l2.4,1.3c-2.8,2.6-2.6,5.4-2.6,5.4h-4.1l1.5,2.2h-2.5l2.3,2.3v76H291.4z M304.7,231.2
				h-2.9l1.5-3.1L304.7,231.2z M298.9,249.1l4.3-3.2l4.3,3.2v71.7h-8.7v-71.7H298.9z M301.4,237l1.9-1.3l1.9,1.3v2.8h-3.7L301.4,237
				L301.4,237z M299.8,250.5l3.5-2.6l3.5,2.6v67.9h-7V250.5z"/>
			<path class="st1" d="M358.2,322.7l2.1,2.1v11.8h16.2v-11.8l2.1-2.1h-2.4v-65.3l2-2H376l1.3-1.9h-3.6c0,0,0.1-2.4-2.3-4.6l2.1-1.1
				h-1.1l0.9-1.4h-1.9l1.1-1c0,0-3.4-1.2-3.6-2.6c-0.2-1.4,0-2.6,0-2.6l1-0.9h-1.3l-0.3-4.9l-0.3,4.9h-1.3l1,0.9c0,0,0.2,1.2,0,2.6
				c-0.2,1.4-3.6,2.6-3.6,2.6l1.1,1h-1.9l0.9,1.4h-1.1l2.1,1.1c-2.4,2.2-2.3,4.6-2.3,4.6h-3.5l1.3,1.9h-2.2l2,2v65.3H358.2z
				 M369.6,246h-2.5l1.3-2.6L369.6,246z M364.7,261.4l3.7-2.7l3.7,2.7V323h-7.4L364.7,261.4L364.7,261.4z M366.8,251l1.6-1.1
				l1.6,1.1v2.4h-3.2V251z M365.4,262.6l3-2.2l3,2.2V321h-6V262.6z"/>
			<path class="st1" d="M408.5,327l1.5,1.4v8.1h11.1v-8.1l1.4-1.4h-1.7v-44.9l1.4-1.4h-1.5l0.9-1.3h-2.4c0,0,0.1-1.6-1.6-3.2
				l1.4-0.7h-0.8l0.6-0.9h-1.3l0.8-0.7c0,0-2.3-0.8-2.5-1.8c-0.2-0.9,0-1.8,0-1.8l0.7-0.6h-0.9l-0.2-3.3l-0.2,3.3h-0.9l0.7,0.6
				c0,0,0.2,0.8,0,1.8c-0.2,0.9-2.5,1.8-2.5,1.8l0.8,0.7H412l0.6,0.9h-0.8l1.4,0.7c-1.6,1.5-1.6,3.2-1.6,3.2h-2.4l0.9,1.3h-1.5
				l1.4,1.4V327H408.5z M416.4,274.3h-1.7l0.9-1.8L416.4,274.3z M412.9,284.9l2.6-1.9l2.6,1.9v42.4H413v-42.4H412.9z M414.4,277.7
				l1.1-0.8l1.1,0.8v1.7h-2.2V277.7z M413.4,285.7l2.1-1.5l2.1,1.5v40.1h-4.1v-40.1H413.4z"/>
		</g>
	</g>
</g>
</svg>
