<svg width="24" height="24" viewBox="0 0 24 24" fill="none" xmlns="http://www.w3.org/2000/svg">
<g clip-path="url(#clip0_166_238)">
<path d="M20.717 13.06C20.9979 12.7788 21.1557 12.3975 21.1557 12C21.1557 11.6025 20.9979 11.2213 20.717 10.94L15.061 5.28103C14.7796 4.99964 14.398 4.84155 14 4.84155C13.6021 4.84155 13.2204 4.99964 12.939 5.28103C12.6576 5.56243 12.4995 5.94408 12.4995 6.34203C12.4995 6.73999 12.6576 7.12164 12.939 7.40303L16.035 10.5L4.50002 10.5C4.1022 10.5 3.72067 10.6581 3.43936 10.9394C3.15806 11.2207 3.00002 11.6022 3.00002 12C3.00002 12.3979 3.15806 12.7794 3.43936 13.0607C3.72067 13.342 4.1022 13.5 4.50002 13.5L16.035 13.5L12.939 16.596C12.7997 16.7354 12.6892 16.9008 12.6138 17.0828C12.5384 17.2649 12.4995 17.46 12.4995 17.657C12.4995 17.8541 12.5384 18.0492 12.6138 18.2312C12.6892 18.4133 12.7997 18.5787 12.939 18.718C13.0784 18.8574 13.2438 18.9679 13.4258 19.0433C13.6079 19.1187 13.803 19.1575 14 19.1575C14.1971 19.1575 14.3922 19.1187 14.5742 19.0433C14.7563 18.9679 14.9217 18.8574 15.061 18.718L20.717 13.06Z" fill="white"/>
</g>
<defs>
<clipPath id="clip0_166_238">
<rect width="24" height="24" fill="white" transform="matrix(0 1 -1 0 24 0)"/>
</clipPath>
</defs>
</svg>
