<svg width="31" height="31" viewBox="0 0 31 31" fill="none" xmlns="http://www.w3.org/2000/svg">
<path d="M19.1845 4.36147L26.3339 11.5103C28.6169 9.23954 28.7076 6.35931 26.5149 4.1799C24.3355 2.02651 21.4553 2.07799 19.1845 4.36147ZM17.8875 5.67178C16.5119 7.02139 15.9412 8.5653 16.1355 10.0572L4.08257 23.044C3.58989 23.5765 3.51183 24.3161 4.12132 24.9261L2.4606 27.0668C2.29232 27.2738 2.29232 27.5727 2.52592 27.8058L2.90235 28.1955C3.12267 28.4158 3.42105 28.4291 3.65466 28.247L5.79532 26.5735C6.37933 27.1836 7.13164 27.105 7.65033 26.6123L14.3712 20.3846V27.793C14.3712 28.4546 14.9027 28.9738 15.5647 28.9738C15.7203 28.9755 15.8746 28.9461 16.0186 28.8874C16.1626 28.8287 16.2935 28.7418 16.4035 28.6318C16.5135 28.5218 16.6004 28.3909 16.6591 28.2469C16.7178 28.1029 16.7472 27.9486 16.7455 27.793V20.125L16.6547 18.27L20.6117 14.5981C22.1041 14.793 23.674 14.1829 25.0236 12.8212L17.8875 5.67178ZM5.40616 24.1085L16.8496 11.9908C17.0699 12.3534 17.3423 12.7038 17.6667 13.0415C17.9755 13.355 18.3144 13.6374 18.6786 13.8846L6.61239 25.302L5.40616 24.1085Z" fill="black"/>
</svg>
