<?xml version="1.0" standalone="no"?>
<!DOCTYPE svg PUBLIC "-//W3C//DTD SVG 20010904//EN"
 "http://www.w3.org/TR/2001/REC-SVG-20010904/DTD/svg10.dtd">
<svg version="1.0" xmlns="http://www.w3.org/2000/svg"
 width="2400.000000pt" height="2400.000000pt" viewBox="0 0 2400.000000 2400.000000"
 preserveAspectRatio="xMidYMid meet">
<metadata>
Created by potrace 1.14, written by Peter Selinger 2001-2017
</metadata>
<g transform="translate(0.000000,2400.000000) scale(0.100000,-0.100000)"
fill="#000000" stroke="none">
<path d="M14577 15234 c-1 -1 -45 -4 -97 -8 -52 -3 -108 -9 -125 -12 -16 -3
-46 -7 -65 -9 -19 -2 -35 -4 -35 -5 0 -1 -13 -4 -30 -6 -50 -8 -196 -55 -260
-84 -132 -60 -269 -132 -285 -150 -3 -3 -21 -14 -40 -24 -19 -11 -40 -25 -47
-30 -7 -6 -33 -27 -59 -46 -57 -42 -237 -219 -279 -274 -17 -21 -36 -45 -42
-52 -7 -7 -13 -17 -13 -23 0 -6 -3 -11 -7 -11 -5 0 -17 -15 -28 -32 -11 -18
-28 -44 -37 -58 -9 -14 -26 -42 -37 -62 -11 -20 -26 -46 -33 -57 -22 -35 -2
-33 37 4 21 19 41 35 45 35 4 0 20 11 36 25 35 31 45 38 64 50 13 8 13 7 1 -8
-13 -17 -146 -121 -179 -142 -38 -23 -46 -37 -97 -160 -16 -38 -54 -156 -59
-181 -2 -10 -9 -37 -15 -59 -6 -22 -13 -58 -16 -80 -4 -22 -8 -53 -11 -70 -13
-87 -19 -342 -10 -405 3 -14 7 -50 11 -80 9 -82 55 -267 82 -330 3 -8 7 -17 7
-20 1 -3 7 -14 13 -25 6 -11 12 -23 13 -27 3 -16 61 -136 94 -195 61 -109 166
-254 252 -348 49 -53 50 -47 -28 -128 -96 -100 -148 -158 -148 -166 0 -4 -8
-14 -17 -23 -22 -20 -26 -26 -80 -105 -24 -33 -43 -66 -43 -72 0 -6 -3 -11 -8
-11 -4 0 -16 -17 -27 -37 -11 -21 -22 -40 -26 -43 -8 -8 -79 -158 -79 -169 0
-5 18 -24 40 -41 23 -18 38 -35 35 -39 -4 -3 -12 1 -18 10 -7 9 -26 23 -43 32
l-31 16 -29 -82 c-16 -45 -29 -84 -29 -87 -1 -3 -7 -23 -13 -45 -10 -35 -10
-42 6 -54 15 -12 15 -13 0 -8 -12 4 -19 -2 -27 -26 -12 -36 -20 -77 -26 -122
-2 -16 -6 -43 -9 -60 -13 -66 -20 -165 -19 -255 1 -171 -2 -158 41 -166 57
-10 69 -20 36 -29 -16 -4 -38 -8 -49 -9 -21 -1 -21 -2 -11 -85 10 -85 17 -126
26 -161 5 -19 12 -50 15 -69 3 -19 10 -42 16 -52 5 -11 7 -19 4 -19 -3 0 1
-15 8 -32 8 -18 15 -37 16 -43 7 -34 16 -64 30 -95 8 -19 15 -37 16 -40 0 -3
6 -15 13 -27 7 -13 11 -23 8 -23 -10 0 89 -179 148 -269 95 -144 166 -232 271
-334 79 -78 233 -196 254 -197 8 0 11 3 8 7 -8 7 11 33 24 33 5 0 4 -12 -1
-26 -6 -14 -8 -30 -5 -35 9 -13 159 -100 238 -138 114 -53 329 -120 442 -136
22 -4 51 -8 65 -11 125 -24 464 -23 580 1 13 2 42 7 65 10 22 4 56 10 75 15
19 5 44 11 55 13 11 2 40 9 65 16 25 8 50 14 55 15 37 7 101 31 188 70 32 14
64 26 71 26 7 0 19 7 26 15 7 8 17 15 22 15 18 0 153 85 243 152 115 87 150
120 259 248 50 58 99 114 110 126 12 11 32 35 45 53 14 17 36 44 50 60 14 15
41 44 59 64 l33 37 52 -42 c28 -24 56 -48 62 -54 5 -6 42 -37 80 -70 39 -32
72 -61 75 -64 3 -3 37 -32 75 -64 39 -33 75 -65 80 -70 6 -6 53 -47 105 -91
52 -44 110 -94 130 -112 44 -40 72 -64 135 -116 27 -23 56 -49 65 -57 104
-101 258 -199 336 -215 21 -5 46 -10 54 -12 84 -19 266 0 354 38 69 29 146 81
139 92 -3 6 -1 7 5 3 21 -13 137 116 177 196 54 110 69 179 69 313 0 92 -6
133 -25 182 -6 15 -12 35 -14 43 -9 44 -135 228 -157 230 -4 0 -20 12 -36 28
-16 15 -47 41 -68 59 -21 17 -53 44 -71 60 -36 31 -78 66 -198 168 -44 37
-104 88 -134 113 -29 26 -65 56 -79 67 -14 11 -35 29 -46 40 -98 92 -151 129
-180 128 -17 -1 -23 1 -13 4 25 7 21 17 -15 46 -18 14 -49 39 -68 56 -19 17
-38 31 -42 31 -14 0 -8 26 10 46 10 10 51 57 92 104 41 47 91 102 110 124 66
72 75 82 140 156 36 41 79 89 96 107 17 18 42 47 55 65 13 17 29 36 35 42 27
28 93 170 99 212 2 16 4 29 5 29 7 0 14 67 13 145 -1 214 -90 385 -262 502
-25 17 -48 34 -51 38 -9 11 -103 52 -140 62 -74 19 -223 26 -280 14 -14 -3
-37 -8 -53 -12 -17 -3 -33 -17 -43 -36 -8 -16 -18 -28 -21 -25 -2 3 0 15 7 27
11 21 11 21 -27 5 -91 -38 -148 -87 -314 -270 -35 -38 -67 -71 -71 -73 -4 -2
-8 -8 -8 -12 0 -5 -12 -22 -27 -38 -33 -33 -94 -101 -178 -196 -33 -38 -75
-84 -92 -103 -18 -19 -33 -38 -33 -43 0 -24 -32 -12 -76 28 -27 26 -76 70
-109 97 -33 28 -69 59 -80 71 -11 11 -28 18 -39 16 -12 -3 -16 0 -11 8 4 7
-10 27 -36 51 -36 33 -45 37 -48 23 -4 -20 -31 -51 -31 -35 0 5 5 13 10 16 22
14 9 51 -28 82 -20 17 -55 47 -76 67 -48 43 -50 40 89 144 101 76 111 85 177
161 93 106 218 285 218 311 0 4 8 18 18 31 42 56 141 321 157 419 3 19 8 42
10 50 2 8 7 38 10 65 4 28 9 58 11 67 4 13 1 16 -10 12 -13 -5 -86 30 -86 41
0 2 21 -2 48 -10 26 -8 47 -15 48 -15 0 0 1 19 3 42 1 23 4 45 7 49 2 4 0 10
-6 14 -6 4 -7 12 -3 18 4 7 8 22 9 35 1 18 -4 22 -27 22 -15 0 -30 4 -33 9 -4
5 2 7 13 4 18 -4 55 32 47 46 -2 3 -7 38 -10 76 -4 39 -12 97 -17 129 -6 33
-11 68 -12 78 -1 21 -17 25 -17 4 0 -18 -48 -76 -63 -76 -6 0 -1 10 10 23 31
34 57 111 48 144 -5 15 -9 33 -11 40 -3 19 -44 145 -54 168 -4 11 -16 40 -25
65 -22 61 -119 242 -166 311 -98 146 -273 343 -296 335 -14 -6 -43 25 -43 47
0 9 -3 17 -7 17 -5 0 -22 13 -39 28 -18 15 -42 34 -54 42 -12 8 -28 21 -36 28
-7 6 -15 12 -19 12 -3 0 -29 16 -57 35 -61 43 -237 129 -271 134 -4 0 -20 7
-36 15 -15 8 -39 18 -52 21 -13 3 -58 14 -99 26 -41 11 -93 22 -114 25 -22 2
-45 5 -52 8 -23 9 -328 27 -337 20z m223 -188 c0 -2 -8 -10 -17 -17 -16 -13
-17 -12 -4 4 13 16 21 21 21 13z m-895 -126 c8 -13 -5 -13 -25 0 -13 8 -13 10
2 10 9 0 20 -4 23 -10z m1035 -21 c0 -16 -4 -28 -9 -25 -5 4 -8 14 -6 24 2 9
4 20 4 25 1 4 3 7 6 7 3 0 5 -14 5 -31z m-202 -99 c-11 -41 -30 -57 -23 -19 7
38 16 59 25 59 4 0 3 -18 -2 -40z m408 -87 c-3 -4 -13 10 -21 30 -21 51 -18
59 6 14 11 -22 18 -41 15 -44z m-881 -44 l-14 -64 4 70 c2 39 5 72 5 75 0 2 5
-1 10 -6 7 -7 5 -31 -5 -75z m1239 -131 c-4 -6 -10 -5 -15 3 -14 22 -10 33 6
19 8 -7 12 -17 9 -22z m-1234 -32 c-5 -5 -17 -11 -25 -12 -12 -2 -13 1 -3 19
7 12 11 27 10 32 -1 6 5 1 13 -9 10 -13 12 -23 5 -30z m508 -76 c-7 -10 -14
-17 -17 -15 -4 4 18 35 25 35 2 0 -1 -9 -8 -20z m-648 -30 c0 -5 -5 -10 -11
-10 -5 0 -7 5 -4 10 3 6 8 10 11 10 2 0 4 -4 4 -10z m2 -37 c2 -10 -1 -36 -8
-58 l-12 -40 -1 58 c-1 54 12 78 21 40z m1093 -49 c-14 -48 -33 -78 -21 -34 3
14 9 37 12 53 4 15 10 27 15 27 4 0 2 -21 -6 -46z m313 8 c8 -6 2 -9 -18 -9
-16 0 -30 4 -30 9 0 10 31 10 48 0z m-1012 -93 c-8 -52 -16 -45 -16 12 1 42 3
50 11 36 6 -9 8 -31 5 -48z m934 51 c0 -5 -4 -10 -10 -10 -5 0 -10 5 -10 10 0
6 5 10 10 10 6 0 10 -4 10 -10z m-1780 -40 c0 -11 -4 -20 -9 -20 -5 0 -7 9 -4
20 3 11 7 20 9 20 2 0 4 -9 4 -20z m2480 -1 c0 -23 -26 -48 -49 -49 -8 0 -2
10 14 24 15 13 24 29 21 35 -4 6 -2 11 3 11 6 0 11 -10 11 -21z m-2028 -41 c2
-13 4 -57 3 -98 -1 -61 -5 -83 -24 -114 -34 -54 -72 -90 -81 -77 -3 7 -19 14
-33 17 -29 5 -39 -9 -51 -67 -3 -14 -22 -43 -42 -64 -19 -21 -44 -60 -55 -87
-10 -26 -31 -72 -46 -101 -15 -28 -26 -55 -25 -59 1 -5 -2 -8 -8 -8 -5 0 -7
-7 -4 -15 4 -8 1 -15 -5 -15 -6 0 -8 -6 -5 -14 3 -7 -6 -20 -20 -30 -14 -9
-33 -31 -42 -49 -25 -48 -72 -87 -99 -81 -32 6 -55 18 -53 26 2 5 6 8 8 7 7
-4 70 34 70 42 0 4 23 34 50 67 28 33 50 65 50 71 0 6 4 11 8 11 5 0 34 53 66
118 104 210 146 264 213 277 26 4 50 20 79 50 40 41 41 45 38 101 -1 33 -5 71
-8 87 -2 15 -1 27 3 27 5 0 11 -10 13 -22z m602 -24 c-5 -29 -2 -36 14 -41 15
-4 20 -14 20 -43 0 -22 5 -48 11 -58 12 -22 5 -33 -15 -25 -7 3 -16 19 -19 36
-3 18 -7 43 -9 57 -2 14 -7 33 -11 43 -7 17 1 67 10 67 3 0 2 -16 -1 -36z
m450 -12 c-4 -23 -10 -39 -15 -36 -9 5 -6 35 6 67 12 29 16 13 9 -31z m882 9
c-3 -5 -16 -11 -28 -14 -22 -6 -22 -5 -4 8 22 17 40 20 32 6z m-2801 -32 c-2
-12 -9 -27 -16 -35 -6 -8 -9 -14 -5 -14 4 0 -1 -15 -11 -32 -9 -18 -17 -36
-18 -39 0 -7 -32 -39 -39 -39 -3 0 2 12 10 28 7 15 14 31 14 35 0 5 9 22 21
38 11 16 22 35 23 42 2 14 15 37 21 37 2 0 2 -9 0 -21z m2735 1 c-19 -13 -30
-13 -30 0 0 6 10 10 23 10 18 0 19 -2 7 -10z m-810 -135 c0 -16 -6 -25 -15
-25 -18 0 -18 5 -5 31 14 26 20 24 20 -6z m-466 -30 c69 -9 180 -70 248 -138
78 -76 91 -93 123 -158 l26 -50 30 38 c37 46 49 57 26 23 -46 -68 -49 -79 -37
-132 8 -30 10 -86 8 -138 -5 -75 -11 -100 -41 -162 -45 -94 -145 -201 -209
-224 -10 -3 -18 -10 -18 -15 0 -5 -3 -8 -7 -7 -5 1 -21 -4 -38 -11 -16 -7 -40
-15 -52 -17 -12 -2 -33 -8 -45 -13 -32 -12 -219 -6 -265 8 -2 1 -4 1 -5 0 -2
0 -28 12 -58 27 -58 29 -135 102 -178 168 -15 23 -30 43 -33 46 -9 7 -49 100
-57 130 -14 54 -7 214 13 275 10 33 22 62 25 65 13 10 30 49 31 72 0 13 3 17
6 10 3 -8 14 -1 31 21 34 43 96 97 111 97 6 0 11 4 11 8 0 16 112 64 179 76
63 12 88 12 175 1z m-597 -73 c-8 -9 -17 -29 -21 -44 -8 -35 -27 -37 -24 -3 1
14 5 25 8 25 3 0 14 14 25 32 11 19 20 27 23 20 2 -7 -3 -21 -11 -30z m-1167
4 c0 -3 -4 -8 -10 -11 -5 -3 -10 -1 -10 4 0 6 5 11 10 11 6 0 10 -2 10 -4z
m360 -44 c0 -15 -2 -15 -10 -2 -13 20 -13 33 0 25 6 -3 10 -14 10 -23z m-150
-131 c0 -5 -9 -7 -20 -4 -11 3 -20 7 -20 9 0 2 9 4 20 4 11 0 20 -4 20 -9z
m47 3 c-3 -3 -12 -4 -19 -1 -8 3 -5 6 6 6 11 1 17 -2 13 -5z m204 -31 c-8 -15
-10 -15 -11 -2 0 17 10 32 18 25 2 -3 -1 -13 -7 -23z m-86 -51 c-9 -9 -35 8
-35 24 0 16 2 16 20 -1 11 -10 18 -20 15 -23z m2194 -46 c-2 -2 -31 -17 -64
-34 -33 -17 -50 -24 -37 -14 12 9 39 30 59 45 23 17 39 24 41 17 2 -6 2 -12 1
-14z m-2138 -19 c-10 -9 -11 -8 -5 6 3 10 9 15 12 12 3 -3 0 -11 -7 -18z
m1819 -52 c0 -1 -6 -8 -14 -15 -12 -9 -15 -8 -13 8 0 12 6 18 14 15 7 -3 13
-6 13 -8z m893 4 c-4 -4 -19 -10 -33 -13 -23 -6 -23 -6 -8 7 17 14 56 20 41 6z
m60 4 c-7 -2 -21 -2 -30 0 -10 3 -4 5 12 5 17 0 24 -2 18 -5z m-346 -65 c-17
-6 -32 -7 -38 -1 -5 5 6 10 29 10 37 2 37 2 9 -9z m-407 -178 c0 -5 -4 -10
-10 -10 -5 0 -10 5 -10 10 0 6 5 10 10 10 6 0 10 -4 10 -10z m568 -45 c-2 -2
-40 -6 -83 -9 -44 -2 -97 -11 -117 -20 -46 -20 -52 -20 -36 -2 7 8 15 12 17
10 2 -2 12 1 23 7 24 13 62 21 110 23 20 1 40 5 44 8 4 4 15 3 26 -3 11 -6 18
-12 16 -14z m187 -5 c-10 -16 -65 -42 -99 -47 -30 -4 -30 -3 11 21 54 31 100
45 88 26z m-459 -47 c-2 -3 -21 -5 -40 -5 -20 0 -39 -4 -42 -9 -3 -5 -11 -9
-17 -9 -7 1 -2 9 9 18 15 13 33 17 58 14 21 -2 35 -6 32 -9z m-291 -15 c6 -15
18 -23 33 -22 25 1 30 -14 6 -23 -9 -3 -20 0 -24 7 -6 10 -24 -1 -68 -41 -33
-30 -81 -62 -107 -71 -37 -14 -45 -15 -36 -4 7 8 25 18 41 21 37 8 105 76 121
120 15 41 21 43 34 13z m661 -43 c-19 -14 -56 -21 -56 -10 0 4 53 22 70 24 3
0 -4 -6 -14 -14z m-2346 -71 c0 -7 -6 -11 -14 -8 -8 3 -14 14 -13 24 1 14 4
16 14 8 7 -6 13 -17 13 -24z m-126 -103 c-10 -28 -19 -49 -21 -47 -3 3 1 22 7
43 7 21 15 44 17 52 2 8 6 12 8 9 3 -3 -2 -28 -11 -57z m2213 43 c-3 -3 -12
-4 -19 -1 -8 3 -5 6 6 6 11 1 17 -2 13 -5z m76 -33 c3 -14 1 -18 -9 -14 -15 6
-18 16 -7 26 9 10 10 9 16 -12z m-99 -30 c3 -5 -3 -11 -15 -14 -16 -4 -18 -3
-8 9 13 16 16 17 23 5z m-1139 -41 c-9 -10 -15 -26 -12 -33 4 -11 0 -13 -13
-10 -31 8 -29 36 5 54 37 19 44 15 20 -11z m1405 -20 c0 -5 -7 -10 -15 -10 -8
0 -15 5 -15 10 0 6 7 10 15 10 8 0 15 -4 15 -10z m-955 -20 c3 -5 1 -10 -4
-10 -6 0 -11 5 -11 10 0 6 2 10 4 10 3 0 8 -4 11 -10z m1170 -50 c-10 -11 -29
-19 -44 -19 l-26 2 27 4 c14 2 32 11 38 19 7 8 15 14 18 14 3 0 -3 -9 -13 -20z
m-138 -4 c27 -5 21 -13 -8 -12 -18 1 -34 7 -37 15 -3 10 0 12 14 7 11 -5 24
-9 31 -10z m-1058 -26 c-6 -5 -8 -13 -4 -20 5 -9 4 -11 -3 -6 -7 4 -12 19 -12
33 0 22 2 24 15 13 12 -10 13 -15 4 -20z m-529 -30 c0 -5 -5 -10 -11 -10 -5 0
-7 5 -4 10 3 6 8 10 11 10 2 0 4 -4 4 -10z m773 -31 c-6 -6 -9 -19 -6 -28 5
-12 3 -13 -6 -5 -10 9 -10 17 -2 32 6 10 9 22 7 24 -1 3 2 2 8 -3 7 -6 7 -12
-1 -20z m147 -50 c0 -5 -4 -9 -10 -9 -5 0 -10 4 -10 9 0 5 -12 11 -27 13 -29
3 -40 25 -29 55 5 12 14 8 41 -21 19 -21 35 -42 35 -47z m-1032 21 c-12 -19
-28 -27 -28 -14 0 6 30 33 38 34 1 0 -3 -9 -10 -20z m1532 6 c0 -8 -7 -16 -15
-20 -10 -4 -15 1 -15 14 0 11 7 20 15 20 8 0 15 -6 15 -14z m-320 -5 c0 -11
-52 -21 -65 -13 -5 4 6 10 25 13 19 4 36 7 38 8 1 0 2 -3 2 -8z m155 -19 c-3
-3 -11 0 -18 7 -9 10 -8 11 6 5 10 -3 15 -9 12 -12z m-625 -12 c-6 -11 -12
-20 -14 -20 -3 0 -1 23 3 38 1 1 6 2 11 2 7 0 7 -6 0 -20z m-1036 -96 c3 -8 2
-12 -4 -9 -6 3 -10 10 -10 16 0 14 7 11 14 -7z m-268 -15 c3 -5 -8 -9 -25 -9
-22 0 -29 4 -25 14 5 14 40 11 50 -5z m-286 -19 c0 -3 -9 -11 -20 -18 -12 -7
-18 -17 -15 -22 3 -6 2 -10 -3 -10 -16 0 -23 31 -12 46 11 12 50 16 50 4z
m1925 -41 c94 -9 85 -7 85 -18 0 -15 -39 -20 -78 -8 -51 15 -54 15 -83 0 -23
-10 -29 -10 -39 2 -17 21 -5 49 18 39 9 -4 53 -11 97 -15z m385 -59 c8 -15 8
-18 -3 -14 -8 3 -14 11 -14 19 0 20 4 19 17 -5z m-1839 -27 c-5 -16 -22 -50
-39 -76 -21 -34 -29 -56 -26 -77 5 -30 -8 -46 -27 -34 -8 5 -7 10 4 16 9 5 14
15 11 23 -4 8 11 51 32 95 37 79 60 106 45 53z m1613 -42 c-5 -5 -64 56 -64
67 0 3 16 -9 35 -28 19 -18 32 -36 29 -39z m-1297 36 c-3 -8 -15 -17 -27 -20
-21 -5 -21 -5 2 17 25 24 34 25 25 3z m-984 -17 c3 -12 0 -20 -7 -20 -6 0 -12
9 -12 20 0 11 3 20 7 20 4 0 9 -9 12 -20z m166 -31 c-12 -24 -14 -24 -38 0
-24 24 -20 29 19 23 25 -4 28 -7 19 -23z m1091 7 c0 -3 -4 -8 -10 -11 -5 -3
-10 -1 -10 4 0 6 5 11 10 11 6 0 10 -2 10 -4z m1267 -64 c-10 -10 -14 -22 -10
-27 5 -4 2 -5 -4 -1 -19 10 -16 34 5 39 9 3 19 5 21 6 2 0 -3 -7 -12 -17z
m-705 -17 c-4 -24 -5 -24 -17 -8 -15 20 -11 33 9 33 9 0 12 -9 8 -25z m-828
-86 c2 -32 -1 -59 -6 -59 -4 0 -8 10 -9 23 -5 113 -4 126 4 111 5 -8 10 -42
11 -75z m871 81 c3 -5 2 -10 -4 -10 -5 0 -13 5 -16 10 -3 6 -2 10 4 10 5 0 13
-4 16 -10z m335 6 c0 -3 -4 -8 -10 -11 -5 -3 -10 -1 -10 4 0 6 5 11 10 11 6 0
10 -2 10 -4z m-35 -59 c-3 -11 -10 -24 -17 -29 -24 -15 -29 -8 -12 17 8 13 13
29 9 34 -3 6 0 8 9 5 8 -3 13 -14 11 -27z m-1647 -57 c-11 -41 -15 -45 -35
-32 -9 6 -7 16 10 40 30 42 37 40 25 -8z m1312 36 c0 -3 -4 -8 -10 -11 -5 -3
-10 -1 -10 4 0 6 5 11 10 11 6 0 10 -2 10 -4z m630 0 c0 -2 -7 -6 -15 -10 -8
-3 -15 -1 -15 4 0 6 7 10 15 10 8 0 15 -2 15 -4z m-2453 -98 c6 -9 5 -21 -3
-38 -14 -25 -13 -26 -28 24 -8 25 15 35 31 14z m1983 -22 c0 -8 -4 -18 -10
-21 -5 -3 -10 -4 -10 -1 0 2 -3 11 -6 20 -4 11 -1 16 10 16 9 0 16 -6 16 -14z
m-1503 -31 c-15 -14 -33 -25 -40 -25 -7 0 -3 7 8 15 11 8 25 19 30 24 6 6 15
10 20 10 6 0 -3 -11 -18 -24z m-472 -84 c-3 -11 -1 -22 5 -26 7 -4 7 -13 -1
-27 -18 -34 -33 -6 -19 36 6 20 14 36 16 36 3 0 3 -9 -1 -19z m3552 -33 c-3
-8 -6 -5 -6 6 -1 11 2 17 5 13 3 -3 4 -12 1 -19z m-3510 -135 c9 -26 8 -30 -3
-26 -8 3 -14 8 -15 12 -10 86 -6 89 18 14z m3130 61 c-3 -3 -12 -4 -19 -1 -8
3 -5 6 6 6 11 1 17 -2 13 -5z m-2741 -76 c10 -18 19 -51 21 -73 3 -38 2 -37
-12 13 -8 29 -20 62 -25 73 -6 10 -8 19 -6 19 3 0 13 -15 22 -32z m1189 12
c-3 -5 -10 -10 -16 -10 -5 0 -9 5 -9 10 0 6 7 10 16 10 8 0 12 -4 9 -10z
m1788 -10 c-8 -30 -21 -34 -15 -5 2 14 8 25 12 25 5 0 6 -9 3 -20z m-2623 -35
c0 -8 -9 -15 -20 -15 -17 0 -19 2 -8 15 17 19 28 19 28 0z m-800 -15 c0 -5 -7
-7 -15 -4 -8 4 -15 8 -15 10 0 2 7 4 15 4 8 0 15 -4 15 -10z m141 -37 c13 -16
12 -17 -3 -4 -17 13 -22 21 -14 21 2 0 10 -8 17 -17z m3069 -7 c0 -2 -7 -7
-16 -10 -8 -3 -12 -2 -9 4 6 10 25 14 25 6z m-1150 -40 c0 -3 -4 -8 -10 -11
-5 -3 -10 -1 -10 4 0 6 5 11 10 11 6 0 10 -2 10 -4z m380 -16 c0 -5 -5 -10
-11 -10 -5 0 -7 5 -4 10 3 6 8 10 11 10 2 0 4 -4 4 -10z m-836 -35 c-4 -8 -8
-15 -10 -15 -2 0 -4 7 -4 15 0 8 4 15 10 15 5 0 7 -7 4 -15z m744 -10 c-3 -3
-9 2 -12 12 -6 14 -5 15 5 6 7 -7 10 -15 7 -18z m952 4 c0 -5 -4 -9 -10 -9 -5
0 -10 7 -10 16 0 8 5 12 10 9 6 -3 10 -10 10 -16z m-833 -51 c-3 -8 -6 -5 -6
6 -1 11 2 17 5 13 3 -3 4 -12 1 -19z m153 -10 c-30 -13 -50 -18 -50 -12 0 7
43 23 60 23 8 0 4 -5 -10 -11z m1790 -3 c0 -10 -26 -48 -52 -77 -16 -17 -26
-34 -23 -38 3 -4 -2 -13 -10 -20 -8 -7 -13 -15 -11 -19 3 -4 -4 -8 -15 -8 -10
-1 -19 2 -19 8 0 5 6 9 14 9 18 0 41 27 26 32 -11 3 19 66 48 97 16 18 42 28
42 16z m-2546 -50 c-4 -8 -11 -15 -16 -15 -6 0 -5 6 2 15 7 8 14 15 16 15 2 0
1 -7 -2 -15z m-2264 -41 c0 -2 -7 -4 -15 -4 -8 0 -15 4 -15 10 0 5 7 7 15 4 8
-4 15 -8 15 -10z m2800 1 c-7 -8 -17 -15 -23 -15 -6 0 -2 7 9 15 25 19 30 19
14 0z m-607 -30 c-17 -23 -43 -34 -43 -17 0 5 44 37 58 41 2 1 -5 -10 -15 -24z
m-565 0 c-3 -3 -28 -11 -56 -17 -29 -7 -53 -19 -56 -28 -3 -8 -4 -4 -3 10 2
21 7 25 39 26 20 1 44 7 54 12 18 10 33 8 22 -3z m-117 -72 c8 -10 48 -47 89
-83 40 -36 83 -74 94 -85 12 -11 53 -47 91 -80 38 -33 87 -77 107 -97 21 -21
38 -35 38 -32 0 2 15 -10 33 -28 18 -18 61 -58 96 -88 35 -30 75 -66 90 -80
33 -31 108 -98 189 -169 l61 -54 -39 -46 c-21 -25 -53 -62 -72 -82 -18 -20
-60 -67 -93 -105 -90 -101 -123 -132 -197 -180 -192 -124 -443 -131 -655 -17
-37 20 -69 40 -71 45 -2 4 -9 8 -15 8 -12 0 -103 87 -147 140 -49 58 -84 133
-118 254 -6 24 -7 264 -1 286 3 8 8 20 12 27 15 23 -11 22 -44 -3 -21 -15 -35
-20 -38 -13 -4 13 11 29 30 33 37 6 58 19 66 39 27 74 92 173 151 232 36 36
69 65 73 65 4 0 21 12 38 26 17 14 31 22 31 18 0 -4 8 0 18 8 21 18 138 74
162 77 3 1 12 -7 21 -16z m1914 -13 c-3 -5 -12 -10 -18 -10 -7 0 -6 4 3 10 19
12 23 12 15 0z m-3025 -130 c0 -5 -4 -10 -10 -10 -5 0 -10 5 -10 10 0 6 5 10
10 10 6 0 10 -4 10 -10z m1628 -13 c6 0 12 -4 12 -8 0 -4 10 -9 23 -11 12 -2
26 -13 32 -25 5 -13 13 -23 17 -23 5 0 8 -4 8 -10 0 -5 -7 -7 -15 -4 -8 4 -15
12 -15 20 0 8 -8 14 -17 14 -10 0 -31 9 -48 20 -16 11 -41 20 -55 21 -23 0
-23 1 -5 9 11 5 27 6 35 3 8 -3 21 -6 28 -6z m2097 -32 c11 -14 30 -27 43 -28
12 -1 21 -6 19 -12 -5 -14 -36 -7 -74 16 -20 13 -30 25 -26 35 7 20 14 18 38
-11z m-1018 -141 c-3 -3 -12 -4 -19 -1 -8 3 -5 6 6 6 11 1 17 -2 13 -5z m1018
-34 c-3 -5 -12 -10 -18 -10 -7 0 -6 4 3 10 19 12 23 12 15 0z m-4325 -40 c18
10 40 -3 23 -13 -17 -9 -68 -17 -54 -9 9 7 10 12 2 16 -6 4 -8 13 -4 19 5 8 9
7 11 -5 3 -14 7 -16 22 -8z m4160 -11 c-57 -26 -63 -23 -16 6 22 13 44 21 49
18 5 -3 -10 -14 -33 -24z m-1220 -25 c0 -8 -5 -12 -10 -9 -6 4 -8 11 -5 16 9
14 15 11 15 -7z m-230 -3 c0 -5 -7 -14 -15 -21 -13 -10 -15 -9 -15 9 0 12 6
21 15 21 8 0 15 -4 15 -9z m1380 -6 c-7 -8 -17 -15 -23 -15 -6 0 -2 7 9 15 25
19 30 19 14 0z m-1423 -75 c-1 -12 -5 -16 -10 -11 -5 5 -6 14 -3 20 11 16 15
13 13 -9z m979 -36 c0 -31 -1 -34 -12 -20 -6 9 -10 26 -7 36 8 32 18 23 19
-16z m-534 -176 c-7 -7 -12 -8 -12 -2 0 14 12 26 19 19 2 -3 -1 -11 -7 -17z
m966 -18 c-14 -22 -24 -19 -15 5 4 8 11 15 17 15 6 0 6 -7 -2 -20z m-442 -47
c-14 -20 -26 -34 -26 -28 0 11 43 75 48 70 2 -2 -8 -21 -22 -42z m-3460 -20
c3 -31 2 -34 -5 -13 -11 30 -14 66 -5 57 3 -3 8 -23 10 -44z m2499 -2 c3 -5 1
-12 -5 -16 -5 -3 -10 1 -10 9 0 18 6 21 15 7z m926 -38 c-9 -18 -11 -25 -11
-43 0 -5 -4 -10 -10 -10 -15 0 -12 17 6 45 19 29 29 34 15 8z m-141 -48 c7 -9
8 -15 2 -15 -5 0 -12 7 -16 15 -3 8 -4 15 -2 15 2 0 9 -7 16 -15z m157 -47
l-2 -43 -44 0 -44 -1 31 13 c33 13 57 47 47 63 -3 6 -2 10 4 10 5 0 9 -19 8
-42z m755 -15 c-11 -20 -72 -59 -72 -46 0 4 14 14 30 21 17 8 30 21 30 31 0
10 3 21 7 25 12 12 15 -11 5 -31z m-1372 -27 c0 -3 -4 -8 -10 -11 -5 -3 -10
-1 -10 4 0 6 5 11 10 11 6 0 10 -2 10 -4z m40 -40 c0 -3 -4 -8 -10 -11 -5 -3
-10 -1 -10 4 0 6 5 11 10 11 6 0 10 -2 10 -4z m1105 -36 c-3 -5 -12 -10 -18
-10 -7 0 -6 4 3 10 19 12 23 12 15 0z m-3272 -37 c-7 -2 -19 -2 -25 0 -7 3 -2
5 12 5 14 0 19 -2 13 -5z m2646 -36 c-7 -15 -16 -24 -20 -21 -13 8 -11 21 7
39 22 21 27 13 13 -18z m-751 9 c-2 -1 -12 -8 -23 -16 -18 -14 -19 -13 -8 1 7
9 10 19 6 23 -4 4 1 4 10 0 10 -3 17 -7 15 -8z m-454 -41 c3 -8 1 -15 -4 -15
-6 0 -10 7 -10 15 0 8 2 15 4 15 2 0 6 -7 10 -15z m343 -31 c-3 -3 -12 -4 -19
-1 -8 3 -5 6 6 6 11 1 17 -2 13 -5z m-1322 -70 c19 -9 35 -20 35 -24 0 -12
-65 13 -84 33 -10 9 -21 15 -26 12 -4 -2 -7 7 -7 21 l0 26 23 -25 c13 -15 40
-33 59 -43z m2430 51 c11 -1 26 2 33 8 8 6 12 6 12 -1 0 -5 -13 -14 -28 -20
-23 -8 -33 -6 -53 10 -20 16 -21 19 -4 13 11 -4 29 -9 40 -10z m185 6 c0 -5
-11 -11 -25 -13 -26 -5 -35 6 -12 15 20 9 37 8 37 -2z m648 -6 c10 4 12 0 8
-11 -3 -8 -6 -17 -6 -19 0 -3 -16 5 -35 16 -42 25 -45 32 -8 18 14 -5 33 -7
41 -4z m-4421 -21 c-3 -3 -12 -4 -19 -1 -8 3 -5 6 6 6 11 1 17 -2 13 -5z
m4123 -4 c10 -7 0 -8 -33 -6 -27 3 -51 6 -53 9 -9 8 72 6 86 -3z m-3804 -96
l29 -15 -40 5 c-22 3 -41 5 -42 6 -2 0 -3 5 -3 10 0 15 24 12 56 -6z m967 -9
c9 2 17 -1 17 -6 0 -18 -47 -9 -66 13 l-19 21 25 -15 c14 -9 33 -14 43 -13z
m2330 3 c-2 -5 -30 -7 -61 -7 -48 1 -52 3 -22 8 47 8 89 8 83 -1z m-212 -12
c-13 -6 -29 -5 -43 1 -20 9 -17 10 21 10 36 -1 40 -3 22 -11z m1049 -3 c-1 -5
-11 -21 -24 -36 -15 -19 -23 -23 -23 -13 0 9 4 16 9 16 5 0 6 5 3 10 -3 6 1
10 9 10 9 0 16 5 16 10 0 6 2 10 5 10 3 0 5 -3 5 -7z m-695 -73 c4 -6 11 -7
17 -4 6 4 8 2 5 -4 -8 -12 -47 -4 -47 9 0 12 17 11 25 -1z m175 -10 c0 -11 -2
-20 -4 -20 -2 0 -6 9 -9 20 -3 11 -1 20 4 20 5 0 9 -9 9 -20z m478 -15 c-3
-13 0 -26 6 -29 7 -3 7 -5 -1 -5 -17 -1 -23 12 -16 37 7 30 16 28 11 -3z
m-968 -25 c0 -5 -4 -10 -10 -10 -5 0 -10 5 -10 10 0 6 5 10 10 10 6 0 10 -4
10 -10z m145 1 c-3 -2 -29 -6 -57 -8 -29 -1 -59 -5 -65 -8 -7 -2 -13 1 -13 8
0 8 22 12 70 13 38 0 67 -2 65 -5z m353 -16 c-3 -3 -9 2 -12 12 -6 14 -5 15 5
6 7 -7 10 -15 7 -18z m-2833 -16 c11 -10 17 -19 13 -19 -4 0 -13 7 -22 15 -8
8 -24 16 -35 18 -11 2 -24 7 -28 11 -17 18 53 -6 72 -25z m3368 -54 c-9 -19
-21 -35 -26 -35 -5 0 -3 10 5 23 8 12 18 28 22 35 15 26 15 10 -1 -23z m-2552
7 c-7 -2 -18 1 -23 6 -8 8 -4 9 13 5 13 -4 18 -8 10 -11z m127 -34 c68 -33 81
-48 36 -41 -20 3 -47 16 -61 29 -13 12 -38 26 -54 29 -16 4 -29 10 -29 15 0
11 49 -3 108 -32z m2392 -27 c0 -5 -9 -19 -20 -32 l-20 -24 17 32 c19 34 23
39 23 24z m-2103 -146 c27 -10 56 -27 63 -39 13 -21 12 -21 -7 -3 -12 10 -31
19 -44 20 -32 2 -188 96 -207 124 -9 15 11 6 65 -31 44 -29 102 -61 130 -71z
m-1127 105 c0 -5 -5 -10 -11 -10 -5 0 -7 5 -4 10 3 6 8 10 11 10 2 0 4 -4 4
-10z m-450 -10 c-34 -11 -60 -11 -35 0 11 5 29 8 40 8 16 0 15 -2 -5 -8z
m2350 -6 c0 -2 -9 -4 -21 -4 -11 0 -18 4 -14 10 5 8 35 3 35 -6z m-2410 -4 c0
-5 -11 -10 -25 -10 -14 0 -33 -9 -42 -19 -9 -11 -21 -17 -26 -14 -11 6 25 32
61 43 15 5 28 9 30 9 1 1 2 -3 2 -9z m195 -29 c22 -14 45 -30 51 -36 6 -5 34
-26 62 -45 50 -33 64 -50 42 -50 -5 0 -15 9 -22 20 -7 11 -18 20 -25 20 -6 0
-13 3 -15 8 -4 9 -74 62 -82 62 -3 0 -27 14 -54 31 -29 18 -37 28 -22 23 14
-4 43 -19 65 -33z m339 14 c3 -8 1 -15 -3 -15 -5 0 -11 7 -15 15 -3 8 -1 15 3
15 5 0 11 -7 15 -15z m-1054 -20 c0 -11 -31 -11 -39 -1 -9 10 -6 12 14 8 14
-2 25 -6 25 -7z m2530 -35 c0 -5 -5 -10 -11 -10 -5 0 -7 5 -4 10 3 6 8 10 11
10 2 0 4 -4 4 -10z m-50 -14 c0 -3 -4 -8 -10 -11 -5 -3 -10 -1 -10 4 0 6 5 11
10 11 6 0 10 -2 10 -4z m-1324 -51 c16 -8 37 -15 47 -15 9 0 17 -4 17 -10 0
-5 5 -10 11 -10 6 0 24 -11 41 -25 34 -29 30 -32 -14 -9 -17 9 -54 23 -82 31
-56 17 -79 31 -70 44 7 12 17 11 50 -6z m2924 -35 c0 -5 -2 -10 -4 -10 -3 0
-8 5 -11 10 -3 6 -1 10 4 10 6 0 11 -4 11 -10z m-1648 -24 c23 -33 -1 -34 -25
-1 -17 24 -17 24 0 18 10 -4 21 -11 25 -17z m1841 0 c9 -7 17 -21 17 -30 0
-18 -21 -21 -36 -6 -7 7 -20 7 -35 2 -27 -10 -49 -6 -49 9 0 6 4 8 8 5 4 -2
14 0 22 5 13 8 13 10 0 19 -11 7 -6 10 20 10 19 -1 43 -7 53 -14z m-119 -10
c-3 -8 -12 -12 -20 -9 -17 6 -9 23 11 23 8 0 12 -6 9 -14z m373 -7 c-11 -7
-23 -7 -28 -2 -5 5 3 9 19 11 24 1 25 0 9 -9z m-3113 -31 c11 -6 25 -15 30
-19 6 -5 25 -20 42 -34 22 -17 48 -27 85 -30 65 -6 78 -8 149 -29 65 -19 73
-24 89 -53 6 -12 38 -34 71 -49 33 -14 57 -30 54 -35 -3 -5 0 -9 7 -9 7 0 10
-3 6 -6 -3 -4 -30 6 -59 21 -140 73 -171 86 -220 95 -54 10 -97 25 -178 64
-57 27 -180 96 -180 102 0 7 85 -8 104 -18z m3312 1 c11 -9 28 -19 38 -23 14
-5 16 -10 8 -18 -8 -8 -20 -3 -46 20 -31 27 -41 30 -83 26 -26 -2 -73 -5 -103
-8 -30 -2 -76 -8 -103 -14 -26 -5 -62 -6 -80 -2 l-32 7 49 14 c73 21 327 20
352 -2z m-3863 -36 c-7 -2 -19 -2 -25 0 -7 3 -2 5 12 5 14 0 19 -2 13 -5z
m194 1 c-3 -3 -12 -4 -19 -1 -8 3 -5 6 6 6 11 1 17 -2 13 -5z m846 -11 c-7 -2
-21 -2 -30 0 -10 3 -4 5 12 5 17 0 24 -2 18 -5z m2897 -84 c0 -16 -4 -28 -9
-25 -8 5 -3 56 5 56 2 0 4 -14 4 -31z m-841 -42 c-2 -1 -13 -9 -24 -17 -19
-14 -19 -14 -6 3 7 9 18 17 24 17 6 0 8 -1 6 -3z m-1856 -56 c-3 -11 -11 -22
-19 -25 -11 -4 -11 0 2 19 20 30 24 31 17 6z m-572 -28 c13 -16 12 -17 -3 -4
-10 7 -18 15 -18 17 0 8 8 3 21 -13z m2455 -14 c-14 -17 -26 -35 -26 -40 0 -5
-5 -9 -11 -9 -10 0 -7 50 6 69 3 6 18 11 31 11 l26 0 -26 -31z m908 15 c6 -15
4 -15 -11 -3 -10 7 -20 15 -22 16 -2 2 3 3 11 3 9 0 19 -7 22 -16z m16 -26
c-1 -2 -7 -25 -14 -53 -7 -27 -10 -63 -6 -80 7 -30 7 -30 -39 -31 -41 -2 -43
-1 -21 9 35 15 34 14 36 57 1 42 21 100 35 100 5 0 9 -1 9 -2z"/>
<path d="M1169 15206 c-2 -2 -37 -7 -77 -10 -83 -7 -176 -35 -241 -73 -79 -46
-219 -171 -267 -239 -26 -38 -62 -115 -69 -151 -22 -108 -25 -176 -11 -278 10
-70 10 -73 30 -139 15 -51 20 -57 39 -53 19 5 20 4 6 -6 -15 -11 -15 -15 2
-47 108 -200 457 -359 694 -315 201 37 394 194 481 391 27 61 28 68 14 59 -6
-3 -10 -2 -10 4 0 5 6 14 14 18 8 4 18 22 21 38 13 54 12 217 -1 272 -7 29
-12 54 -12 56 -3 28 -49 122 -93 188 -94 141 -292 260 -451 272 -24 2 -49 7
-55 10 -6 4 -12 5 -14 3z m-46 -736 c4 0 7 -4 7 -9 0 -10 -85 -2 -115 11 -13
5 1 7 40 3 33 -2 63 -4 68 -5z m-170 -12 c-2 -5 -15 -8 -29 -8 -14 0 -23 4
-20 9 3 5 17 8 30 7 13 0 22 -4 19 -8z m342 -78 c3 -5 -3 -10 -15 -10 -12 0
-18 5 -15 10 3 6 10 10 15 10 5 0 12 -4 15 -10z m-438 -36 c-3 -3 -12 -4 -19
-1 -8 3 -5 6 6 6 11 1 17 -2 13 -5z m288 -32 c-15 -16 -16 -15 -4 12 7 15 15
23 17 16 3 -7 -3 -19 -13 -28z m324 -31 c7 -12 6 -22 -1 -29 -16 -16 -28 -15
-22 2 3 8 -3 27 -12 42 -18 27 -18 27 4 15 12 -6 26 -20 31 -30z m182 -79 c-7
-2 -18 1 -23 6 -8 8 -4 9 13 5 13 -4 18 -8 10 -11z m-335 -21 c-9 -8 -18 -12
-22 -9 -9 10 3 25 21 25 14 0 14 -2 1 -16z m117 -15 c3 -8 15 -12 30 -9 14 3
28 0 31 -6 6 -8 -23 -9 -76 -2 -11 1 -10 31 1 31 5 0 11 -6 14 -14z m-663 -6
c0 -5 -7 -7 -15 -4 -8 4 -15 8 -15 10 0 2 7 4 15 4 8 0 15 -4 15 -10z m56 -26
c18 -14 18 -14 -6 -3 -31 14 -36 19 -24 19 6 0 19 -7 30 -16z m80 -41 c-5 -5
-56 22 -56 30 0 5 13 0 30 -9 16 -10 28 -19 26 -21z"/>
<path d="M21306 13683 c-1 -1 -60 -3 -131 -4 -72 -1 -164 -6 -205 -11 -41 -5
-93 -10 -115 -13 -22 -2 -51 -6 -65 -9 -13 -3 -41 -8 -61 -11 -20 -3 -50 -10
-68 -15 -17 -5 -34 -9 -36 -9 -3 -1 -6 -1 -7 -2 -2 0 -10 -2 -18 -4 -52 -11
-116 -29 -140 -38 -8 -3 -37 -13 -65 -22 -144 -49 -322 -136 -448 -218 -48
-31 -92 -57 -97 -57 -4 0 -10 -3 -12 -7 -1 -5 -47 -41 -101 -81 -162 -123
-438 -400 -408 -410 6 -2 18 2 27 8 25 22 29 1 3 -20 -14 -13 -32 -19 -44 -16
-15 3 -27 -5 -45 -30 -14 -19 -30 -41 -35 -47 -34 -40 -136 -207 -183 -301
-30 -61 -61 -123 -69 -138 -7 -15 -14 -30 -14 -33 1 -3 -6 -20 -14 -37 -51
-118 -130 -362 -141 -438 -3 -19 -7 -41 -10 -49 -2 -8 -7 -37 -10 -65 -3 -28
-7 -69 -10 -91 -20 -175 -19 -457 2 -618 3 -28 7 -64 9 -78 1 -14 5 -31 9 -37
4 -7 5 -12 3 -12 -4 0 25 -144 36 -185 14 -50 58 -173 77 -220 5 -11 21 -51
36 -90 43 -113 129 -274 213 -401 112 -168 119 -176 168 -180 38 -3 74 -9 113
-19 8 -2 18 -4 23 -4 4 -1 7 -4 7 -8 0 -5 -20 -9 -45 -11 -33 -2 -47 2 -51 13
-6 15 -64 22 -64 7 0 -26 338 -362 365 -362 3 0 -3 13 -14 29 -26 36 -26 41
-2 41 14 0 20 -10 25 -44 6 -40 13 -48 74 -93 94 -70 207 -144 277 -183 98
-54 194 -100 210 -100 8 0 15 -4 15 -8 0 -5 26 -17 58 -27 31 -10 74 -26 95
-37 20 -11 37 -16 37 -12 0 3 6 2 13 -4 10 -8 62 -24 92 -28 6 0 21 -6 35 -11
14 -6 61 -18 105 -27 160 -32 198 -37 290 -39 39 -1 73 -6 77 -12 5 -6 8 -5 8
3 0 9 5 10 19 3 17 -10 345 -7 401 3 14 2 52 7 85 10 33 4 96 16 140 27 44 11
91 22 104 25 14 3 28 7 33 10 5 3 18 7 31 10 12 2 63 17 112 34 50 17 97 32
106 34 31 8 199 86 209 97 3 3 37 21 76 41 71 36 72 36 82 15 10 -22 122 -152
122 -142 0 3 13 -7 29 -22 36 -35 160 -99 210 -109 8 -1 26 -6 40 -10 78 -21
263 -18 324 5 15 6 27 8 27 6 0 -3 40 15 89 40 97 49 199 127 246 187 17 21
35 44 41 51 15 18 74 142 79 167 2 12 6 29 9 38 14 49 17 142 17 560 1 521 1
482 -8 481 -23 -4 -39 3 -50 20 -11 18 -10 19 22 14 19 -3 35 -2 36 3 1 15 1
168 0 191 -1 17 -10 25 -38 32 -33 9 -39 8 -60 -15 -20 -22 -28 -19 -24 8 0 4
-16 10 -37 14 -20 3 -57 12 -82 20 l-45 14 55 -6 c85 -10 121 -11 179 -5 l54
6 -1 355 c-1 401 -6 536 -22 630 -7 36 -13 76 -15 90 -5 35 -64 260 -71 271
-3 5 -7 19 -9 32 -11 59 -134 338 -203 458 -38 68 -47 83 -55 93 -4 6 -39 56
-78 111 -80 112 -83 115 -121 115 -16 0 -28 4 -28 10 0 5 6 7 14 4 31 -12 23
15 -17 61 -60 69 -203 213 -262 263 -54 47 -52 45 -111 88 -22 16 -46 35 -54
42 -54 47 -335 203 -460 256 -71 29 -164 65 -178 67 -4 1 -18 6 -31 11 -14 5
-31 6 -39 3 -8 -3 -24 3 -34 12 -11 10 -22 17 -24 16 -2 -2 -5 -3 -6 -2 -8 2
-185 37 -223 44 -40 7 -111 16 -150 20 -22 1 -65 6 -95 10 -56 7 -130 11 -134
8z m-166 -307 c0 -3 -4 -8 -10 -11 -5 -3 -10 -1 -10 4 0 6 5 11 10 11 6 0 10
-2 10 -4z m1290 -46 c0 -5 -2 -10 -4 -10 -3 0 -8 5 -11 10 -3 6 -1 10 4 10 6
0 11 -4 11 -10z m-938 -55 c3 -14 2 -25 -2 -25 -9 0 -20 25 -20 46 0 23 17 7
22 -21z m-387 -35 c3 -5 -1 -10 -10 -10 -9 0 -13 5 -10 10 3 6 8 10 10 10 2 0
7 -4 10 -10z m399 -46 c3 -8 2 -12 -4 -9 -6 3 -10 10 -10 16 0 14 7 11 14 -7z
m36 -98 c0 -12 -5 -7 -19 24 -11 24 -11 24 3 6 9 -11 16 -24 16 -30z m-290 0
c0 -2 -7 -7 -16 -10 -8 -3 -12 -2 -9 4 6 10 25 14 25 6z m1373 -87 c-10 -17
-27 -38 -38 -47 -19 -17 -19 -16 -4 8 9 14 22 35 30 48 21 34 33 26 12 -9z
m-1051 -1 c-7 -7 -12 -8 -12 -2 0 14 12 26 19 19 2 -3 -1 -11 -7 -17z m-7 -28
c3 -5 1 -10 -4 -10 -6 0 -11 5 -11 10 0 6 2 10 4 10 3 0 8 -4 11 -10z m-756
-25 c-1 -5 -6 -8 -12 -6 -10 3 -59 3 -86 -1 -19 -2 -41 3 -41 10 0 4 31 7 70
7 41 0 70 -4 69 -10z m2010 -22 c-18 -21 -35 -40 -36 -42 -2 -2 -5 -2 -8 0 -5
5 63 79 73 79 3 0 -10 -17 -29 -37z m-2896 -107 c-3 -5 -12 2 -19 15 -20 35
-17 45 5 18 11 -13 17 -28 14 -33z m2837 40 c0 -3 -4 -8 -10 -11 -5 -3 -10 -1
-10 4 0 6 5 11 10 11 6 0 10 -2 10 -4z m-2455 -20 c18 -13 18 -13 -5 -12 -13
0 -25 7 -28 14 -5 16 10 15 33 -2z m700 -26 c3 -5 -1 -10 -10 -10 -9 0 -13 5
-10 10 3 6 8 10 10 10 2 0 7 -4 10 -10z m2019 -18 c3 -5 -1 -9 -9 -9 -8 0 -15
4 -15 9 0 4 4 8 9 8 6 0 12 -4 15 -8z m-3294 -69 c0 -15 -24 -73 -31 -73 -3 0
-1 18 4 40 6 22 15 40 19 40 4 0 8 -3 8 -7z m898 -4 c18 -6 29 -15 26 -20 -3
-6 -11 -5 -20 2 -8 6 -29 15 -47 19 -20 5 -25 8 -11 9 12 1 35 -4 52 -10z
m-848 -15 c0 -8 -5 -12 -10 -9 -6 4 -8 11 -5 16 9 14 15 11 15 -7z m1320 -66
c0 -16 -3 -19 -11 -11 -6 6 -8 16 -5 22 11 17 16 13 16 -11z m-1410 -18 c-12
-23 -49 -45 -58 -34 -4 4 -1 9 5 11 7 3 23 13 35 23 29 24 31 24 18 0z m1754
-5 c-10 -8 -30 -14 -44 -14 l-25 0 25 14 c14 8 34 14 44 15 20 0 20 0 0 -15z
m1376 -24 c0 -8 -27 -18 -65 -26 -5 -1 -19 1 -30 6 -16 6 -13 8 15 9 19 1 44
5 55 10 11 5 21 9 23 9 1 1 2 -3 2 -8z m-990 -60 c0 -5 -10 -18 -22 -28 -29
-24 -48 -57 -48 -83 0 -11 -4 -20 -9 -20 -11 0 -8 64 4 93 11 27 75 59 75 38z
m-1170 -41 c0 -5 -4 -10 -9 -10 -6 0 -13 5 -16 10 -3 6 1 10 9 10 9 0 16 -4
16 -10z m2285 0 c-3 -5 -12 -10 -18 -10 -7 0 -6 4 3 10 19 12 23 12 15 0z
m-3684 -27 c-8 -15 -10 -15 -11 -2 0 17 10 32 18 25 2 -3 -1 -13 -7 -23z m964
-33 c3 -5 1 -10 -4 -10 -6 0 -11 5 -11 10 0 6 2 10 4 10 3 0 8 -4 11 -10z
m1539 -55 c3 -8 1 -15 -4 -15 -6 0 -10 7 -10 15 0 8 2 15 4 15 2 0 6 -7 10
-15z m-1694 -15 c0 -5 -5 -10 -11 -10 -5 0 -7 5 -4 10 3 6 8 10 11 10 2 0 4
-4 4 -10z m1315 -15 c93 -19 126 -28 184 -47 94 -30 275 -125 299 -156 6 -9
12 -13 12 -9 0 18 148 -119 235 -218 40 -46 128 -184 157 -246 l26 -55 56 4
c31 2 56 0 56 -5 0 -5 -20 -9 -45 -9 -25 -1 -48 -4 -52 -7 -3 -3 0 -21 7 -39
54 -150 76 -350 55 -496 -3 -20 -8 -51 -10 -69 -2 -18 -9 -41 -15 -53 -6 -11
-8 -20 -6 -20 18 0 -91 -245 -149 -335 -28 -43 -130 -177 -153 -200 -87 -88
-258 -198 -388 -250 -68 -27 -85 -32 -141 -39 -18 -3 -37 -7 -42 -10 -7 -5
-195 -17 -256 -17 -46 -1 -172 17 -225 31 -19 5 -39 10 -45 11 -31 4 -253 105
-265 120 -3 3 -16 12 -30 19 -50 26 -188 130 -247 187 -68 65 -142 165 -197
264 -37 69 -99 244 -111 314 -11 59 -13 294 -4 334 4 20 10 47 12 61 29 157
118 346 230 485 57 71 195 205 248 240 24 16 46 32 49 35 3 3 17 11 33 19 15
8 27 18 27 23 0 4 5 8 12 8 6 0 44 16 85 35 41 19 79 35 86 35 7 0 17 4 23 9
9 9 175 48 229 54 44 5 225 -1 260 -8z m-632 -80 c-3 -8 -10 -15 -15 -15 -7 0
-6 5 1 13 6 8 7 18 3 22 -4 5 -2 5 5 1 7 -4 10 -13 6 -21z m-843 -39 c0 -2 -7
-7 -16 -10 -8 -3 -12 -2 -9 4 6 10 25 14 25 6z m3535 -61 c36 -34 96 -128 87
-137 -6 -6 -18 4 -33 29 -12 21 -26 40 -29 43 -4 3 -15 20 -25 38 -11 17 -22
32 -26 32 -4 0 -10 7 -13 16 -6 15 -4 15 11 3 10 -8 23 -18 28 -24z m-3150 15
c3 -6 -1 -7 -9 -4 -18 7 -21 14 -7 14 6 0 13 -4 16 -10z m-588 -16 c-3 -3 -12
-4 -19 -1 -8 3 -5 6 6 6 11 1 17 -2 13 -5z m823 -9 c0 -2 -26 -23 -57 -46 -32
-24 -60 -45 -63 -48 -22 -25 -100 -80 -104 -73 -3 5 4 15 16 23 28 20 159 116
183 134 20 16 25 18 25 10z m2582 -28 c12 -18 10 -24 -9 -24 -16 0 -43 19 -43
29 0 10 45 5 52 -5z m-118 -32 c-6 -16 -24 -21 -24 -7 0 11 11 22 21 22 5 0 6
-7 3 -15z m-59 -6 c-4 -6 -10 -8 -13 -5 -3 3 -11 1 -19 -6 -11 -8 -12 -7 -7 6
3 9 15 16 26 16 11 0 16 -5 13 -11z m419 -37 c2 -4 -3 -8 -12 -8 -9 -1 -30 -4
-47 -7 -28 -6 -29 -5 -11 8 21 16 62 20 70 7z m-3697 -34 c-3 -8 -6 -5 -6 6
-1 11 2 17 5 13 3 -3 4 -12 1 -19z m3602 9 c-2 -1 -13 -9 -24 -17 -19 -14 -19
-14 -6 3 7 9 18 17 24 17 6 0 8 -1 6 -3z m-54 -36 c-3 -6 -11 -11 -17 -11 -6
0 -6 6 2 15 14 17 26 13 15 -4z m322 -3 c-4 -12 -2 -27 4 -34 6 -7 5 -15 -5
-23 -12 -10 -16 -8 -21 9 -4 11 -14 19 -22 18 -9 -2 -18 2 -20 8 -2 7 2 12 9
11 34 -1 48 4 48 18 0 8 3 15 6 15 4 0 4 -10 1 -22z m-517 -48 c14 -11 20 -20
14 -20 -7 0 -22 9 -35 20 -31 25 -12 26 21 0z m-3955 -25 c-3 -36 -13 -42 -24
-14 -5 15 -5 29 1 36 15 18 27 7 23 -22z m42 -17 c-3 -7 -5 -2 -5 12 0 14 2
19 5 13 2 -7 2 -19 0 -25z m3298 1 c-26 -10 -82 -11 -88 -1 -3 4 20 8 51 8 38
1 50 -1 37 -7z m55 -24 c7 -9 10 -18 6 -22 -3 -3 -6 -1 -6 6 0 6 -10 16 -22
21 -16 6 -18 9 -7 9 9 1 22 -6 29 -14z m400 -169 c0 -3 -4 -8 -10 -11 -5 -3
-10 -1 -10 4 0 6 5 11 10 11 6 0 10 -2 10 -4z m463 -146 c-3 -12 -8 -19 -11
-16 -5 6 5 36 12 36 2 0 2 -9 -1 -20z m-3748 -99 c-3 -3 -11 -6 -18 -7 -7 -1
-21 -5 -32 -9 -15 -5 -14 -3 3 8 23 13 58 20 47 8z m3805 -65 c0 -3 -4 -8 -10
-11 -5 -3 -10 -1 -10 4 0 6 5 11 10 11 6 0 10 -2 10 -4z m-3958 -28 c-7 -7
-12 -8 -12 -2 0 14 12 26 19 19 2 -3 -1 -11 -7 -17z m4281 -13 c4 -8 2 -17 -2
-20 -5 -2 -11 4 -14 15 -6 23 8 27 16 5z m-4423 -71 c0 -2 -20 -12 -45 -23
-25 -11 -56 -32 -71 -48 l-25 -28 6 25 c11 41 33 68 57 72 29 5 78 6 78 2z
m618 -41 c-15 -18 -21 -9 -13 18 6 16 9 18 16 8 4 -8 3 -19 -3 -26z m3019 1
c-3 -3 -12 -4 -19 -1 -8 3 -5 6 6 6 11 1 17 -2 13 -5z m-132 -114 c3 -5 -3
-10 -14 -10 -11 0 -23 5 -26 10 -3 6 3 10 14 10 11 0 23 -4 26 -10z m-3781
-29 c3 -5 -1 -11 -9 -15 -15 -6 -29 7 -18 18 9 9 21 8 27 -3z m-124 -40 c0 -5
-10 -11 -22 -14 -22 -6 -22 -6 -4 8 23 17 26 18 26 6z m4722 -77 c2 -31 0 -40
-9 -37 -8 3 -13 23 -13 51 0 56 16 45 22 -14z m-3506 -12 c-10 -10 -29 15 -21
28 6 9 10 8 17 -4 6 -10 7 -20 4 -24z m2723 17 c-7 -4 -17 -5 -22 -2 -5 3 -3
9 4 14 7 4 17 5 22 2 5 -3 3 -9 -4 -14z m731 -33 c0 -3 -4 -8 -10 -11 -5 -3
-10 -1 -10 4 0 6 5 11 10 11 6 0 10 -2 10 -4z m-229 -77 c-22 -23 -43 -50 -46
-59 -3 -10 -12 -21 -20 -24 -28 -10 4 48 48 86 57 50 68 48 18 -3z m-903 -35
c-8 -27 -13 -33 -16 -20 -4 17 17 70 24 63 2 -2 -2 -21 -8 -43z m630 -8 c-15
-23 -27 -32 -40 -28 -10 2 -18 9 -18 14 0 5 3 7 8 5 4 -3 21 6 37 19 17 13 31
24 33 24 1 0 -8 -15 -20 -34z m-3378 -196 c6 -11 9 -20 7 -20 -2 0 -12 9 -22
20 -10 11 -13 20 -7 20 6 0 16 -9 22 -20z m2588 -25 c-6 -14 -13 -24 -14 -22
-6 6 9 47 17 47 5 0 3 -11 -3 -25z m1167 -5 c2 -4 -7 -5 -20 -2 -14 2 -27 8
-30 12 -2 4 7 5 20 2 14 -2 27 -8 30 -12z m-195 -22 c0 -11 -22 -10 -40 2 -11
8 -9 9 13 8 15 -1 27 -6 27 -10z m-930 -22 c0 -3 -4 -8 -10 -11 -5 -3 -10 -1
-10 4 0 6 5 11 10 11 6 0 10 -2 10 -4z m925 -16 c3 -5 1 -10 -4 -10 -6 0 -11
5 -11 10 0 6 2 10 4 10 3 0 8 -4 11 -10z m259 -165 c21 -19 46 -37 57 -40 22
-7 26 -25 4 -25 -21 0 -65 22 -65 32 0 5 -15 22 -32 39 -21 19 -27 29 -17 29
8 0 32 -16 53 -35z m-484 15 c0 -5 -5 -10 -11 -10 -5 0 -7 5 -4 10 3 6 8 10
11 10 2 0 4 -4 4 -10z m-657 -27 c-7 -2 -21 -2 -30 0 -10 3 -4 5 12 5 17 0 24
-2 18 -5z m194 1 c-3 -3 -12 -4 -19 -1 -8 3 -5 6 6 6 11 1 17 -2 13 -5z m353
2 c0 -3 -4 -8 -10 -11 -5 -3 -10 -1 -10 4 0 6 5 11 10 11 6 0 10 -2 10 -4z
m-3672 -124 c2 -7 0 -12 -5 -13 -4 0 -19 -2 -33 -4 -36 -4 -44 4 -25 25 18 20
55 14 63 -8z m798 -47 c-11 -8 -25 -15 -30 -15 -6 1 0 7 14 15 32 19 40 18 16
0z m3348 2 c-3 -8 -11 -14 -19 -14 -11 0 -12 4 -4 14 6 7 15 13 20 13 5 0 6
-6 3 -13z m-4259 -17 c3 -5 -3 -10 -14 -10 -12 0 -21 5 -21 10 0 6 6 10 14 10
8 0 18 -4 21 -10z m827 -13 c-17 -8 -26 -7 -35 3 -10 10 -9 12 5 7 10 -3 20
-2 23 4 4 5 11 6 18 2 7 -4 3 -10 -11 -16z m3566 -12 c-3 -3 -9 2 -12 12 -6
14 -5 15 5 6 7 -7 10 -15 7 -18z m-913 -7 c6 -4 0 -8 -12 -8 -16 0 -21 4 -16
15 3 9 8 12 12 8 3 -4 11 -11 16 -15z m-995 -83 c0 -8 8 -19 18 -24 13 -8 4
-10 -40 -11 -35 0 -58 -5 -61 -12 -3 -8 -6 -6 -6 5 -1 12 9 19 29 23 17 4 32
15 35 25 7 21 25 16 25 -6z m747 18 c-4 -3 -2 -12 4 -20 7 -8 8 -13 1 -13 -12
0 -23 26 -15 34 4 3 9 6 11 6 3 0 2 -3 -1 -7z m587 -45 c-7 -11 -32 -10 -39 2
-3 5 0 16 7 24 11 11 15 11 24 -3 7 -9 10 -19 8 -23z m-2184 -12 c9 -39 -4
-51 -14 -13 -7 28 -8 62 0 54 3 -3 9 -22 14 -41z m1600 -26 c0 -11 5 -20 12
-20 6 0 8 -3 5 -7 -4 -4 -53 -8 -110 -9 -76 -2 -96 0 -77 8 14 5 56 10 93 11
61 0 68 2 64 19 -3 10 -1 18 4 18 5 0 9 -9 9 -20z m685 -20 c3 -5 -3 -10 -14
-10 -11 0 -23 5 -26 10 -3 6 3 10 14 10 11 0 23 -4 26 -10z m-1990 -63 c16
-15 -48 20 -70 38 -11 9 -2 7 20 -6 22 -12 45 -26 50 -32z m1053 38 c-2 -1
-21 -6 -43 -9 -61 -9 -69 -11 -83 -20 -7 -4 -16 -5 -19 -2 -4 3 -18 -1 -32
-11 -26 -16 -26 -16 -8 4 16 18 52 29 152 46 19 3 40 -2 33 -8z m32 11 c0 -3
-4 -8 -10 -11 -5 -3 -10 -1 -10 4 0 6 5 11 10 11 6 0 10 -2 10 -4z m276 -43
c-6 -6 -36 9 -36 18 0 5 9 4 20 -3 10 -7 18 -14 16 -15z m-1101 7 c-3 -5 -12
-10 -18 -10 -7 0 -6 4 3 10 19 12 23 12 15 0z m724 -3 c-2 -2 -17 -11 -34 -21
l-30 -17 24 20 c13 12 28 21 34 21 6 0 8 -1 6 -3z m774 -32 c-3 -9 -8 -14 -10
-11 -3 3 -2 9 2 15 9 16 15 13 8 -4z m-2476 -10 c0 -8 -4 -12 -9 -9 -5 3 -6
10 -3 15 9 13 12 11 12 -6z m1458 -34 c0 -21 -3 -37 -7 -34 -5 2 -8 13 -8 25
0 15 -5 19 -17 14 -13 -4 -11 0 6 14 13 11 24 20 25 20 1 0 2 -18 1 -39z m968
15 c26 -1 39 -15 15 -17 -68 -4 -88 -3 -88 4 0 4 6 7 13 7 8 0 7 4 -3 11 -12
8 -9 9 10 4 14 -4 37 -8 53 -9z m-1602 -14 c-7 -2 -18 1 -23 6 -8 8 -4 9 13 5
13 -4 18 -8 10 -11z m505 1 c-2 -3 -8 -5 -13 -6 -4 -1 -32 -16 -62 -34 -61
-37 -73 -40 -65 -18 4 8 9 13 13 11 4 -3 29 8 56 23 43 23 84 37 71 24z m-435
-99 c11 -13 9 -14 -15 -8 -20 5 -33 1 -49 -14 -12 -12 -32 -20 -45 -19 -27 2
-29 17 -2 17 11 0 37 9 57 20 45 24 38 23 54 4z m-259 -27 c7 -8 19 -16 27
-18 9 -3 5 -9 -11 -16 -22 -10 -25 -8 -35 18 -12 31 -3 38 19 16z m-896 -47
c12 -14 9 -18 -16 -34 -34 -20 -38 -11 -18 45 7 20 13 28 16 19 3 -8 11 -22
18 -30z m524 20 c-8 -5 -17 -7 -19 -4 -3 3 1 9 9 14 8 5 17 7 19 4 3 -3 -1 -9
-9 -14z m-60 -20 c0 -5 -7 -10 -16 -10 -8 0 -12 5 -9 10 3 6 10 10 16 10 5 0
9 -4 9 -10z m2375 -7 c-2 -10 -4 -20 -4 -22 -1 -3 -6 0 -12 6 -6 6 -8 16 -5
22 11 17 25 13 21 -6z m-2242 -13 l32 -1 -25 -14 c-38 -22 -70 -19 -70 6 0 15
4 19 16 15 9 -3 30 -6 47 -6z m857 -20 c0 -5 -4 -10 -9 -10 -5 0 -11 -14 -15
-32 -6 -29 -8 -31 -22 -16 -15 14 -14 18 1 42 17 26 45 36 45 16z m-985 -41
c1 -19 -5 -33 -16 -39 -15 -9 -16 -6 -8 28 5 20 9 41 9 46 0 23 14 -8 15 -35z
m-355 27 c0 -2 -11 -6 -25 -8 -14 -3 -25 -1 -25 3 0 5 11 9 25 9 14 0 25 -2
25 -4z m-60 -57 c0 -3 -12 -14 -26 -24 -15 -9 -24 -13 -22 -9 3 5 7 16 11 25
5 15 37 23 37 8z m-26 -128 c-3 -20 -12 -45 -19 -56 -6 -11 -11 -35 -9 -52 1
-18 -1 -33 -4 -34 -4 0 -15 -2 -25 -4 -9 -2 -15 0 -13 4 3 4 6 29 7 55 2 28
10 56 21 68 10 12 19 26 19 32 1 6 2 16 4 21 1 6 3 19 4 30 2 18 3 18 12 -4 5
-13 7 -40 3 -60z m1564 52 c17 -44 21 -163 5 -163 -7 0 -13 6 -13 14 0 9 -19
21 -47 29 -44 13 -45 14 -15 14 18 0 35 3 39 7 9 9 9 76 -1 104 -11 33 19 29
32 -5z m1182 -3 c12 -7 10 -9 -8 -7 -12 0 -22 5 -22 9 0 11 12 10 30 -2z
m-330 -31 c0 -5 -12 -9 -26 -9 -14 0 -23 4 -20 8 7 11 46 12 46 1z m453 -59
l22 -9 -22 0 c-31 -1 -38 2 -38 16 0 6 -4 15 -8 19 -4 4 -7 14 -7 23 1 10 7 5
16 -12 8 -15 25 -32 37 -37z m-1023 36 c0 -3 -4 -16 -10 -30 -8 -21 -6 -29 11
-45 18 -16 19 -22 8 -34 -11 -11 -16 -12 -26 -1 -19 19 -12 114 8 114 5 0 9
-2 9 -4z m59 -40 c-34 -36 -44 -40 -34 -15 5 12 51 48 64 49 2 0 -11 -15 -30
-34z m-919 -10 c0 -2 -7 -7 -16 -10 -8 -3 -12 -2 -9 4 6 10 25 14 25 6z m2158
-16 c10 -17 10 -20 -3 -20 -8 0 -15 2 -15 4 0 2 -3 11 -6 20 -9 23 9 20 24 -4z
m107 10 c-3 -5 -10 -10 -16 -10 -5 0 -9 5 -9 10 0 6 7 10 16 10 8 0 12 -4 9
-10z m-1845 -4 c0 -2 -14 -13 -31 -24 -25 -15 -39 -18 -62 -11 -35 10 -52 25
-20 16 13 -3 25 -1 28 4 3 4 11 6 18 3 8 -3 24 0 38 5 30 12 29 12 29 7z
m-691 -15 c7 -5 9 -11 4 -14 -13 -8 -53 3 -53 14 0 11 31 11 49 0z m401 5 c0
-2 -9 -6 -20 -9 -11 -3 -18 -1 -14 4 5 9 34 13 34 5z m-170 -9 c0 -2 -10 -12
-21 -23 -22 -19 -22 -19 -8 4 12 19 29 30 29 19z m820 -17 c0 -5 -2 -10 -4
-10 -3 0 -8 5 -11 10 -3 6 -1 10 4 10 6 0 11 -4 11 -10z m287 -86 c-9 -9 -28
6 -21 18 4 6 10 6 17 -1 6 -6 8 -13 4 -17z m966 7 c8 -33 60 -57 131 -60 41
-2 4 -14 -52 -16 l-58 -3 -28 49 c-20 37 -23 49 -13 49 8 0 17 -9 20 -19z
m-2583 -31 c-18 -12 -40 -13 -40 -2 0 4 12 9 28 10 21 1 23 0 12 -8z m1811
-47 c13 -15 12 -15 -8 -4 -24 12 -29 21 -14 21 5 0 15 -7 22 -17z m-1103 2
c-8 -9 -89 -15 -84 -7 2 4 23 8 47 10 24 1 40 0 37 -3z m2108 -20 c30 -7 85
-11 121 -9 70 4 82 -1 23 -9 -19 -3 -37 -6 -40 -7 -36 -14 -180 23 -180 46 0
3 5 2 11 -1 6 -4 35 -13 65 -20z m-136 -17 c0 -7 -5 -20 -10 -28 -8 -12 -10
-9 -10 13 0 15 5 27 10 27 6 0 10 -6 10 -12z m398 -10 c17 -17 16 -42 0 -28
-7 6 -22 17 -33 25 -20 14 -20 14 1 15 11 0 25 -5 32 -12z m-2648 -86 c41 -6
38 -14 -4 -10 -22 2 -41 9 -44 17 -3 10 0 11 9 5 8 -5 25 -10 39 -12z m513
-31 c-20 -34 -60 -64 -50 -37 7 19 3 20 -24 6 -10 -6 -19 -9 -19 -6 0 6 84 57
107 65 1 1 -5 -12 -14 -28z m1987 5 c0 -3 -4 -8 -10 -11 -5 -3 -10 -1 -10 4 0
6 5 11 10 11 6 0 10 -2 10 -4z m-2240 -11 c0 -2 -19 -10 -42 -16 -101 -29
-130 -30 -134 -7 -2 14 2 16 15 8 18 -9 75 -4 98 9 15 8 63 13 63 6z m690 -14
c0 -5 -10 -11 -22 -14 -22 -6 -22 -6 -4 8 23 17 26 18 26 6z m1399 -25 c-2 -2
-15 -9 -29 -16 -23 -12 -24 -12 -11 3 7 10 20 17 29 17 8 0 13 -2 11 -4z
m-2031 -31 c-3 -3 -9 2 -12 12 -6 14 -5 15 5 6 7 -7 10 -15 7 -18z m100 11 c9
3 1 -4 -18 -14 -41 -24 -48 -22 -23 7 10 12 19 17 21 12 2 -6 11 -8 20 -5z
m711 -25 c-15 -5 -22 6 -14 19 6 9 10 9 16 -1 5 -8 4 -15 -2 -18z m-99 -65 c0
-2 -17 -3 -37 -3 -32 -1 -34 0 -13 6 21 7 50 4 50 -3z m-800 -17 c0 -16 40
-49 59 -49 25 0 44 -16 36 -30 -5 -7 -10 -8 -14 -2 -3 5 -22 17 -41 27 -45 22
-71 45 -64 56 8 13 24 11 24 -2z"/>
<path d="M4678 13675 c-2 -2 -34 -6 -72 -10 -38 -3 -72 -8 -75 -10 -3 -2 -28
-6 -56 -9 -51 -6 -88 -13 -92 -16 -4 -3 -7 -4 -58 -14 -102 -20 -418 -138
-449 -167 -10 -9 7 -12 49 -10 17 1 17 0 -3 -9 -16 -7 -30 -6 -44 1 -15 8 -33
5 -84 -17 -35 -15 -64 -31 -64 -36 0 -4 -8 -8 -19 -8 -10 0 -24 -7 -31 -15 -7
-8 -18 -15 -25 -15 -8 0 -15 -3 -17 -8 -1 -4 -28 -23 -58 -42 -64 -40 -188
-128 -211 -150 -8 -8 -37 -33 -64 -55 -60 -49 -249 -236 -290 -288 -16 -21
-43 -52 -58 -70 -16 -18 -44 -54 -62 -82 -19 -27 -47 -68 -63 -90 -80 -114
-241 -422 -232 -444 1 -2 -2 -7 -8 -10 -9 -6 -98 -275 -106 -321 -3 -14 -5
-25 -6 -25 -2 0 -5 -15 -14 -60 -12 -62 -16 -81 -21 -105 -4 -14 -8 -41 -9
-60 -2 -19 -7 -71 -12 -115 -13 -132 -7 -374 12 -510 4 -27 8 -57 9 -65 2 -14
23 -126 30 -160 2 -8 4 -15 5 -15 2 0 5 -14 14 -54 3 -13 13 -49 22 -80 10
-31 18 -60 20 -66 7 -30 60 -171 65 -175 3 -3 10 -16 14 -30 14 -44 86 -194
103 -214 10 -10 16 -21 14 -25 -3 -8 119 -205 130 -209 4 -2 8 -8 8 -14 0 -15
109 -149 199 -243 96 -100 266 -254 325 -294 12 -8 23 -18 26 -21 12 -14 206
-140 216 -140 7 0 14 7 18 15 3 8 10 15 16 15 6 0 6 -7 -2 -19 -16 -25 -4 -40
64 -75 29 -15 82 -43 118 -62 148 -80 373 -157 545 -188 17 -3 41 -8 55 -11
77 -15 172 -20 413 -20 212 1 270 3 276 14 5 8 17 11 29 7 21 -7 111 5 222 28
14 3 39 8 55 12 30 6 127 32 155 42 8 3 24 7 35 9 24 4 246 93 260 104 6 4 41
24 79 44 62 33 132 79 146 96 3 3 15 11 27 18 23 12 113 123 113 139 0 6 3 12
8 14 10 4 48 83 68 143 23 69 23 266 0 354 -24 88 -75 185 -138 258 -29 34
-56 62 -60 62 -6 1 -104 62 -123 78 -14 12 -99 49 -100 44 0 -2 -10 1 -23 8
-24 13 -29 14 -117 32 -59 11 -183 10 -191 -3 -3 -4 -9 -6 -13 -4 -9 6 -120
-28 -161 -49 -16 -8 -31 -15 -32 -15 -4 2 -39 -10 -68 -22 -57 -24 -137 -50
-165 -54 -16 -2 -64 -10 -105 -17 -41 -8 -96 -13 -122 -12 -27 0 -48 -3 -48
-8 0 -4 -5 -5 -11 -1 -6 4 -41 8 -78 10 -76 3 -101 7 -191 29 -54 13 -69 14
-90 3 -14 -7 -27 -16 -30 -19 -11 -13 -119 -48 -124 -40 -3 4 28 21 69 36 41
16 77 35 79 42 3 7 1 13 -4 13 -16 0 -113 47 -153 74 -21 14 -40 26 -43 26 -3
0 -11 6 -19 13 -7 6 -32 28 -55 46 -49 40 -51 43 -103 100 -28 31 -43 41 -55
35 -9 -4 -28 -9 -42 -11 -14 -2 -32 -10 -40 -17 -33 -29 -43 -27 -16 2 17 18
36 32 43 32 7 0 22 5 32 11 17 11 14 18 -37 95 -30 45 -54 86 -53 91 0 4 524
8 1164 8 639 1 1167 4 1174 8 6 4 14 4 16 0 3 -5 78 -8 167 -7 120 0 163 3
169 13 7 10 9 10 14 -2 3 -9 17 -13 39 -12 70 6 144 17 173 25 171 52 250 94
329 174 52 53 111 164 122 231 14 82 7 363 -11 455 -2 14 -7 44 -10 66 -3 23
-16 84 -30 135 -13 52 -27 105 -30 119 -4 14 -10 34 -15 45 -4 11 -18 47 -31
80 -56 149 -223 470 -266 513 -7 7 -13 18 -13 23 0 5 -16 30 -36 56 -20 27
-45 61 -57 77 -12 16 -29 37 -37 46 -8 10 -31 38 -50 62 -44 55 -264 274 -310
310 -19 14 -48 38 -65 53 -35 30 -272 190 -318 215 -18 9 -57 31 -87 49 -107
62 -196 100 -237 99 -22 0 -50 3 -62 7 -21 6 -22 7 -4 22 17 14 17 14 -4 10
-13 -3 -23 -2 -23 3 0 20 -284 101 -445 126 -16 3 -43 7 -60 10 -34 5 -432 14
-437 9z m562 -135 c0 -5 -16 -10 -35 -10 -19 0 -35 5 -35 10 0 6 16 10 35 10
19 0 35 -4 35 -10z m-323 -218 c-10 -10 -17 -23 -17 -29 0 -6 -8 -17 -17 -24
-15 -12 -16 -12 -9 6 5 11 10 28 13 37 3 9 12 19 22 21 9 3 18 5 20 6 2 0 -3
-7 -12 -17z m-1317 -212 c-18 -12 -30 -13 -30 -2 0 4 10 9 22 9 18 2 20 0 8
-7z m-160 -54 c0 -11 -19 -15 -25 -6 -3 5 1 10 9 10 9 0 16 -2 16 -4z m540
-16 c0 -5 -4 -10 -10 -10 -5 0 -10 5 -10 10 0 6 5 10 10 10 6 0 10 -4 10 -10z
m266 -52 c3 -4 -10 -6 -29 -5 -19 1 -33 5 -31 8 4 8 51 5 60 -3z m-456 -48 c0
-5 -6 -10 -14 -10 -8 0 -18 5 -21 10 -3 6 3 10 14 10 12 0 21 -4 21 -10z m465
-57 c4 -34 16 -49 40 -51 13 -1 28 4 32 12 14 23 69 45 99 40 39 -7 41 -12 10
-23 -30 -12 -35 -32 -7 -26 19 4 32 -13 36 -47 1 -13 -2 -15 -11 -7 -7 6 -23
11 -36 13 -13 1 -29 5 -35 9 -6 4 -17 0 -24 -9 -25 -30 -147 -109 -156 -100
-7 6 28 36 42 36 8 0 22 11 31 25 16 24 15 27 -11 65 -24 35 -31 39 -59 35
-100 -17 -209 -69 -273 -130 -68 -65 -73 -50 -10 34 35 48 133 122 157 119 8
-1 42 6 75 16 33 10 65 19 70 21 14 4 28 -11 30 -32z m-951 -109 c3 -7 -2 -18
-10 -24 -11 -10 -14 -9 -14 4 0 9 -7 16 -16 16 -8 0 -13 4 -10 8 7 12 45 9 50
-4z m2076 -65 c0 -9 11 -24 25 -33 13 -9 30 -26 36 -38 11 -22 11 -22 -7 -6
-26 23 -83 28 -119 11 l-30 -14 25 20 c14 11 34 26 45 35 20 15 19 16 -15 45
l-35 30 37 -17 c21 -9 37 -24 38 -33z m-870 -13 c0 -3 -6 -6 -13 -6 -15 0 -39
44 -30 54 6 5 43 -36 43 -48z m2070 29 c7 -8 9 -15 6 -15 -4 0 -14 7 -22 15
-9 8 -11 15 -6 15 5 0 15 -7 22 -15z m51 -52 c13 -16 12 -17 -3 -4 -17 13 -22
21 -14 21 2 0 10 -8 17 -17z m-1631 -43 c0 -5 -2 -10 -4 -10 -3 0 -8 5 -11 10
-3 6 -1 10 4 10 6 0 11 -4 11 -10z m-1510 -24 c0 -2 -7 -6 -15 -10 -8 -3 -15
-1 -15 4 0 6 7 10 15 10 8 0 15 -2 15 -4z m2945 -34 c-3 -3 -11 0 -18 7 -9 10
-8 11 6 5 10 -3 15 -9 12 -12z m-3158 2 c-3 -3 -12 -4 -19 -1 -8 3 -5 6 6 6
11 1 17 -2 13 -5z m1943 -19 c-7 -9 -15 -13 -19 -10 -3 3 1 10 9 15 21 14 24
12 10 -5z m-2094 -7 c3 -4 -1 -5 -10 -4 -8 1 -18 5 -22 8 -3 4 1 5 10 4 8 -1
18 -5 22 -8z m1443 -72 c-3 -3 -27 -8 -55 -10 -27 -3 -41 -2 -30 2 21 9 93 15
85 8z m2181 -37 c0 -14 -17 -10 -23 5 -4 10 -1 13 9 9 7 -3 14 -9 14 -14z
m-3530 7 c0 -2 -7 -7 -16 -10 -8 -3 -12 -2 -9 4 6 10 25 14 25 6z m725 -44
c-3 -3 -11 0 -18 7 -9 10 -8 11 6 5 10 -3 15 -9 12 -12z m2035 -22 c0 -5 -5
-10 -11 -10 -5 0 -7 5 -4 10 3 6 8 10 11 10 2 0 4 -4 4 -10z m-935 -25 c60 -8
143 -29 209 -52 l48 -18 19 24 c11 13 23 21 27 17 4 -4 -4 -15 -17 -25 l-24
-18 61 -31 c122 -62 230 -155 298 -255 16 -23 32 -44 35 -47 7 -6 89 -147 89
-153 0 -2 -265 -3 -590 -3 -436 1 -590 -2 -590 -10 0 -14 -25 -26 -34 -17 -3
4 -2 11 3 17 7 8 -79 11 -305 10 -173 -1 -314 1 -314 5 1 3 7 17 14 30 8 14
12 30 9 37 -2 7 5 15 16 19 11 3 23 16 27 28 4 12 10 24 13 27 4 3 28 32 53
66 47 61 151 162 198 192 14 9 27 19 30 22 18 20 228 103 289 115 12 2 30 6
39 9 9 3 42 8 72 11 30 4 56 8 58 10 5 5 217 -3 267 -10z m825 -95 c0 -5 -4
-10 -10 -10 -5 0 -10 5 -10 10 0 6 5 10 10 10 6 0 10 -4 10 -10z m530 -15 c-7
-8 -17 -15 -22 -15 -11 0 14 29 26 30 5 0 3 -7 -4 -15z m545 -77 c22 -21 35
-38 30 -38 -6 0 -32 24 -60 52 -54 55 -36 47 30 -14z m-1055 4 c-8 -3 -19 -11
-23 -18 -11 -19 -26 -17 -23 3 3 18 35 34 51 25 5 -3 2 -8 -5 -10z m430 -2
c-6 -11 -14 -21 -18 -21 -32 -6 -51 -5 -46 2 3 5 10 9 15 9 6 0 17 7 25 15 22
22 37 19 24 -5z m-3530 -18 c0 -4 -9 -13 -21 -20 -19 -12 -19 -11 -9 8 10 19
30 28 30 12z m4211 -49 c13 -16 12 -17 -3 -4 -17 13 -22 21 -14 21 2 0 10 -8
17 -17z m-3391 -154 c-7 -11 -14 -18 -17 -15 -3 3 0 12 7 21 18 21 23 19 10
-6z m-805 -49 c3 -5 1 -10 -4 -10 -6 0 -11 5 -11 10 0 6 2 10 4 10 3 0 8 -4
11 -10z m2758 -203 c14 -21 13 -23 -8 -25 -30 -2 -55 26 -34 39 21 13 25 11
42 -14z m177 -51 c0 -2 -8 -3 -17 -1 -10 2 -39 7 -66 10 -26 4 -45 11 -42 16
4 5 10 7 14 5 4 -3 13 -1 21 4 12 7 90 -22 90 -34z m230 -12 c0 -2 -9 -4 -21
-4 -11 0 -18 4 -14 10 5 8 35 3 35 -6z m149 1 c-16 -16 -82 -28 -73 -14 3 5
15 9 27 9 12 0 29 5 37 10 22 14 26 12 9 -5z m-241 -4 c17 -1 22 -4 15 -9 -7
-4 -32 -7 -55 -6 -58 3 -60 3 -55 12 5 6 19 7 95 3z m152 -12 c0 -6 -4 -7 -10
-4 -5 3 -10 11 -10 16 0 6 5 7 10 4 6 -3 10 -11 10 -16z m-1980 -24 c0 -10
-10 -15 -30 -15 -47 0 -35 27 13 29 9 1 17 -6 17 -14z m409 0 c-11 -11 -168
-63 -174 -57 -9 9 120 67 151 67 21 0 30 -3 23 -10z m-359 -47 c0 -6 8 -17 18
-24 9 -7 13 -13 7 -14 -19 0 -35 16 -40 39 -2 12 0 19 6 16 5 -4 9 -11 9 -17z
m663 -2 c19 -8 39 -11 43 -8 4 4 4 2 1 -4 -5 -9 -17 -8 -44 2 -21 7 -50 13
-65 14 -15 0 -29 4 -32 9 -8 13 56 5 97 -13z m797 -26 c-7 -16 -19 -30 -27
-30 -13 0 -14 3 -1 23 8 12 18 28 22 35 14 24 19 3 6 -28z m-680 10 c0 -5 -8
-10 -17 -10 -15 0 -16 2 -3 10 19 12 20 12 20 0z m1281 -19 c-12 -8 -51 -4
-51 5 0 2 15 4 33 4 22 0 28 -3 18 -9z m-2031 -33 c0 -4 -7 -8 -15 -8 -8 0
-15 4 -15 8 0 5 7 9 15 9 8 0 15 -4 15 -9z m-120 -18 c0 -5 -9 -10 -20 -10
-10 0 -28 -9 -38 -20 l-19 -21 2 23 c1 13 3 26 4 31 2 11 71 8 71 -3z m-160
-54 c0 -3 -4 -8 -10 -11 -5 -3 -10 -1 -10 4 0 6 5 11 10 11 6 0 10 -2 10 -4z
m65 -6 c3 -6 -1 -7 -9 -4 -18 7 -21 14 -7 14 6 0 13 -4 16 -10z m1575 -40 c6
-11 8 -20 6 -20 -3 0 -10 9 -16 20 -6 11 -8 20 -6 20 3 0 10 -9 16 -20z
m-2280 -54 c0 -2 -9 -6 -20 -9 -11 -3 -18 -1 -14 4 5 9 34 13 34 5z m-515 -66
c3 -6 -1 -7 -9 -4 -18 7 -21 14 -7 14 6 0 13 -4 16 -10z m4209 -5 c-4 -8 -9
-15 -13 -16 -3 0 -14 -2 -23 -4 -14 -3 -15 0 -5 16 14 23 49 26 41 4z m-1414
-145 c0 -11 -57 -39 -64 -32 -9 9 -7 24 2 18 5 -3 15 6 22 19 10 19 16 22 27
14 7 -6 13 -15 13 -19z m-122 -15 c3 -3 -10 -5 -29 -5 -19 0 -45 -3 -59 -5
-15 -3 -11 0 10 9 33 13 66 13 78 1z m-185 -27 c-6 -11 -85 -10 -101 0 -7 5
13 8 47 8 32 -1 57 -4 54 -8z m-233 -22 c0 -2 -13 -9 -30 -15 -16 -5 -30 -6
-30 -1 0 7 10 11 53 19 4 0 7 -1 7 -3z m-181 -50 c-7 -14 -16 -26 -21 -26 -5
0 -1 13 8 30 21 35 30 33 13 -4z m1011 14 c0 -5 -5 -10 -11 -10 -5 0 -7 5 -4
10 3 6 8 10 11 10 2 0 4 -4 4 -10z m600 -64 c-8 -8 -31 -17 -50 -20 l-35 -6
40 19 c48 23 64 26 45 7z m-3349 -48 c-14 -20 -33 -39 -41 -41 -13 -3 -12 3 4
37 14 30 25 41 41 41 l23 0 -27 -37z m3091 8 l27 -8 -30 -29 c-31 -30 -46 -38
-32 -16 14 23 13 47 -2 47 -8 0 -15 4 -15 9 0 10 7 9 52 -3z m-2497 -66 c-16
-18 -35 -19 -35 -1 0 9 43 31 49 25 2 -2 -4 -13 -14 -24z m2261 21 c-4 -5 -1
-11 5 -13 6 -2 -6 -9 -27 -16 l-39 -12 30 25 c33 26 39 30 31 16z m594 -1
c-20 -13 -33 -13 -25 0 3 6 14 10 23 10 15 0 15 -2 2 -10z m-142 -55 c0 -14
-4 -27 -8 -30 -4 -2 -7 11 -6 29 1 39 14 40 14 1z m-3404 -40 c-30 -23 -36
-17 -12 11 13 14 24 20 26 14 2 -6 -4 -18 -14 -25z m-367 -52 c1 -22 -1 -24
-8 -10 -6 9 -7 22 -4 27 9 14 10 13 12 -17z m243 -183 c0 -5 -2 -10 -4 -10 -3
0 -8 5 -11 10 -3 6 -1 10 4 10 6 0 11 -4 11 -10z m994 -162 c-3 -5 -9 -6 -13
-4 -4 3 -26 -6 -49 -19 -39 -22 -58 -20 -29 2 26 21 102 38 91 21z m101 2 c13
-6 15 -9 5 -9 -8 0 -22 4 -30 9 -18 12 -2 12 25 0z m-982 -199 c-7 -10 -41 42
-36 56 5 12 10 7 23 -18 9 -19 15 -36 13 -38z m2757 35 c0 -2 -7 -6 -15 -10
-8 -3 -15 -1 -15 4 0 6 7 10 15 10 8 0 15 -2 15 -4z m-2510 -28 c0 -8 -12 -10
-50 -10 -36 0 -45 3 -28 10 23 9 78 9 78 0z m93 -44 c20 -19 35 -40 31 -45 -3
-6 -17 5 -30 23 -14 18 -32 39 -41 46 -9 6 -13 12 -7 12 5 0 26 -16 47 -36z
m1972 -63 c-2 -2 -12 0 -22 4 -10 5 -22 7 -26 6 -5 -1 -6 3 -3 8 4 5 16 5 30
-2 14 -7 23 -14 21 -16z m-1895 -80 c0 -5 -7 -12 -16 -15 -14 -5 -15 -4 -4 9
14 17 20 19 20 6z m1607 -83 c-8 -24 -12 -28 -15 -15 -2 10 2 24 8 32 19 22
20 18 7 -17z m-1117 12 c0 -5 -9 -14 -20 -20 -16 -8 -20 -8 -18 2 2 7 10 16
18 20 21 9 20 9 20 -2z m1089 -80 c-6 -16 -15 -30 -20 -30 -5 0 -3 14 6 30 9
17 17 30 20 30 2 0 -1 -13 -6 -30z m-9 -62 c0 -12 -3 -18 -7 -14 -11 10 -12
36 -2 36 5 0 9 -10 9 -22z m-1860 2 c0 -5 -7 -10 -16 -10 -8 0 -12 5 -9 10 3
6 10 10 16 10 5 0 9 -4 9 -10z m1580 1 c0 -5 -7 -12 -16 -15 -14 -5 -15 -4 -4
9 14 17 20 19 20 6z m-740 -29 c0 -13 -24 -39 -42 -45 -10 -4 -18 -2 -18 3 0
5 9 12 20 15 11 3 20 13 20 21 0 8 5 14 10 14 6 0 10 -4 10 -8z m1120 -12 c0
-5 -4 -10 -10 -10 -5 0 -10 5 -10 10 0 6 5 10 10 10 6 0 10 -4 10 -10z m240
-11 c0 -6 -4 -7 -10 -4 -5 3 -10 11 -10 16 0 6 5 7 10 4 6 -3 10 -11 10 -16z
m-111 -102 c0 -21 -1 -21 -9 -2 -12 28 -12 37 0 30 6 -3 10 -16 9 -28z m-1889
-38 c0 -4 -7 -6 -15 -3 -8 4 -15 1 -15 -7 0 -7 -2 -10 -5 -7 -3 3 -3 12 1 21
6 16 34 13 34 -4z m120 -29 c0 -4 -9 -6 -21 -3 -15 4 -17 8 -8 14 14 8 29 3
29 -11z m798 -95 c-3 -3 -9 2 -12 12 -6 14 -5 15 5 6 7 -7 10 -15 7 -18z
m-648 5 c-19 -13 -30 -13 -30 0 0 6 10 10 23 10 18 0 19 -2 7 -10z m207 -3 c2
-3 -10 -4 -26 -3 -17 0 -31 4 -31 9 0 7 48 2 57 -6z m640 7 c-3 -3 -12 -4 -19
-1 -8 3 -5 6 6 6 11 1 17 -2 13 -5z m-727 -24 c-14 -11 -29 -20 -35 -20 -5 0
-4 4 4 9 7 5 11 13 8 18 -3 5 6 10 21 11 l27 2 -25 -20z m2560 -82 c0 -5 -9
-4 -20 2 -11 6 -20 12 -20 14 0 2 9 2 20 -1 11 -3 20 -9 20 -15z m-200 -2 c0
-2 -8 -10 -17 -17 -16 -13 -17 -12 -4 4 13 16 21 21 21 13z m-2100 -61 c-7 -9
-15 -13 -17 -11 -7 7 7 26 19 26 6 0 6 -6 -2 -15z m1924 -58 c-2 -7 -14 -19
-27 -26 -21 -14 -21 -13 -7 5 14 17 31 33 37 34 1 0 0 -6 -3 -13z m-635 -62
c2 -3 -4 -8 -13 -11 -10 -4 -24 0 -34 9 -14 15 -13 16 13 11 16 -3 31 -7 34
-9z m-199 -85 c0 -5 -10 -10 -22 -10 -19 0 -20 2 -8 10 19 13 30 13 30 0z m27
-115 c9 -25 -4 -29 -17 -6 -7 15 -7 21 0 21 6 0 13 -7 17 -15z m114 -75 c28
-15 24 -31 -5 -20 -13 5 -27 6 -30 3 -3 -4 -6 -1 -6 6 0 7 -10 9 -27 5 -22 -4
-25 -3 -13 5 19 14 56 14 81 1z"/>
<path d="M4332 12805 c-14 -30 6 -26 26 5 10 16 10 20 -1 20 -8 0 -19 -11 -25
-25z"/>
<path d="M9986 13662 c-3 -2 -24 -5 -48 -7 -39 -2 -110 -14 -193 -30 -16 -4
-35 -7 -42 -7 -7 -1 -14 -7 -17 -15 -3 -8 -20 -12 -43 -12 -21 1 -60 -7 -88
-16 -27 -10 -55 -18 -60 -19 -23 -3 -240 -101 -247 -111 -4 -5 -8 -7 -8 -2 0
7 -155 -71 -212 -106 -205 -128 -335 -232 -522 -419 -81 -81 -144 -148 -140
-148 5 0 2 -6 -6 -13 -62 -50 -310 -420 -302 -451 2 -4 -5 -14 -14 -21 -10 -7
-15 -19 -11 -29 4 -10 1 -16 -7 -16 -12 0 -73 -119 -67 -129 2 -2 -1 -7 -6
-10 -8 -6 -62 -160 -73 -206 -1 -5 -6 -17 -10 -25 -12 -22 -58 -232 -70 -320
-24 -170 -30 -346 -17 -525 10 -142 15 -160 39 -160 6 0 13 -5 15 -12 3 -8 -3
-11 -16 -8 -17 3 -20 0 -16 -18 11 -50 17 -83 18 -104 1 -13 4 -23 7 -23 3 0
6 -8 7 -17 1 -23 5 -40 38 -148 15 -49 29 -99 32 -110 3 -11 9 -24 13 -30 3
-5 13 -30 20 -55 7 -25 18 -51 24 -59 6 -7 11 -20 12 -28 5 -30 123 -253 189
-353 103 -160 188 -263 335 -410 74 -74 145 -142 156 -151 12 -9 51 -39 87
-68 37 -28 71 -51 76 -51 5 0 11 -7 15 -15 3 -8 12 -15 20 -15 8 0 16 -4 18
-9 9 -25 278 -167 443 -234 95 -39 278 -100 340 -113 11 -2 31 -6 45 -9 35 -8
60 -13 100 -19 19 -3 44 -7 55 -10 23 -4 118 -15 191 -21 108 -9 343 -6 363 5
12 6 21 8 21 4 0 -3 7 -1 15 6 9 7 18 10 22 6 3 -3 1 -6 -5 -6 -7 0 -12 -5
-12 -11 0 -5 3 -8 8 -6 4 3 39 8 77 12 124 13 157 17 215 31 14 3 34 8 45 10
11 2 54 13 95 24 41 11 84 23 95 25 11 3 63 20 115 38 l95 34 29 57 c16 32 46
70 69 89 l42 32 -25 -33 c-68 -91 -90 -125 -84 -131 4 -3 9 0 11 7 3 6 10 12
17 12 18 0 66 24 66 33 0 4 9 7 19 7 11 0 21 3 23 8 2 4 19 15 38 24 38 19 43
23 135 82 48 32 176 125 230 168 91 73 206 187 242 239 79 115 110 190 118
285 l5 64 -32 0 c-17 0 -28 3 -24 7 4 4 17 8 29 8 20 0 22 5 22 58 1 32 -3 61
-7 63 -5 3 -6 9 -3 14 9 15 -24 119 -58 183 -33 63 -154 190 -174 183 -7 -3
-10 0 -7 7 2 7 -13 23 -33 37 -21 14 -40 28 -43 31 -10 13 -113 58 -169 75
-68 21 -331 22 -331 2 0 -5 -10 -8 -21 -8 -28 0 -150 -60 -156 -77 -3 -7 -8
-11 -13 -8 -4 2 -30 -19 -58 -48 -27 -29 -67 -65 -87 -82 -21 -16 -44 -36 -51
-42 -7 -7 -15 -13 -19 -13 -4 0 -27 -14 -51 -31 -92 -63 -298 -142 -403 -155
-40 -4 -220 -16 -236 -15 -130 8 -200 17 -260 33 -22 6 -51 12 -65 14 -21 2
-22 1 -10 -9 15 -12 22 -77 8 -77 -3 0 -10 15 -14 32 -9 44 -34 80 -50 74 -8
-3 -13 -1 -11 5 1 5 -26 25 -61 44 -100 55 -194 122 -276 197 -23 21 -44 38
-48 38 -5 0 -8 5 -8 10 0 15 -71 90 -84 89 -29 -3 -56 2 -56 11 0 6 3 9 8 9
36 -6 43 18 12 46 -11 10 -20 22 -20 26 0 5 -13 30 -30 57 -60 99 -113 244
-134 367 -1 6 -4 15 -7 20 -9 16 -8 280 1 322 5 21 11 51 14 66 7 38 25 95 42
134 8 17 14 35 14 40 0 14 81 161 120 218 39 57 80 104 129 149 18 17 55 52
83 79 27 26 53 47 59 47 5 0 9 4 9 8 0 4 14 17 31 27 17 11 48 30 68 43 32 20
138 74 151 77 3 1 23 9 44 18 65 28 168 55 232 61 17 2 35 6 40 8 11 7 205 2
285 -6 91 -10 262 -63 346 -107 76 -41 214 -137 228 -158 3 -6 15 -11 26 -11
34 0 62 -19 49 -34 -13 -17 36 -56 116 -93 96 -44 146 -52 278 -47 186 7 187
7 160 48 -25 39 -10 43 23 6 l28 -32 57 22 c31 11 82 38 114 59 185 122 278
291 283 512 l2 84 -45 28 c-24 15 -48 27 -53 26 -25 -4 -37 1 -25 13 8 8 24 5
63 -15 61 -32 62 -32 54 -7 -3 11 -8 32 -11 46 -9 51 -32 92 -56 100 -20 6
-21 8 -5 13 16 6 14 13 -21 66 -50 76 -129 155 -272 275 -73 61 -326 229 -356
236 -13 3 -24 9 -24 13 0 3 -15 12 -32 20 -18 8 -60 26 -93 41 -120 54 -255
104 -255 93 0 -3 -6 -1 -13 5 -7 6 -25 13 -40 16 -15 2 -31 7 -36 10 -5 4 -22
8 -38 10 -15 2 -50 9 -78 16 -27 7 -64 13 -82 15 -55 6 -117 16 -124 20 -18
12 -593 28 -603 17z m109 -50 c8 -23 0 -24 -18 -4 -14 15 -15 19 -2 19 8 0 17
-7 20 -15z m-309 -109 c-7 -7 -26 7 -26 19 0 6 6 6 15 -2 9 -7 13 -15 11 -17z
m979 7 c4 -6 -7 -10 -27 -9 -31 1 -32 1 -8 9 14 4 26 8 27 9 1 1 5 -3 8 -9z
m-919 -67 c-6 -6 -36 9 -36 18 0 5 9 4 20 -3 10 -7 18 -14 16 -15z m-71 -23
c3 -5 -1 -10 -10 -10 -9 0 -13 5 -10 10 3 6 8 10 10 10 2 0 7 -4 10 -10z m890
-179 c-3 -6 -11 -11 -17 -11 -6 0 -6 6 2 15 14 17 26 13 15 -4z m340 -51 c3
-5 -1 -10 -10 -10 -9 0 -13 5 -10 10 3 6 8 10 10 10 2 0 7 -4 10 -10z m636
-137 c13 -16 12 -17 -3 -4 -17 13 -22 21 -14 21 2 0 10 -8 17 -17z m-1204
-135 c-3 -7 -5 -2 -5 12 0 14 2 19 5 13 2 -7 2 -19 0 -25z m1553 -112 c0 -11
-19 -15 -25 -6 -3 5 1 10 9 10 9 0 16 -2 16 -4z m-3326 -40 c-7 -18 -44 -22
-44 -5 0 5 4 8 9 5 5 -3 14 1 21 9 15 19 23 14 14 -9z m520 -6 c-6 -6 -10 -2
-11 12 -2 16 1 18 10 9 7 -7 8 -14 1 -21z m-644 0 c0 -5 -2 -10 -4 -10 -3 0
-8 5 -11 10 -3 6 -1 10 4 10 6 0 11 -4 11 -10z m30 6 c0 -3 -4 -8 -10 -11 -5
-3 -10 -1 -10 4 0 6 5 11 10 11 6 0 10 -2 10 -4z m2170 -6 c0 -5 -2 -10 -4
-10 -3 0 -8 5 -11 10 -3 6 -1 10 4 10 6 0 11 -4 11 -10z m736 -60 c16 -6 36
-20 43 -33 13 -21 13 -21 -5 -6 -10 9 -32 24 -49 32 -35 19 -30 21 11 7z m254
-10 c-6 -11 -12 -20 -14 -20 -2 0 -2 9 1 20 3 11 9 20 15 20 5 0 4 -9 -2 -20z
m-2130 -50 c0 -5 -7 -10 -16 -10 -8 0 -12 5 -9 10 3 6 10 10 16 10 5 0 9 -4 9
-10z m1700 -52 c0 -5 -6 -8 -13 -8 -8 0 -36 -20 -63 -45 -73 -67 -75 -54 -3
18 57 56 78 66 79 35z m-2352 -2 c-2 0 -14 -10 -27 -21 l-25 -20 20 26 c10 15
23 25 27 22 5 -3 7 -6 5 -7z m2592 -58 c0 -7 -11 -13 -25 -13 -29 0 -33 11 -7
18 29 8 32 7 32 -5z m-2673 -33 c-4 -8 -11 -15 -17 -15 -6 0 -6 7 2 20 14 22
24 19 15 -5z m645 -17 c-11 -11 -202 -21 -202 -10 0 4 24 8 53 9 82 2 118 9
135 27 16 16 17 16 20 0 2 -9 -1 -21 -6 -26z m1855 16 c-3 -3 -12 -4 -19 -1
-8 3 -5 6 6 6 11 1 17 -2 13 -5z m-2090 -20 c-3 -3 -12 -4 -19 -1 -8 3 -5 6 6
6 11 1 17 -2 13 -5z m856 -71 c20 -13 37 -26 37 -29 0 -4 -6 -2 -12 3 -7 6
-29 16 -50 22 -20 7 -39 18 -42 26 -6 17 14 11 67 -22z m-2028 -92 c-9 -8 -36
-10 -30 -2 2 4 11 8 20 8 8 0 13 -3 10 -6z m3581 -7 c19 -15 19 -15 -1 -6 -11
5 -26 7 -34 4 -8 -3 -11 0 -7 7 10 15 19 14 42 -5z m-101 -14 c3 -5 2 -10 -4
-10 -5 0 -13 5 -16 10 -3 6 -2 10 4 10 5 0 13 -4 16 -10z m459 -61 c-6 -11
-24 -2 -24 11 0 5 7 7 15 4 8 -4 12 -10 9 -15z m-977 -21 c-3 -7 -5 -2 -5 12
0 14 2 19 5 13 2 -7 2 -19 0 -25z m-2675 -95 c-13 -9 -41 -17 -62 -17 -49 -2
-36 14 16 21 22 3 41 7 43 9 2 2 9 4 15 3 6 0 1 -7 -12 -16z m-252 -83 c0 -5
-7 -10 -15 -10 -8 0 -15 -4 -15 -10 0 -5 -6 -10 -12 -10 -7 1 -2 10 11 20 26
23 31 24 31 10z m-70 -134 c0 -3 -4 -8 -10 -11 -5 -3 -10 -1 -10 4 0 6 5 11
10 11 6 0 10 -2 10 -4z m210 -353 c30 -10 -31 -24 -66 -14 -18 5 -44 7 -56 5
l-23 -5 22 13 c21 13 89 13 123 1z m120 -72 c24 -49 30 -52 66 -42 30 8 84
-10 84 -28 0 -5 15 -19 33 -30 30 -20 31 -21 6 -17 -41 7 -170 63 -219 96 -25
16 -52 30 -60 31 -13 0 43 26 62 28 4 1 17 -17 28 -38z m-445 -20 c-9 -8 -36
-10 -30 -2 2 4 11 8 20 8 8 0 13 -3 10 -6z m781 -97 c41 -5 53 -9 39 -14 -11
-4 -33 -6 -50 -4 -16 1 -47 4 -67 5 -21 2 -38 6 -38 10 0 9 30 18 46 14 6 -2
37 -6 70 -11z m169 -4 c-27 -12 -43 -12 -25 0 8 5 22 9 30 9 10 0 8 -3 -5 -9z
m-384 -273 c-8 -8 -11 -7 -11 4 0 20 13 34 18 19 3 -7 -1 -17 -7 -23z m26 -63
c-3 -3 -12 -4 -19 -1 -8 3 -5 6 6 6 11 1 17 -2 13 -5z m-131 -83 c-19 -21 -81
-48 -71 -31 4 6 11 10 17 10 5 0 21 9 35 20 33 25 41 26 19 1z m-356 -45 c0
-2 -7 -6 -15 -10 -8 -3 -15 -1 -15 4 0 6 7 10 15 10 8 0 15 -2 15 -4z m-10
-66 c0 -5 -4 -10 -10 -10 -5 0 -10 5 -10 10 0 6 5 10 10 10 6 0 10 -4 10 -10z
m-23 -62 c-3 -8 -6 -5 -6 6 -1 11 2 17 5 13 3 -3 4 -12 1 -19z m-148 -59 c-8
-4 -16 -5 -19 -2 -3 3 1 8 8 10 6 3 13 14 13 26 2 20 2 20 6 -2 3 -13 -1 -27
-8 -32z m631 31 c0 -5 -4 -10 -10 -10 -5 0 -10 5 -10 10 0 6 5 10 10 10 6 0
10 -4 10 -10z m-300 -10 c0 -5 -9 -10 -20 -10 -11 0 -20 5 -20 10 0 6 9 10 20
10 11 0 20 -4 20 -10z m335 0 c3 -6 -1 -7 -9 -4 -18 7 -21 14 -7 14 6 0 13 -4
16 -10z m81 -205 c-3 -18 -13 -28 -31 -31 -21 -3 -19 5 8 27 27 22 26 22 23 4z
m2761 -71 c-3 -3 -12 -4 -19 -1 -8 3 -5 6 6 6 11 1 17 -2 13 -5z m467 -33 c3
-5 -1 -11 -9 -15 -15 -6 -29 7 -18 18 9 9 21 8 27 -3z m-2947 -93 c-3 -7 -5
-2 -5 12 0 14 2 19 5 13 2 -7 2 -19 0 -25z m2883 -36 c0 -8 -1 -13 -3 -11 -1
2 -9 12 -16 22 -12 15 -12 17 3 11 9 -3 16 -13 16 -22z m-2820 -62 c3 0 -8 -7
-24 -15 -38 -20 -41 -19 -41 9 0 21 3 22 30 15 16 -5 32 -9 35 -9z m757 -46
c-3 -3 -12 -4 -19 -1 -8 3 -5 6 6 6 11 1 17 -2 13 -5z m38 -14 c3 -5 2 -10 -4
-10 -5 0 -13 5 -16 10 -3 6 -2 10 4 10 5 0 13 -4 16 -10z m-1327 -22 c8 -10 4
-13 -14 -14 -20 -2 -23 1 -13 12 14 17 14 17 27 2z m2464 -31 c7 -7 28 -20 46
-28 17 -7 32 -17 32 -20 0 -4 9 -9 20 -12 22 -6 28 -27 7 -27 -7 0 -36 16 -64
35 -29 19 -59 35 -67 35 -10 0 -13 6 -10 15 7 18 18 19 36 2z m1168 -47 c0 -5
-2 -10 -4 -10 -3 0 -8 5 -11 10 -3 6 -1 10 4 10 6 0 11 -4 11 -10z m-1431 -80
c21 -11 36 -40 21 -40 -6 0 -10 7 -10 15 0 8 -6 15 -14 15 -8 0 -18 5 -21 10
-8 13 1 13 24 0z m876 -30 c-3 -15 7 -23 51 -40 30 -11 62 -20 72 -21 9 0 12
-3 5 -5 -6 -3 -40 3 -75 12 -34 9 -72 18 -83 20 -31 4 -32 5 -5 13 14 4 26 12
26 19 2 18 4 22 8 22 3 0 3 -9 1 -20z m-387 1 c7 -1 10 -6 7 -11 -4 -6 -11 -7
-17 -4 -6 4 -24 7 -39 6 -16 0 -29 3 -29 7 0 6 23 7 78 2z m-1242 -38 c-11
-11 -19 6 -11 24 8 17 8 17 12 0 3 -10 2 -21 -1 -24z m1467 28 c9 0 17 -5 17
-10 0 -7 -54 -7 -135 -1 l-20 1 20 8 c17 7 47 8 118 2z m-948 -41 c3 -6 -1 -7
-9 -4 -18 7 -21 14 -7 14 6 0 13 -4 16 -10z m1625 -8 c0 -5 -6 -9 -12 -10 -7
0 -37 -3 -65 -6 -30 -3 -53 -1 -53 4 0 5 26 11 58 13 31 2 60 4 65 5 4 1 7 -2
7 -6z m-231 -40 c30 -15 57 -34 59 -42 2 -10 1 -11 -5 -3 -14 20 -125 61 -170
62 -13 1 -23 6 -23 11 0 18 80 1 139 -28z m287 -43 c19 -22 19 -22 -3 -8 -13
8 -23 17 -23 21 0 12 6 9 26 -13z m-2411 -27 c-16 -11 -12 -30 10 -46 19 -14
20 -15 1 -33 -18 -17 -18 -17 -11 5 4 15 2 24 -9 28 -23 9 -21 54 2 54 10 0
13 -3 7 -8z m-52 -152 c-3 -11 -9 -17 -15 -14 -5 3 -4 12 3 20 16 19 18 18 12
-6z m2395 1 c9 -5 0 -8 -25 -8 -21 -1 -53 -3 -70 -6 -38 -6 -43 0 -10 13 28
11 88 12 105 1z m-224 -42 c-31 -12 -40 -9 -20 6 10 8 24 11 29 8 6 -4 2 -10
-9 -14z m-134 -39 c0 -5 -8 -10 -17 -10 -15 0 -16 2 -3 10 19 12 20 12 20 0z
m-65 -10 c3 -5 -3 -10 -14 -10 -11 0 -23 5 -26 10 -3 6 3 10 14 10 11 0 23 -4
26 -10z m-165 -48 c0 -4 -9 -8 -19 -8 -11 0 -17 4 -15 8 3 4 12 8 20 8 8 0 14
-4 14 -8z m144 -81 c-22 -21 -52 -58 -66 -82 -15 -24 -36 -55 -48 -69 -94
-109 -113 -130 -117 -126 -8 8 54 92 79 108 13 9 37 42 53 74 27 55 69 104 88
104 5 0 15 7 23 15 9 8 18 15 22 15 4 0 -11 -18 -34 -39z m-809 10 c-6 -5 -21
-11 -35 -15 -21 -5 -20 -3 5 9 35 17 42 18 30 6z m195 -52 c-7 -11 -14 -18
-17 -15 -3 3 0 12 7 21 18 21 23 19 10 -6z m-79 -112 c-10 -9 -11 -8 -5 6 3
10 9 15 12 12 3 -3 0 -11 -7 -18z m3 -83 c10 -27 7 -84 -6 -84 -6 0 -9 3 -5 6
3 4 0 18 -7 33 -11 23 -12 35 -7 56 3 11 19 4 25 -11z m-118 -249 c-14 -14
-16 -14 -16 -2 0 9 6 17 13 20 19 7 21 -1 3 -18z"/>
<path d="M1040 13638 c-58 -12 -58 -12 -105 -28 -123 -41 -263 -148 -334 -254
-45 -68 -81 -158 -70 -178 7 -13 6 -16 -4 -12 -8 3 -14 -1 -14 -8 -1 -7 -4
-33 -8 -58 -4 -25 -8 -170 -9 -323 -2 -310 -8 -280 59 -264 23 6 62 -18 46
-27 -5 -4 -12 -2 -15 3 -7 10 -65 5 -81 -9 -13 -11 -14 -138 -1 -159 5 -7 5
-16 -1 -20 -5 -3 -8 -595 -7 -1476 2 -1614 -2 -1517 63 -1679 46 -115 63 -136
114 -137 l42 -1 -33 -9 c-36 -11 -36 -14 13 -64 58 -59 217 -155 258 -155 7 0
17 -3 21 -7 12 -12 38 -15 153 -18 64 -2 115 1 119 6 3 5 9 7 14 4 17 -10 174
39 204 64 9 7 16 10 16 7 0 -26 194 159 205 196 4 10 10 18 14 18 18 0 80 150
99 240 3 14 7 537 8 1163 2 881 0 1137 -9 1137 -7 1 -25 7 -42 15 l-30 13 41
-5 42 -4 1 305 c1 326 2 316 -44 306 -5 -1 -6 2 -2 7 5 4 13 9 18 9 5 1 13 2
18 3 10 1 8 794 -2 841 -2 14 -11 45 -18 70 -7 25 -13 50 -15 55 -5 27 -76
160 -105 198 -73 95 -196 190 -274 212 -17 4 -34 9 -40 11 -58 16 -105 20
-116 10 -9 -8 -10 -8 -5 1 7 14 -115 14 -184 1z m394 -168 c15 -15 -14 -12
-44 5 l-25 15 29 -5 c16 -2 34 -9 40 -15z m56 -80 c-29 -8 -40 -4 -40 15 0 11
6 12 33 3 32 -12 32 -12 7 -18z m-365 -108 c-3 -3 -11 0 -18 7 -9 10 -8 11 6
5 10 -3 15 -9 12 -12z m176 -79 c13 -17 13 -17 -6 -3 -11 8 -22 16 -24 17 -2
2 0 3 6 3 6 0 17 -8 24 -17z m339 -143 c18 -12 2 -12 -25 0 -13 6 -15 9 -5 9
8 0 22 -4 30 -9z m-776 -28 c3 -5 -6 -19 -19 -30 -26 -23 -48 -31 -27 -10 7 7
12 20 12 30 0 18 24 25 34 10z m128 -192 c-5 -14 -11 -19 -16 -12 -3 6 -2 13
3 17 6 3 7 13 4 23 -4 13 -3 14 6 6 8 -7 9 -19 3 -34z m718 -447 c1 -5 2 -32
4 -61 4 -57 -9 -80 -20 -35 -4 15 -13 40 -20 54 -10 20 -10 29 -1 38 12 12 37
15 37 4z m-1109 -170 c13 -17 13 -17 -6 -3 -11 8 -22 16 -24 17 -2 2 0 3 6 3
6 0 17 -8 24 -17z m1127 3 c12 0 22 -3 22 -7 0 -5 -10 -9 -22 -10 -13 0 -37
-1 -54 -2 -27 -2 -30 0 -21 15 7 11 17 14 31 9 12 -4 31 -6 44 -5z m-519 -305
c12 -12 23 -16 32 -10 8 5 23 9 34 9 14 -1 9 -6 -16 -18 -20 -9 -37 -21 -37
-25 0 -19 -25 -67 -34 -67 -6 0 -7 7 -2 18 15 35 11 76 -10 94 -18 15 -19 17
-3 18 9 0 25 -8 36 -19z m-199 -41 c0 -5 -10 -10 -22 -9 -22 0 -22 1 -3 9 11
5 21 9 23 9 1 1 2 -3 2 -9z m-324 -95 c-3 -9 -10 -13 -16 -10 -6 3 -13 0 -16
-9 -3 -8 -13 -17 -22 -21 -14 -5 -14 -4 1 13 9 10 17 24 17 31 0 7 4 10 9 6 5
-3 13 0 16 6 10 15 19 3 11 -16z m764 -6 c0 -14 -61 -69 -71 -64 -4 3 -13 -4
-19 -15 -12 -23 -42 -28 -34 -5 4 8 11 15 18 15 19 1 69 47 62 58 -3 6 -2 13
4 17 5 3 10 1 10 -4 0 -6 4 -11 10 -11 5 0 6 7 3 17 -4 11 -3 14 5 9 7 -4 12
-11 12 -17z m-390 -49 c0 -5 -5 -10 -11 -10 -5 0 -7 5 -4 10 3 6 8 10 11 10 2
0 4 -4 4 -10z m230 -99 c-6 -12 -14 -20 -18 -18 -4 3 -31 1 -59 -2 -29 -4 -51
-5 -48 -3 6 7 129 49 133 46 2 -1 -1 -12 -8 -23z m-660 -8 c0 -15 -70 -53 -95
-53 -41 0 -29 15 33 37 31 12 58 22 60 22 1 1 2 -2 2 -6z m425 -21 c-3 -3 -11
0 -18 7 -9 10 -8 11 6 5 10 -3 15 -9 12 -12z m385 -22 c0 -5 -2 -10 -4 -10 -3
0 -8 5 -11 10 -3 6 -1 10 4 10 6 0 11 -4 11 -10z m-813 -121 c-1 -11 -14 -32
-30 -45 -44 -37 -53 -28 -13 13 20 21 36 41 36 45 0 4 2 8 4 8 3 0 4 -9 3 -21z
m781 -106 c-10 -2 -26 -2 -35 0 -10 3 -2 5 17 5 19 0 27 -2 18 -5z m-438 -92
c0 -10 -30 -24 -37 -17 -3 3 -2 9 2 15 8 13 35 15 35 2z m30 -303 c0 -15 -17
-8 -41 19 l-24 26 33 -19 c17 -10 32 -22 32 -26z m37 -263 c12 -12 13 -19 3
-30 -14 -17 -40 -20 -40 -6 0 6 4 12 10 16 5 3 7 12 3 20 -7 19 4 19 24 0z
m513 -63 c0 -5 -7 -9 -15 -9 -8 0 -15 4 -15 9 0 4 7 8 15 8 8 0 15 -4 15 -8z
m-285 -12 c3 -5 1 -10 -4 -10 -6 0 -11 5 -11 10 0 6 2 10 4 10 3 0 8 -4 11
-10z m-415 -100 c0 -11 -130 -73 -138 -66 -2 3 7 11 22 17 14 7 26 16 26 21 0
4 6 8 14 8 7 0 27 7 42 15 34 18 34 18 34 5z m395 0 c-3 -5 -12 -10 -18 -10
-7 0 -6 4 3 10 19 12 23 12 15 0z m-617 -107 c-5 -7 -14 -10 -19 -7 -16 10 -9
23 10 21 15 -1 17 -4 9 -14z m892 -20 c0 -22 -17 -50 -25 -42 -6 7 11 59 20
59 3 0 5 -8 5 -17z m213 -134 c-32 -21 -43 -24 -43 -9 0 5 11 12 25 16 14 3
25 10 25 16 0 5 5 6 11 2 7 -4 0 -14 -18 -25z m-419 -69 c-23 -8 -50 -2 -64
15 -8 10 -1 10 36 2 34 -8 41 -13 28 -17z m196 0 c0 -5 -7 -7 -15 -4 -8 4 -15
8 -15 10 0 2 7 4 15 4 8 0 15 -4 15 -10z m-910 -255 c-7 -8 -18 -15 -24 -15
-6 0 -2 7 8 15 25 19 32 19 16 0z m740 -183 c0 -5 -7 -9 -15 -9 -8 0 -12 4 -9
9 3 4 9 8 15 8 5 0 9 -4 9 -8z m-140 -16 c0 -2 -7 -7 -16 -10 -8 -3 -12 -2 -9
4 6 10 25 14 25 6z m159 -47 c-9 -17 -13 -19 -20 -8 -5 8 -3 16 4 21 22 14 28
8 16 -13z m-722 -71 c-3 -7 -5 -2 -5 12 0 14 2 19 5 13 2 -7 2 -19 0 -25z
m203 22 c8 -5 12 -11 9 -14 -3 -3 -14 1 -25 9 -21 16 -8 20 16 5z m231 -53
c-11 -23 -23 -33 -38 -33 -13 0 -23 4 -23 8 0 4 7 8 15 8 8 0 25 11 37 25 28
32 29 32 9 -8z m-104 -30 c2 -3 -8 -4 -22 -4 -14 0 -25 3 -25 8 0 7 38 4 47
-4z m809 -175 c-3 -6 -16 -7 -29 -4 -22 6 -22 6 3 12 28 8 35 6 26 -8z m-147
-25 c-10 -9 -59 -17 -59 -9 0 4 14 9 32 10 18 2 30 1 27 -1z m-844 -67 c-3 -5
-11 -10 -16 -10 -6 0 -7 5 -4 10 3 6 11 10 16 10 6 0 7 -4 4 -10z m-43 -22
c-9 -9 -15 -9 -24 0 -9 9 -7 12 12 12 19 0 21 -3 12 -12z"/>
</g>
</svg>
